**ABCDEFGHIJKLMNOPQRSTUVWXYZabcdefghijklmnopqrstuvwxyz**************************
**PARASOLID !"#$%&'()*+,-./:;<=>?@[\]^_`{|}~0123456789**************************
**PART1;
MC=AMD64;
MC_MODEL=Intel64 Family 6 Model 60 Stepping 3, GenuineIntel;
MC_ID=unknown;
OS=Windows_NT;
OS_RELEASE=unknown;
FRU=Parasolid Version 33.1, build 247,  8- 6-2021;
APPL=SOLIDWORKS 2022-2021255;
SITE=;
USER=unknown;
FORMAT=text;
GUISE=transmit;
KEY=FILESidepanel_Right.x_t;
DATE=Sun May  1 00:16:28 2022;
**PART2;
SCH=SCH_3301247_33103;
USFLD_SIZE=0;
**PART3;
**END_OF_HEADER*****************************************************************
T51 : TRANSMIT FILE created by modeller version 330124723 SCH_3301247_33103_1300
6230 0 12 35 CCCI7 lattice222 0 CCCI4 mesh1006 0 I8 polyline1008 0 CCCCCCCDI5 ow
ner1040 0 CCCCCCI13 boundary_mesh1006 0 I17 boundary_polyline1008 0 CCCA16 index
_map_offset0 0 1 dA9 index_map82 0 A17 node_id_index_map82 0 A20 schema_embeddin
g_map82 0 A5 child12 0 A14 lowest_node_id0 0 1 dA16 mesh_offset_data206 0 Z1 956
 2 3 0 0 0 0 0 0 0 1e3 1e-8 0 4 0 1 0 1 1 5 6 7 8 0 0 9 10 11 0 0 0 0 0 0 0 81 2
55 2 2 934 12 1 13 0 0 0 0 14 70 11 CI9 list_type0 0 1 uI10 notransmit0 0 1 lCCC
DCCDI12 finger_index0 0 1 dI12 finger_block1012 0 CZ3 0 4 T1 0 0 9 20 1 15 15 13
 255 5 99 0 1 0 16 0 0 17 0 52 255 6 705 18 19 20 0 0 --.1925 .0015 -.016 0 1 0
 .0026 .70710678118655 .707106781186546 0 0 1 31 255 7 584 0 10 21 0 0 +-.1925 5
e-4 -.016 0 1 0 0 0 1 .0016 29 255 8 75 0 22 23 0 .1965 0 .02 19 8 CCCCCCCA5 own
er12 0 Z9 33 0 1 17 0 24 V0 16 255 10 581 0 ?25 0 26 7 0 0 1 18 255 11 30 0 27 0
 28 29 ?1 17 255 27 0 30 31 32 11 33 34 0 35 +18 28 27 0 32 11 36 37 ?1 29 29 32
 0 11 37 38 .1965 .0015 .02 29 37 29 0 28 39 29 -.1965 .0015 .02 29 38 78 0 40 2
9 41 .1965 0 -.02 18 40 69 0 42 43 0 38 ?1 29 41 77 0 43 38 23 -.1965 0 -.02 18
 43 68 0 44 45 40 41 ?1 29 23 76 0 45 41 8 -.1965 0 .02 18 45 67 0 46 22 43 23 ?
1 17 46 0 47 48 49 45 50 51 0 52 +18 22 66 0 53 54 45 8 ?1 17 53 0 55 35 52 22 5
6 57 0 58 +18 54 21 0 59 36 22 60 ?1 17 59 0 61 62 63 54 64 65 0 31 -18 36 24 0
 64 28 54 39 ?1 29 60 23 0 54 0 39 .1965 .0015 -.02 29 39 26 0 36 60 37 -.1965 .
0015 -.02 17 64 0 30 32 31 36 59 65 0 63 +15 255 30 4 0 31 16 0 17 32 0 30 27 64
 28 66 67 0 48 +17 31 0 30 64 27 54 68 69 0 70 +16 65 9 0 ?64 67 69 71 0 0 1 17
 63 0 61 59 44 36 49 72 0 66 -15 61 87 0 44 73 0 17 44 0 61 63 62 43 42 74 0 49
 +17 49 0 47 46 66 43 63 72 0 50 +16 72 81 0 ?49 75 76 77 0 0 1 17 66 0 47 49 48
 36 32 67 0 0 -15 47 85 0 46 78 0 17 48 0 47 66 46 28 52 76 0 33 -16 67 13 0 ?32
 34 65 79 0 0 1 16 34 17 0 ?27 80 67 81 0 0 1 30 255 79 15 0 67 71 81 0 +-.1965
 .0015 -.02 0 0 1 30 71 11 0 65 82 79 0 +-.1965 .0015 -.02 -1 0 0 30 81 19 0 34
 79 83 0 +-.1965 .0015 .02 1 0 -882810929250284e-32 30 83 74 0 84 81 85 0 +.1965
 0 -.02 0 0 -1 16 84 62 0 ?86 74 87 83 0 0 1 30 85 73 0 74 83 88 0 +-.1965 0 -.0
2 -1 0 0 16 74 58 0 ?44 51 84 85 0 0 1 30 88 72 0 51 85 89 0 +-.1965 0 -.02 0 0
 1 16 51 54 0 ?46 57 74 88 0 0 1 30 89 71 0 57 88 90 0 +-.1965 0 .02 1 0 -882810
929250284e-32 16 57 50 0 ?53 69 51 89 0 0 1 30 90 95 0 80 89 91 0 +.1965 .0015 .
02 0 -1 0 16 80 79 0 ?58 76 34 90 0 0 1 30 91 96 0 76 90 77 0 +-.1965 .0015 .02
 0 -1 0 16 76 80 0 ?52 72 80 91 0 0 1 30 77 97 0 72 91 92 0 +-.1965 .0015 -.02 0
 -1 0 30 92 98 0 75 77 93 0 +.1965 .0015 -.02 0 -1 0 16 75 82 0 ?62 94 72 92 0 0
 1 31 93 494 0 94 92 95 0 +-.01800001099982695 5e-4 -.00850000000000028 0 1 0 0
 0 1 .0016 16 94 491 0 ?96 97 75 93 0 0 1 31 95 500 0 97 93 98 0 --.1925 .0015 -
.016 0 1 0 0 0 1 .0026 16 97 497 0 ?99 100 94 95 0 0 1 31 98 506 0 100 95 101 0
 --.1925 .0015 .016 0 1 0 0 0 1 .002599999999999935 16 100 503 0 ?102 103 97 98
 0 0 1 31 101 512 0 103 98 104 0 -.0445 .0015 .015 0 1 0 0 0 1 .0025999999999999
35 16 103 509 0 ?105 106 100 101 0 0 1 31 104 518 0 106 101 107 0 -.1925 .0015 .
016 0 1 0 0 0 1 .0026 16 106 515 0 ?108 109 103 104 0 0 1 31 107 524 0 109 104 1
10 0 -.1925 .0015 -.016 0 1 0 0 0 1 .002599999999999935 16 109 521 0 ?111 112 10
6 107 0 0 1 31 110 530 0 112 107 113 0 --.0315 .0015 .015 0 1 0 0 0 1 .002599999
999999935 16 112 527 0 ?114 115 109 110 0 0 1 31 113 536 0 115 110 116 0 -.14349
99640375004 .0015 -.00858999977260868 0 1 0 0 0 1 .002599999999999935 16 115 533
 0 ?117 118 112 113 0 0 1 31 116 542 0 118 113 119 0 --.01800001099982695 .0015
 -.00850000000000028 0 1 0 0 0 1 .002599999999999935 16 118 539 0 ?120 121 115 1
16 0 0 1 31 119 548 0 121 116 122 0 +.1434999640375004 .000499999999999994 -.008
58999977260868 0 1 0 0 0 1 .0016 16 121 545 0 ?123 124 118 119 0 0 1 31 122 554
 0 124 119 125 0 +-.0315 5e-4 .015 0 1 0 0 0 1 .0016 16 124 551 0 ?126 127 121 1
22 0 0 1 31 125 560 0 127 122 128 0 +.1925 .000499999999999994 -.016 0 1 0 0 0 1
 .0016 16 127 557 0 ?129 130 124 125 0 0 1 31 128 566 0 130 125 131 0 +.1925 5e-
4 .016 0 1 0 0 0 1 .0016 16 130 563 0 ?132 133 127 128 0 0 1 31 131 572 0 133 12
8 21 0 +.0445 .000500000000000008 .015 0 1 0 0 0 1 .0016 16 133 569 0 ?134 26 13
0 131 0 0 1 31 21 578 0 26 131 7 0 +-.1925 .000499999999999994 .016 0 1 0 0 0 1
 .0016 16 26 575 0 ?135 10 133 21 0 0 1 17 135 0 136 135 135 0 137 26 0 0 +15 13
6 576 0 135 138 139 17 137 0 140 137 137 0 135 26 0 0 -15 140 686 0 137 141 0 14
 255 141 684 142 ?19 143 144 5 20 +0 0 19 143 24 81 1 142 935 145 141 146 0 0 14
7 148 14 19 698 147 ?0 141 149 5 6 +0 0 0 141 24 14 143 670 150 ?141 151 152 5 1
53 +0 0 141 151 24 15 144 685 0 154 141 140 52 20 691 155 141 153 6 0 --.1925 .0
00499999999999994 .016 0 1 0 .0016 .707106781186526 .707106781186569 0 0 1 13 24
 34 0 0 0 0 0 0 9 16 14 16 232 156 ?157 0 158 5 159 +0 0 157 0 24 81 1 156 938 1
45 16 160 0 150 161 162 14 157 184 161 ?163 16 164 5 165 -0 0 163 16 24 15 158 5
40 0 120 16 166 50 255 159 3 0 16 167 165 0 +0 .0015 0 0 1 0 0 0 1 51 255 167 39
8 0 168 169 159 0 --.1925 0 -.016 0 1 0 .0016 0 0 1 50 165 70 0 157 159 170 0 +0
 0 0 0 1 0 0 0 1 50 170 91 0 171 165 172 0 +-.1965 .0015 .02 -882810929250284e-3
2 0 -1 -1 0 882810929250284e-32 14 171 84 173 ?168 78 55 5 170 -0 0 168 78 24 50
 172 92 0 78 170 174 0 +-.1965 .0015 -.02 1 0 0 0 0 -1 14 78 86 175 ?171 73 47 5
 172 -0 0 171 73 24 50 174 93 0 73 172 176 0 +-.1965 .0015 -.02 0 0 1 1 0 0 14 7
3 88 177 ?78 163 61 5 174 -0 0 78 163 24 50 176 94 0 163 174 178 0 +.1965 .0015
 -.02 -1 0 0 0 0 1 14 163 90 179 ?73 157 180 5 176 -0 0 73 157 24 52 178 607 181
 182 176 183 0 --.01800001099982695 5e-4 -.00850000000000028 0 1 0 .0016 .707106
781186526 .707106781186569 0 0 1 81 2 181 608 184 178 0 0 0 185 186 187 14 182 6
00 188 ?189 190 191 5 178 +0 0 189 190 24 52 183 621 185 189 178 192 0 -.1434999
640375004 .000499999999999994 -.00858999977260868 0 1 0 .0016 .707106781186526 .
707106781186569 0 0 1 81 2 185 622 184 183 0 0 181 193 194 195 14 189 614 196 ?1
97 182 198 5 183 +0 0 197 182 24 52 192 635 193 197 183 199 0 --.0315 5e-4 .015
 0 1 0 .0016 .707106781186526 .707106781186569 0 0 1 81 2 193 636 184 192 0 0 18
5 200 201 202 14 197 628 203 ?204 189 205 5 192 +0 0 204 189 24 52 199 649 200 2
04 192 206 0 -.1925 .000499999999999994 -.016 0 1 0 .0016 .707106781186526 .7071
06781186569 0 0 1 81 2 200 650 184 199 0 0 193 207 208 209 14 204 642 210 ?151 1
97 211 5 199 +0 0 151 197 24 52 206 663 207 151 199 153 0 -.1925 .0015 .016 0 1
 0 .0026 .70710678118655 .707106781186546 0 0 1 81 2 207 664 184 206 0 0 200 212
 213 214 14 151 656 215 ?143 204 216 5 206 +0 0 143 204 24 52 153 677 212 143 20
6 20 0 -.0445 .000500000000000008 .015 0 1 0 .0016 .707106781186526 .70710678118
6569 0 0 1 81 2 212 678 184 153 0 0 207 155 217 218 80 255 2 184 219 220 8044 0
 0 0 0 3 5 0 0 0 FFFFTFFFTTFFFF3 2 81 2 155 692 184 20 0 0 212 18 221 222 84 255
 6 217 BAAAAB83 255 3 218 0 .001 .000999999999999931 81 2 18 706 184 6 0 0 155 0
 223 224 84 6 221 BAAAAB83 3 222 0 .001 .000999999999999945 84 6 223 BAAAAB83 3
 224 -.001 0 .001 79 255 17 220 SDL/TYSA_BLEND_ID81 1 215 948 145 151 225 0 210
 226 227 15 216 657 0 228 151 229 17 228 0 216 228 228 0 132 130 0 0 -15 229 658
 0 230 151 0 17 230 0 229 230 230 0 108 106 0 0 -17 108 0 231 108 108 0 230 106
 0 0 +15 231 516 0 108 16 232 15 232 510 0 105 16 233 17 105 0 232 105 105 0 234
 103 0 0 +15 233 504 0 102 16 235 17 102 0 233 102 102 0 154 100 0 0 +15 235 498
 0 99 16 30 17 99 0 235 99 99 0 236 97 0 0 +17 236 0 237 236 236 0 99 97 0 0 -15
 237 700 0 236 19 0 17 154 0 144 154 154 0 102 100 0 0 -17 234 0 152 234 234 0 1
05 103 0 0 -15 152 671 0 234 143 238 15 238 672 0 239 143 0 17 239 0 238 239 239
 0 134 133 0 0 -17 134 0 240 134 134 0 239 133 0 0 +15 240 570 0 134 190 241 14
 190 241 226 ?182 242 240 5 243 -0 0 182 242 24 15 241 244 0 244 190 0 17 244 0
 241 244 244 0 245 246 0 0 -17 245 0 247 245 245 0 244 246 0 0 +16 246 235 0 ?24
5 248 249 250 0 0 1 16 248 253 0 ?251 252 246 253 0 0 1 16 249 307 0 ?254 246 25
5 256 0 0 1 31 250 428 0 246 253 257 0 +.0445 0 .015 0 1 0 0 0 1 .0016 31 253 43
0 0 248 258 250 0 +.1925 0 -.016 0 1 0 0 0 1 .0016 31 257 426 0 259 250 260 0 +-
.1925 0 .016 0 1 0 0 0 1 .0016 16 259 289 0 ?261 87 252 257 0 0 1 31 260 424 0 2
52 257 262 0 -.1925 0 .016 0 1 0 0 0 1 .0016 16 252 274 0 ?263 259 248 260 0 0 1
 31 262 423 0 87 260 82 0 --.1925 0 -.016 0 1 0 0 0 1 .0016 16 87 368 0 ?264 84
 259 262 0 0 1 30 82 7 0 69 262 71 0 +.1965 .0015 -.02 0 0 -1 16 69 5 0 ?31 65 5
7 82 0 0 1 17 264 0 265 264 264 0 266 87 0 0 +15 265 374 0 264 168 0 17 266 0 26
7 266 266 0 264 87 0 0 -15 267 140 0 266 157 268 15 268 49 0 269 157 270 17 269
 0 268 56 42 22 86 84 0 0 -15 270 151 0 271 157 272 17 271 0 270 271 271 0 273 2
55 0 0 +15 272 163 0 261 157 247 17 261 0 272 261 261 0 274 259 0 0 +15 247 181
 0 245 157 0 17 274 0 139 274 274 0 261 259 0 0 -15 139 298 0 274 138 0 14 138 2
95 275 ?276 277 136 5 278 -0 0 276 277 24 81 1 275 950 145 138 279 0 226 280 281
 14 276 277 280 ?242 138 282 5 169 +0 0 242 138 24 14 277 313 283 ?138 284 285 5
 286 -0 0 138 284 24 51 278 406 0 138 243 169 0 +-.1925 0 .016 0 1 0 .0016 0 0 1
 51 243 409 0 190 287 278 0 +.0445 0 .015 0 1 0 .0016 0 0 1 51 169 403 0 276 278
 167 0 -.1925 0 .016 0 1 0 .0016 0 0 1 51 287 412 0 242 288 243 0 +.1925 0 -.016
 0 1 0 .0016 0 0 1 14 242 259 289 ?190 276 290 5 287 -0 0 190 276 24 51 288 415
 0 291 292 287 0 +-.0315 0 .015 0 1 0 .0016 0 0 1 14 291 353 293 ?284 168 294 5
 288 -0 0 284 168 24 51 292 418 0 284 286 288 0 +.1434999640375004 0 -.008589999
77260868 0 1 0 .0016 0 0 1 14 284 333 295 ?277 291 296 5 292 -0 0 277 291 24 51
 286 421 0 277 0 292 0 +-.01800001099982695 0 -.00850000000000028 0 1 0 .0016 0
 0 1 81 1 295 955 145 284 297 0 293 298 299 15 296 546 0 123 284 300 17 123 0 29
6 123 123 0 301 121 0 0 +15 300 336 0 273 284 0 17 273 0 300 273 273 0 271 255 0
 0 -16 255 327 0 ?271 249 302 303 0 0 1 16 302 347 0 ?304 255 0 258 0 0 1 31 303
 434 0 255 256 258 0 +.1434999640375004 0 -.00858999977260868 0 1 0 0 0 1 .0016
 31 256 436 0 249 0 303 0 +-.01800001099982695 0 -.00850000000000028 0 1 0 0 0 1
 .0016 31 258 432 0 302 303 253 0 +-.0315 0 .015 0 1 0 0 0 1 .0016 17 304 0 305
 304 304 0 306 302 0 0 +15 305 145 0 304 157 267 17 306 0 307 306 306 0 304 302
 0 0 -15 307 356 0 306 291 0 17 301 0 308 301 301 0 123 121 0 0 -15 308 616 0 30
1 189 0 80 1 145 309 310 9000 1 1 1 1 1 1 1 1 0 FFFFTFTFFFFFFF1 81 1 297 875 311
 284 0 295 312 313 314 81 1 293 954 145 291 312 0 289 295 315 81 1 298 956 145 1
68 316 0 295 0 317 82 255 1 299 -132972392 14 168 371 298 ?291 171 318 5 167 +0
 0 291 171 24 81 1 316 873 311 168 0 298 319 312 320 82 1 317 -172621672 80 1 31
1 0 321 8001 0 0 0 0 3 5 0 0 0 FFFFTFTFFFFFFF2 81 1 319 872 311 171 0 173 322 31
6 323 81 1 312 874 311 291 0 293 316 297 324 83 3 320 .2666666666666665 .2666666
666666665 .2666666666666665 83 3 324 .2666666666666665 .2666666666666665 .266666
6666666665 81 1 173 940 145 171 319 0 161 175 325 81 1 322 871 311 78 0 175 326
 319 327 83 3 323 .2666666666666665 .2666666666666665 .2666666666666665 81 1 175
 941 145 78 322 0 173 177 328 81 1 326 870 311 73 0 177 329 322 330 83 3 327 .26
66666666666665 .2666666666666665 .2666666666666665 81 1 177 942 145 73 326 0 175
 179 331 81 1 329 869 311 163 0 179 332 326 333 83 3 330 .2666666666666665 .2666
666666666665 .2666666666666665 81 1 179 943 145 163 329 0 177 188 334 81 1 332 8
68 311 157 0 161 160 329 335 83 3 333 .2666666666666665 .2666666666666665 .26666
66666666665 81 1 161 939 145 157 332 0 156 173 336 81 1 160 867 311 16 0 156 0 3
32 337 83 3 335 .2666666666666665 .2666666666666665 .2666666666666665 83 3 337 .
2666666666666665 .2666666666666665 .2666666666666665 82 1 336 -83623788 81 1 188
 944 145 182 338 0 179 196 339 82 1 334 1891696763 81 1 338 881 311 182 0 188 34
0 341 342 81 1 196 945 145 189 341 0 188 203 343 82 1 339 1013579928 81 1 341 88
2 311 189 0 196 338 344 345 81 1 203 946 145 197 344 0 196 210 346 82 1 343 1014
956184 81 1 344 883 311 197 0 203 341 347 348 81 1 210 947 145 204 347 0 203 215
 349 82 1 346 1016332440 81 1 347 884 311 204 0 210 344 225 350 82 1 349 1017708
696 81 1 225 885 311 151 0 215 347 351 352 83 3 350 .2666666666666665 .266666666
6666665 .2666666666666665 81 1 351 886 311 143 0 150 225 146 353 83 3 352 .26666
66666666665 .2666666666666665 .2666666666666665 81 1 150 937 145 143 351 0 147 1
56 354 81 1 146 887 311 141 0 142 351 355 356 83 3 353 .2666666666666665 .266666
6666666665 .2666666666666665 81 1 355 888 311 19 0 147 146 0 357 83 3 356 .26666
66666666665 .2666666666666665 .2666666666666665 81 1 147 936 145 19 355 0 142 15
0 358 83 3 357 .2666666666666665 .2666666666666665 .2666666666666665 82 1 358 10
23213720 82 1 354 1020461208 83 3 348 .2666666666666665 .2666666666666665 .26666
66666666665 83 3 345 .2666666666666665 .2666666666666665 .2666666666666665 81 1
 340 880 311 190 0 226 359 338 360 83 3 342 .2666666666666665 .2666666666666665
 .2666666666666665 81 1 226 949 145 190 340 0 215 275 361 81 1 359 879 311 242 0
 289 362 340 363 83 3 360 .2666666666666665 .2666666666666665 .2666666666666665
 81 1 289 953 145 242 359 0 283 293 364 81 1 362 878 311 276 0 280 279 359 365 8
3 3 363 .2666666666666665 .2666666666666665 .2666666666666665 81 1 280 951 145 2
76 362 0 275 283 366 81 1 279 877 311 138 0 275 313 362 367 83 3 365 .2666666666
666665 .2666666666666665 .2666666666666665 81 1 313 876 311 277 0 283 297 279 36
8 83 3 367 .2666666666666665 .2666666666666665 .2666666666666665 81 1 283 952 14
5 277 313 0 280 289 369 83 3 368 .2666666666666665 .2666666666666665 .2666666666
666665 82 1 369 -138870632 82 1 366 -159448936 82 1 364 -152829800 82 1 361 -146
341736 82 1 331 1891434619 82 1 328 1891172475 82 1 325 1890910331 79 15 321 SDL
/TYSA_COLOUR15 318 582 0 25 168 265 17 25 0 318 25 25 0 370 10 0 0 +17 370 0 149
 370 370 0 25 10 0 0 -15 149 699 0 370 19 237 82 1 315 -129040232 83 3 314 .2666
666666666665 .2666666666666665 .2666666666666665 79 14 310 SWEntUnchanged15 294
 552 0 126 291 307 17 126 0 294 126 126 0 371 124 0 0 +17 371 0 372 371 371 0 12
6 124 0 0 -15 372 630 0 371 197 0 15 290 558 0 129 242 373 17 129 0 290 129 129
 0 374 127 0 0 +15 373 262 0 375 242 0 17 375 0 373 375 375 0 251 248 0 0 -17 25
1 0 164 251 251 0 375 248 0 0 +15 164 175 0 251 157 376 15 376 170 0 377 157 378
 17 377 0 376 377 377 0 263 252 0 0 -15 378 157 0 254 157 305 17 254 0 378 254 2
54 0 379 249 0 0 +17 379 0 380 379 379 0 254 249 0 0 -15 380 316 0 379 277 0 17
 263 0 381 263 263 0 377 252 0 0 +15 381 280 0 263 276 0 17 374 0 382 374 374 0
 129 127 0 0 -15 382 644 0 374 204 0 15 285 492 0 96 277 380 17 96 0 285 96 96 0
 383 94 0 0 +17 383 0 384 383 383 0 96 94 0 0 -15 384 602 0 383 182 0 15 282 564
 0 132 276 381 17 132 0 282 132 132 0 228 130 0 0 +82 1 281 -165937000 17 56 0 2
68 50 269 45 53 57 0 0 -17 42 0 268 269 50 40 44 74 0 62 -17 86 0 180 70 58 40 2
69 84 0 0 +15 180 89 0 86 163 0 17 70 0 180 68 86 54 62 75 0 0 -17 58 0 180 86 6
8 22 35 80 0 269 +17 68 0 180 58 70 11 31 69 0 0 -17 35 0 55 33 53 11 58 80 0 68
 -15 55 83 0 53 171 0 17 33 0 55 52 35 28 27 34 0 0 -17 52 0 55 53 33 45 48 76 0
 56 +17 62 0 61 44 59 40 70 75 0 86 +17 50 0 268 42 56 43 46 51 0 0 -82 1 227 10
19084952 84 6 213 BAAAAB83 3 214 -.001 0 .001 15 211 643 0 385 204 382 17 385 0
 211 385 385 0 111 109 0 0 -17 111 0 386 111 111 0 385 109 0 0 +15 386 522 0 111
 16 231 84 6 208 BAAAAB83 3 209 0 .001 .000999999999999945 15 205 629 0 387 197
 372 17 387 0 205 387 387 0 114 112 0 0 -17 114 0 388 114 114 0 387 112 0 0 +15
 388 528 0 114 16 386 84 6 201 BAAAAB83 3 202 0 .001 .000999999999999935 15 198
 615 0 389 189 308 17 389 0 198 389 389 0 117 115 0 0 -17 117 0 166 117 117 0 38
9 115 0 0 +15 166 534 0 117 16 388 84 6 194 BAAAAB83 3 195 0 .001 .0009999999999
99945 15 191 601 0 390 182 384 17 390 0 191 390 390 0 120 118 0 0 -17 120 0 158
 120 120 0 390 118 0 0 +84 6 186 BAAAAB83 3 187 0 .001 .000999999999999935 82 1
 162 -79429480 82 1 148 1021837464 19 17 100 0 1 0 9 5 S0 74 4 CI16 index_map_of
fset0 0 1 dCCZ20 15 9 0 0 391 392 298 18 393 394 13 355 2 0 0 0 0 0 0 0 0 0 0 0
 81 2 391 124 395 1 0 392 0 0 0 396 81 2 392 128 397 1 391 393 0 0 0 398 81 1 39
3 740 399 1 392 394 0 0 400 81 2 394 771 401 1 393 13 0 0 0 402 81 2 13 775 403
 1 394 2 0 0 0 0 80 2 403 404 405 9000 0 0 0 0 3 5 0 0 0 FFTFFFFFFFFFFF9 1 79 16
 405 BODY_RECIPE_200180 2 401 406 407 9000 0 0 0 0 3 5 0 0 0 FFTFFFFFFFFFFF9 1 8
2 1 402 1 79 24 407 BODY_IN_LIGHTWEIGHT_PERM80 1 399 408 409 9000 1 1 1 1 1 1 1
 1 0 FFTFFFFFFFFFFF1 82 1 400 6451279 79 10 409 BODY_MATCH80 2 397 410 411 9000
 0 0 0 0 3 5 0 0 0 FFTFFFFFFFFFFF9 1 82 1 398 56 79 30 411 LAST_BODY_MODIFYING_F
EATURE_ID80 2 395 412 413 9000 0 0 0 0 3 5 0 0 0 FFTFFFFFFFFFFT9 1 82 1 396 151
 79 19 413 ENT_TIME_STAMP_200180 2 12 414 415 9000 0 0 0 0 3 5 0 0 0 FFTFFFFFFFF
FFF9 1 82 1 14 102 79 12 415 ATOM_ID_20011 0 
