**ABCDEFGHIJKLMNOPQRSTUVWXYZabcdefghijklmnopqrstuvwxyz**************************
**PARASOLID !"#$%&'()*+,-./:;<=>?@[\]^_`{|}~0123456789**************************
**PART1;
MC=AMD64;
MC_MODEL=Intel64 Family 6 Model 60 Stepping 3, GenuineIntel;
MC_ID=unknown;
OS=Windows_NT;
OS_RELEASE=unknown;
FRU=Parasolid Version 33.1, build 247,  8- 6-2021;
APPL=SOLIDWORKS 2022-2021255;
SITE=;
USER=unknown;
FORMAT=text;
GUISE=transmit;
KEY=FILESidepanel_Left.x_t;
DATE=Sun May  1 00:07:12 2022;
**PART2;
SCH=SCH_3301247_33103;
USFLD_SIZE=0;
**PART3;
**END_OF_HEADER*****************************************************************
T51 : TRANSMIT FILE created by modeller version 330124723 SCH_3301247_33103_1300
6230 0 12 35 CCCI7 lattice222 0 CCCI4 mesh1006 0 I8 polyline1008 0 CCCCCCCDI5 ow
ner1040 0 CCCCCCI13 boundary_mesh1006 0 I17 boundary_polyline1008 0 CCCA16 index
_map_offset0 0 1 dA9 index_map82 0 A17 node_id_index_map82 0 A20 schema_embeddin
g_map82 0 A5 child12 0 A14 lowest_node_id0 0 1 dA16 mesh_offset_data206 0 Z1 222
1 2 3 0 0 0 0 0 0 0 1e3 1e-8 0 4 0 1 0 1 1 5 6 7 8 0 0 9 10 11 0 0 0 0 0 0 0 81
 255 2 2 2165 12 1 13 0 0 0 0 14 70 11 CI9 list_type0 0 1 uI10 notransmit0 0 1 l
CCCDCCDI12 finger_index0 0 1 dI12 finger_block1012 0 CZ3 0 4 T1 0 0 9 20 1 15 15
 13 255 5 99 0 1 0 16 0 0 17 0 52 255 6 707 18 19 20 0 0 --.1925 0 .016 0 -1 0 .
002599999999999935 .70710678118655 .707106781186546 0 0 -1 31 255 7 586 0 10 21
 0 0 --.1925 .000999999999999939 .016 0 1 0 0 0 1 .0016 29 255 8 1002 0 11 22 0
 -.111800007159493 .0015 .00209299913484066 19 8 CCCCCCCA5 owner12 0 Z9 33 0 1 1
7 0 23 V0 16 255 10 583 0 ?24 0 25 7 0 0 1 18 255 11 1000 0 26 0 27 8 ?1 17 255
 26 0 28 29 30 11 31 32 0 33 -18 27 964 0 34 11 35 22 ?1 17 34 0 36 37 38 27 39
 40 0 41 -18 35 928 0 42 27 43 44 ?1 29 22 966 0 27 44 8 -.103565250234811 .0015
 .001945995958054965 29 44 930 0 35 45 22 -.0808249541055994 .0015 -.00242200016
4467125 29 45 910 0 43 46 44 -.0620000059785088 .0015 -.002357000220416665 18 43
 908 0 47 35 48 45 ?1 29 46 853 0 48 49 45 -.110650007159493 0 .0009429990343045
08 18 48 851 0 50 43 51 46 ?1 29 49 817 0 51 52 46 -.101915250234811 0 .00359599
595805497 18 51 815 0 53 48 54 49 ?1 29 52 781 0 54 55 49 -.079224953938621 0 -.
000821999997488696 18 54 779 0 56 51 57 52 ?1 29 55 761 0 57 58 52 -.06200000597
85088 0 -.00485700022041667 18 57 759 0 59 54 60 55 ?1 29 58 75 0 61 62 55 .1965
 0 .02 18 61 66 0 63 64 65 58 ?1 29 62 76 0 65 66 58 -.1965 0 .02 18 65 67 0 67
 61 68 62 ?1 29 66 77 0 68 69 62 -.1965 0 -.02 18 68 68 0 70 65 71 66 ?1 29 69 7
8 0 71 72 66 .1965 0 -.02 18 71 69 0 73 68 74 69 ?1 29 72 32 0 60 75 69 .1965 .0
015 .02 18 60 30 0 76 57 77 72 ?1 29 75 29 0 77 78 72 -.1965 .0015 .02 18 77 27
 0 79 60 80 75 ?1 29 78 26 0 80 81 75 -.1965 .0015 -.02 18 80 24 0 82 77 64 78 ?
1 29 81 23 0 64 83 78 .1965 .0015 -.02 18 64 21 0 84 80 61 81 ?1 29 83 1682 0 85
 86 81 -.0647000059785088 0 -.00485700022041667 18 85 1503 0 87 88 89 83 ?1 29 8
6 1683 0 89 90 83 -.0647000059785088 0 -.002357000220416665 18 89 1504 0 91 85 9
2 86 ?1 29 90 1684 0 92 93 86 -.0620000059785088 0 -.002357000220416665 18 92 15
06 0 94 89 0 90 ?1 29 93 1686 0 95 96 90 -.0647000059785088 .0015 -.004857000220
41667 18 95 1500 0 97 98 99 93 ?1 29 96 1687 0 99 100 93 -.0647000059785088 .001
5 -.002357000220416665 18 99 1502 0 101 95 88 96 ?1 29 100 1689 0 88 102 96 -.06
20000059785088 .0015 -.00485700022041667 18 88 1505 0 103 99 85 100 ?1 29 102 16
90 0 104 105 100 -.072774953938624 0 -.000821999997488704 18 104 1432 0 106 107
 108 102 ?1 29 105 1691 0 108 109 102 -.0711749535417229 0 -.002422000590110605
 18 108 1418 0 110 104 111 105 ?1 29 109 1692 0 111 112 105 -.0711749541055994 0
 -.003082000561365315 18 111 1420 0 113 108 114 109 ?1 29 112 1693 0 114 115 109
 -.0727749541055994 0 -.00468200056136533 18 114 1422 0 116 111 117 112 ?1 29 11
5 1694 0 117 118 112 -.0792249542148768 0 -.0046819999974887 18 117 1424 0 119 1
14 120 115 ?1 29 118 1695 0 120 121 115 -.0808249541055994 0 -.00308199982701464
 18 120 1426 0 122 117 98 118 ?1 29 121 1696 0 98 123 118 -.0808249541055994 0 -
.002422000164467125 18 98 1428 0 124 120 95 121 ?1 29 123 1698 0 125 126 121 -.0
72774953938624 .0015 -.000821999997488704 18 125 1419 0 127 128 129 123 ?1 29 12
6 1699 0 129 130 123 -.0711749535417229 .0015 -.002422000590110605 18 129 1429 0
 131 125 132 126 ?1 29 130 1700 0 132 133 126 -.0711749541055994 .0015 -.0030820
00561365315 18 132 1430 0 134 129 135 130 ?1 29 133 1701 0 135 136 130 -.0727749
541055994 .0015 -.00468200056136533 18 135 1431 0 137 132 138 133 ?1 29 136 1702
 0 138 139 133 -.0792249542148768 .0015 -.0046819999974887 18 138 1421 0 140 135
 141 136 ?1 29 139 1703 0 141 142 136 -.0808249541055994 .0015 -.003081999827014
64 18 141 1423 0 143 138 107 139 ?1 29 142 1705 0 107 144 139 -.079224953938621
 .0015 -.000821999997488704 18 107 1427 0 145 141 104 142 ?1 29 144 1706 0 146 1
47 142 -.090084765307219 0 .003595995958054965 18 146 1321 0 148 149 150 144 ?1
 29 147 1707 0 150 151 144 -.088434765307219 0 .001945995958054965 18 150 1307 0
 152 146 153 147 ?1 29 151 1708 0 153 154 147 -.088434765307219 0 -.002510004041
94504 18 153 1310 0 155 150 156 151 ?1 29 154 1709 0 156 157 151 -.0900847653072
19 0 -.004160004041945035 18 156 1312 0 158 153 159 154 ?1 29 157 1710 0 159 160
 154 -.101915250234811 0 -.004160004041945035 18 159 1314 0 161 156 162 157 ?1 2
9 160 1711 0 162 163 157 -.103565250234811 0 -.00251000404194504 18 162 1316 0 1
64 159 128 160 ?1 29 163 1712 0 128 165 160 -.103565250234811 0 .001945995958054
965 18 128 1318 0 37 162 125 163 ?1 29 165 1714 0 166 167 163 -.090084765307219
 .0015 .003595995958054965 18 166 1308 0 168 169 170 165 ?1 29 167 1715 0 170 17
1 165 -.088434765307219 .0015 .001945995958054965 18 170 1319 0 172 166 173 167
 ?1 29 171 1716 0 173 174 167 -.088434765307219 .0015 -.00251000404194504 18 173
 1320 0 175 170 176 171 ?1 29 174 1717 0 176 177 171 -.090084765307219 .0015 -.0
04160004041945035 18 176 1309 0 178 173 179 174 ?1 29 177 1718 0 179 180 174 -.1
01915250234811 .0015 -.004160004041945035 18 179 1311 0 181 176 182 177 ?1 29 18
0 1719 0 182 183 177 -.103565250234811 .0015 -.00251000404194504 18 182 1313 0 3
8 179 149 180 ?1 29 183 1721 0 149 184 180 -.101915250234811 .0015 .003595995958
054965 18 149 1317 0 185 182 146 183 ?1 29 184 1722 0 186 187 183 -.110650007376
1636 0 -.00153542856926573 18 186 1162 0 188 189 190 184 ?1 29 187 1723 0 190 19
1 184 -.1114618087481426 0 -.00263457435903245 18 190 1164 0 192 186 193 187 ?1
 29 191 1724 0 193 194 187 -.111995531740679 0 -.00279879676719644 18 193 1166 0
 195 190 196 191 ?1 29 194 1725 0 196 197 191 -.1128473068487466 0 -.00376672285
573665 18 196 1168 0 198 193 199 194 ?1 29 197 1726 0 199 200 194 -.113710627438
152 0 -.004157000698127715 18 199 1170 0 201 196 202 197 ?1 29 200 1727 0 202 20
3 197 -.123289387767396 0 -.0041569998607265 18 202 1172 0 204 199 205 200 ?1 29
 203 1728 0 205 206 200 -.12415270828947 0 -.00376672187220953 18 205 1174 0 207
 202 208 203 ?1 29 206 1729 0 208 209 203 -.125004483232545 0 -.0027987956299175
65 18 208 1176 0 210 205 211 206 ?1 29 209 1730 0 211 212 206 -.1255382061974324
 0 -.002634573128107055 18 211 1178 0 213 208 214 209 ?1 29 212 1731 0 214 215 2
09 -.1263500073761638 0 -.00153542719680356 18 214 1180 0 216 211 217 212 ?1 29
 215 1732 0 217 218 212 -.1263500071594928 0 .000943000513118679 18 217 1182 0 2
19 214 220 215 ?1 29 218 1733 0 220 221 215 -.1252000070587926 0 .00209300030630
528 18 220 1184 0 222 217 169 218 ?1 29 221 1734 0 169 223 218 -.111800007059262
8 0 .002092999134840645 18 169 1186 0 29 220 166 221 ?1 29 223 1736 0 74 224 221
 -.1106500073761636 .0015 -.00153542856926573 18 74 1159 0 225 71 226 223 ?1 29
 224 1737 0 226 227 223 -.1114618087481426 .0015 -.00263457435903245 18 226 1161
 0 228 74 229 224 ?1 29 227 1738 0 229 230 224 -.111995531740679 .0015 -.0027987
9676719644 18 229 1163 0 231 226 232 227 ?1 29 230 1739 0 232 233 227 -.11284730
68487466 .0015 -.00376672285573665 18 232 1165 0 234 229 235 230 ?1 29 233 1740
 0 235 236 230 -.113710627438152 .0015 -.004157000698127715 18 235 1167 0 237 23
2 238 233 ?1 29 236 1741 0 238 239 233 -.123289387767396 .0015 -.004156999860726
5 18 238 1169 0 240 235 241 236 ?1 29 239 1742 0 241 242 236 -.12415270828947 .0
015 -.00376672187220953 18 241 1171 0 243 238 244 239 ?1 29 242 1743 0 244 245 2
39 -.125004483232545 .0015 -.002798795629917565 18 244 1173 0 246 241 247 242 ?1
 29 245 1744 0 247 248 242 -.1255382061974324 .0015 -.002634573128107055 18 247
 1175 0 249 244 250 245 ?1 29 248 1745 0 250 251 245 -.1263500073761638 .0015 -.
00153542719680356 18 250 1177 0 252 247 253 248 ?1 29 251 1746 0 253 254 248 -.1
263500071594928 .0015 .000943000513118679 18 253 1179 0 255 250 256 251 ?1 29 25
4 1747 0 256 257 251 -.1252000070587926 .0015 .00209300030630528 18 256 1181 0 3
0 253 189 254 ?1 29 257 1749 0 189 0 254 -.110650007159493 .0015 .00094299903430
4508 18 189 1185 0 258 256 186 257 ?1 17 258 0 259 260 50 189 261 262 0 263 -15
 255 259 1190 0 50 264 0 17 260 0 259 188 258 74 265 266 0 267 -17 50 0 259 258
 188 48 268 269 0 261 +17 261 0 270 271 263 48 258 262 0 272 +16 262 1064 0 ?261
 273 274 275 0 0 1 17 263 0 270 261 33 189 276 277 0 265 -15 270 1242 0 271 278
 0 17 33 0 270 263 271 11 29 273 0 276 -17 276 0 279 31 265 11 263 277 0 0 +16 2
77 1113 0 ?276 32 266 280 0 0 1 17 265 0 279 276 267 189 260 266 0 0 +15 279 105
6 0 265 16 281 17 267 0 279 265 282 74 283 274 0 0 +16 266 1061 0 ?265 277 284 2
85 0 0 1 16 284 1156 0 ?286 266 287 288 0 0 1 30 255 285 1681 0 266 0 280 0 +-.1
106500072419316 .0015 967331872393712e-23 874226668850259e-22 0 1 31 280 1680 0
 277 285 289 0 +-.111800007159493 .0015 .000942999134840671 0 -1 0 0 0 -1 .00115
 30 289 1679 0 32 280 290 0 +182974852139526e-24 .0015 .002092989360978355 -1 0
 874227339856114e-22 16 32 1109 0 ?31 291 277 289 0 0 1 31 290 1678 0 291 289 29
2 0 +-.125200007159493 .0015 .00094300030630529 0 -1 0 0 0 -1 .00115 16 291 1105
 0 ?293 294 32 290 0 0 1 30 292 1677 0 294 290 295 0 +-.1263500072419316 .0015 1
104586473236692e-23 -874227471251075e-22 0 -1 16 294 1101 0 ?296 297 291 292 0 0
 1 31 295 1676 0 297 292 298 0 +-.1252000073761638 .0015 -.001535427297339705 0
 -1 0 0 0 -1 .00115000000000015 16 297 1097 0 ?299 300 294 295 0 0 1 30 298 1675
 0 300 295 301 0 +-.01159789339688346 .0015 -.03769314181668175 .95577898301271
 0 -.2940859323925405 16 300 1093 0 ?302 303 297 298 0 0 1 30 301 1674 0 303 298
 304 0 +-.0718369266031595 .0015 -.0632164842676459 .66062782926505 0 -.75071357
4674488 16 303 1089 0 ?305 306 300 301 0 0 1 31 304 1673 0 306 301 307 0 +-.1232
893876854826 .0015 -.0030069998607263 0 -1 0 0 0 -1 .001150000000000302 16 306 1
085 0 ?308 309 303 304 0 0 1 30 307 1672 0 309 304 310 0 +-363417148431532e-24 .
0015 -.00415701063901924 1 0 -874227130958874e-22 16 309 1081 0 ?311 312 306 307
 0 0 1 31 310 1671 0 312 307 313 0 +-.1137106273241426 .0015 -.00300700069812771
 0 -1 0 0 0 -1 .00115 16 312 1077 0 ?314 315 309 310 0 0 1 30 313 1670 0 315 310
 316 0 +-.0617293582606582 .0015 .0543218448453232 .660627960523549 0 .750713459
167009 16 315 1073 0 ?317 318 312 313 0 0 1 30 316 1669 0 318 313 319 0 +-.00889
940591953734 .0015 .02892307823441655 .955779034432228 0 .2940857652791065 16 31
8 1069 0 ?282 274 315 316 0 0 1 31 319 1668 0 274 316 320 0 +-.1118000073761638
 .0015 -.001535428468804335 0 -1 0 0 0 -1 .001150000000000254 16 274 1065 0 ?267
 262 318 319 0 0 1 30 320 1667 0 269 319 321 0 +-.1106500072419316 0 96733187239
3712e-23 874226668850259e-22 0 1 16 269 1117 0 ?50 322 323 320 0 0 1 31 321 1666
 0 322 320 324 0 +-.111800007159493 0 .000942999134840671 0 -1 0 0 0 -1 .00115 1
6 322 1120 0 ?271 325 269 321 0 0 1 30 324 1665 0 325 321 326 0 +182974852139526
e-24 0 .002092989360978355 -1 0 874227339856114e-22 16 325 1123 0 ?327 328 322 3
24 0 0 1 31 326 1664 0 328 324 329 0 +-.125200007159493 0 .00094300030630529 0 -
1 0 0 0 -1 .00115 16 328 1126 0 ?330 331 325 326 0 0 1 30 329 1663 0 331 326 332
 0 +-.1263500072419316 0 1104586473236692e-23 -874227471251075e-22 0 -1 16 331 1
129 0 ?333 334 328 329 0 0 1 31 332 1662 0 334 329 335 0 +-.1252000073761638 0 -
.001535427297339705 0 -1 0 0 0 -1 .00115000000000015 16 334 1132 0 ?336 337 331
 332 0 0 1 30 335 1661 0 337 332 338 0 +-.01159789339688346 0 -.0376931418166817
5 .95577898301271 0 -.2940859323925405 16 337 1135 0 ?339 340 334 335 0 0 1 30 3
38 1660 0 340 335 341 0 +-.0718369266031595 0 -.0632164842676459 .66062782926505
 0 -.750713574674488 16 340 1138 0 ?342 343 337 338 0 0 1 31 341 1659 0 343 338
 344 0 +-.1232893876854826 0 -.0030069998607263 0 -1 0 0 0 -1 .00115000000000030
2 16 343 1141 0 ?345 346 340 341 0 0 1 30 344 1658 0 346 341 347 0 +-36341714843
1532e-24 0 -.00415701063901924 1 0 -874227130958874e-22 16 346 1144 0 ?348 349 3
43 344 0 0 1 31 347 1657 0 349 344 350 0 +-.1137106273241426 0 -.003007000698127
71 0 -1 0 0 0 -1 .00115 16 349 1147 0 ?351 352 346 347 0 0 1 30 350 1656 0 352 3
47 353 0 +-.0617293582606582 0 .0543218448453232 .660627960523549 0 .75071345916
7009 16 352 1150 0 ?354 287 349 350 0 0 1 30 353 1655 0 287 350 288 0 +-.0088994
0591953734 0 .02892307823441655 .955779034432228 0 .2940857652791065 16 287 1153
 0 ?355 284 352 353 0 0 1 31 288 1654 0 284 353 356 0 +-.1118000073761638 0 -.00
1535428468804335 0 -1 0 0 0 -1 .001150000000000254 30 356 1653 0 357 288 358 0 +
-.1106500073761636 .0015 -.00153542856926573 0 -1 0 16 357 1068 0 ?188 359 360 3
56 0 0 1 30 358 1652 0 360 356 361 0 +-.1114618087481426 .0015 -.002634574359032
45 0 -1 0 16 360 1072 0 ?192 357 362 358 0 0 1 30 361 1651 0 362 358 363 0 +-.11
1995531740679 .0015 -.00279879676719644 0 -1 0 16 362 1076 0 ?195 360 364 361 0
 0 1 30 363 1650 0 364 361 365 0 +-.1128473068487466 .0015 -.00376672285573665 0
 -1 0 16 364 1080 0 ?198 362 366 363 0 0 1 30 365 1649 0 366 363 367 0 +-.113710
627438152 .0015 -.004157000698127715 0 -1 0 16 366 1084 0 ?201 364 368 365 0 0 1
 30 367 1648 0 368 365 369 0 +-.123289387767396 .0015 -.0041569998607265 0 -1 0
 16 368 1088 0 ?204 366 370 367 0 0 1 30 369 1647 0 370 367 371 0 +-.12415270828
947 .0015 -.00376672187220953 0 -1 0 16 370 1092 0 ?207 368 372 369 0 0 1 30 371
 1646 0 372 369 373 0 +-.125004483232545 .0015 -.002798795629917565 0 -1 0 16 37
2 1096 0 ?210 370 374 371 0 0 1 30 373 1645 0 374 371 375 0 +-.1255382061974324
 .0015 -.002634573128107055 0 -1 0 16 374 1100 0 ?213 372 376 373 0 0 1 30 375 1
644 0 376 373 377 0 +-.1263500073761638 .0015 -.00153542719680356 0 -1 0 16 376
 1104 0 ?216 374 378 375 0 0 1 30 377 1643 0 378 375 379 0 +-.1263500071594928 .
0015 .000943000513118679 0 -1 0 16 378 1108 0 ?219 376 380 377 0 0 1 30 379 1642
 0 380 377 381 0 +-.1252000070587926 .0015 .00209300030630528 0 -1 0 16 380 1112
 0 ?222 378 273 379 0 0 1 30 381 1641 0 273 379 275 0 +-.1118000070592628 .0015
 .002092999134840645 0 -1 0 16 273 1116 0 ?29 380 262 381 0 0 1 30 275 1640 0 26
2 381 382 0 +-.110650007159493 .0015 .000942999034304508 0 -1 0 30 382 1639 0 38
3 275 384 0 +0 .0015 .003595995958054965 1 0 0 16 383 1282 0 ?168 385 386 382 0
 0 1 31 384 1638 0 385 382 387 0 +-.101915250234811 .0015 .001945995958054965 0
 -1 0 0 0 -1 .00165 16 385 1278 0 ?388 40 383 384 0 0 1 30 387 1637 0 40 384 389
 0 +-.103565250234811 .0015 0 0 0 -1 16 40 1274 0 ?39 390 385 387 0 0 1 31 389 1
636 0 390 387 391 0 +-.101915250234811 .0015 -.00251000404194504 0 -1 0 0 0 -1 .
00165 16 390 1270 0 ?392 393 40 389 0 0 1 30 391 1635 0 393 389 394 0 +304994119
6784625e-34 .0015 -.00416000404194503 1 0 733158229182539e-31 16 393 1266 0 ?395
 396 390 391 0 0 1 31 394 1634 0 396 391 397 0 +-.090084765307219 .0015 -.002510
00404194504 0 -1 0 0 0 -1 .00165 16 396 1262 0 ?398 399 393 394 0 0 1 30 397 163
3 0 399 394 400 0 +-.088434765307219 .0015 0 0 0 -1 16 399 1288 0 ?175 401 396 3
97 0 0 1 31 400 1632 0 401 397 402 0 --.090084765307219 .0015 .00194599595805496
5 0 -1 0 0 0 -1 .00165 16 401 1285 0 ?172 403 399 400 0 0 1 30 402 1631 0 404 40
0 405 0 +0 0 .003595995958054965 1 0 0 16 404 1250 0 ?406 407 408 402 0 0 1 31 4
05 1630 0 407 402 409 0 +-.101915250234811 0 .001945995958054965 0 -1 0 0 0 -1 .
00165 16 407 1291 0 ?410 411 404 405 0 0 1 30 409 1629 0 411 405 412 0 +-.103565
250234811 0 0 0 0 -1 16 411 1294 0 ?413 414 407 409 0 0 1 31 412 1628 0 414 409
 415 0 +-.101915250234811 0 -.00251000404194504 0 -1 0 0 0 -1 .00165 16 414 1297
 0 ?416 417 411 412 0 0 1 30 415 1627 0 417 412 418 0 +3049941196784625e-34 0 -.
00416000404194503 1 0 733158229182539e-31 16 417 1300 0 ?419 420 414 415 0 0 1 3
1 418 1626 0 420 415 421 0 +-.090084765307219 0 -.00251000404194504 0 -1 0 0 0 -
1 .00165 16 420 1303 0 ?422 423 417 418 0 0 1 30 421 1625 0 423 418 424 0 +-.088
434765307219 0 0 0 0 -1 16 423 1258 0 ?425 386 420 421 0 0 1 31 424 1624 0 386 4
21 426 0 --.090084765307219 0 .001945995958054965 0 -1 0 0 0 -1 .00165 16 386 12
54 0 ?427 383 423 424 0 0 1 30 426 1623 0 323 424 428 0 +-.090084765307219 .0015
 .003595995958054965 0 -1 0 16 323 1257 0 ?429 269 430 426 0 0 1 30 428 1622 0 4
30 426 431 0 +-.088434765307219 .0015 .001945995958054965 0 -1 0 16 430 1261 0 ?
152 323 432 428 0 0 1 30 431 1621 0 432 428 433 0 +-.088434765307219 .0015 -.002
51000404194504 0 -1 0 16 432 1265 0 ?155 430 434 431 0 0 1 30 433 1620 0 434 431
 435 0 +-.090084765307219 .0015 -.004160004041945035 0 -1 0 16 434 1269 0 ?158 4
32 436 433 0 0 1 30 435 1619 0 436 433 437 0 +-.101915250234811 .0015 -.00416000
4041945035 0 -1 0 16 436 1273 0 ?161 434 438 435 0 0 1 30 437 1618 0 438 435 439
 0 +-.103565250234811 .0015 -.00251000404194504 0 -1 0 16 438 1277 0 ?164 436 44
0 437 0 0 1 30 439 1617 0 440 437 441 0 +-.103565250234811 .0015 .00194599595805
4965 0 -1 0 16 440 1281 0 ?37 438 403 439 0 0 1 30 441 1616 0 403 439 442 0 +-.1
01915250234811 .0015 .003595995958054965 0 -1 0 16 403 1253 0 ?443 440 401 441 0
 0 1 30 442 1615 0 444 441 445 0 +0 .0015 -.000821999997488704 1 0 0 16 444 1393
 0 ?127 446 447 442 0 0 1 31 445 1614 0 446 442 448 0 +-.079224953938621 .0015 -
.00242200016446711 0 -1 0 0 0 -1 .001600000166978415 16 446 1389 0 ?449 450 444
 445 0 0 1 30 448 1613 0 450 445 451 0 +-.0808249541055994 .0015 -16995032365991
4e-29 210269619748711e-28 0 -1 16 450 1385 0 ?452 453 446 448 0 0 1 31 451 1612
 0 453 448 454 0 +-.0792249542148768 .0015 -.0030820001067661 0 -1 0 0 0 -1 .001
599999890722595 16 453 1381 0 ?455 456 450 451 0 0 1 30 454 1611 0 456 451 457 0
 +-4093138366436705e-25 .0015 -.00468200692355061 1 0 -874227320307474e-22 16 45
6 1377 0 ?458 459 453 454 0 0 1 31 457 1610 0 459 454 460 0 --.0727749541055995
 .0015 -.0030820005613653 0 -1 0 0 0 -1 .00160000000000004 16 459 1402 0 ?137 46
1 456 457 0 0 1 30 460 1609 0 461 457 462 0 +-.0711749514724145 .0015 6080891417
98516e-22 -854358351103299e-21 0 -.999999999999635 16 461 1399 0 ?134 463 459 46
0 0 0 1 31 462 1608 0 463 460 464 0 --.0727749545025005 .0015 -.0024220009582663
25 0 -1 0 0 0 -1 .001600000960777665 16 463 1396 0 ?131 465 461 462 0 0 1 30 464
 1607 0 466 462 467 0 +0 0 -.000821999997488704 1 0 0 16 466 1361 0 ?468 469 470
 464 0 0 1 31 467 1606 0 469 464 471 0 +-.079224953938621 0 -.00242200016446711
 0 -1 0 0 0 -1 .001600000166978415 16 469 1405 0 ?472 473 466 467 0 0 1 30 471 1
605 0 473 467 474 0 +-.0808249541055994 0 -169950323659914e-29 210269619748711e-
28 0 -1 16 473 1408 0 ?475 476 469 471 0 0 1 31 474 1604 0 476 471 477 0 +-.0792
249542148768 0 -.0030820001067661 0 -1 0 0 0 -1 .001599999890722595 16 476 1411
 0 ?478 479 473 474 0 0 1 30 477 1603 0 479 474 480 0 +-4093138366436705e-25 0 -
.00468200692355061 1 0 -874227320307474e-22 16 479 1414 0 ?481 482 476 477 0 0 1
 31 480 1602 0 482 477 483 0 --.0727749541055995 0 -.0030820005613653 0 -1 0 0 0
 -1 .00160000000000004 16 482 1373 0 ?484 485 479 480 0 0 1 30 483 1601 0 485 48
0 486 0 +-.0711749514724145 0 608089141798516e-22 -854358351103299e-21 0 -.99999
9999999635 16 485 1369 0 ?487 447 482 483 0 0 1 31 486 1600 0 447 483 488 0 --.0
727749545025005 0 -.002422000958266325 0 -1 0 0 0 -1 .001600000960777665 16 447
 1365 0 ?489 444 485 486 0 0 1 30 488 1599 0 408 486 490 0 +-.072774953938624 .0
015 -.000821999997488704 0 -1 0 16 408 1368 0 ?491 404 492 488 0 0 1 30 490 1598
 0 492 488 493 0 +-.0711749535417229 .0015 -.002422000590110605 0 -1 0 16 492 13
72 0 ?110 408 494 490 0 0 1 30 493 1597 0 494 490 495 0 +-.0711749541055994 .001
5 -.003082000561365315 0 -1 0 16 494 1376 0 ?113 492 496 493 0 0 1 30 495 1596 0
 496 493 497 0 +-.0727749541055994 .0015 -.00468200056136533 0 -1 0 16 496 1380
 0 ?116 494 498 495 0 0 1 30 497 1595 0 498 495 499 0 +-.0792249542148768 .0015
 -.0046819999974887 0 -1 0 16 498 1384 0 ?119 496 500 497 0 0 1 30 499 1594 0 50
0 497 501 0 +-.0808249541055994 .0015 -.00308199982701464 0 -1 0 16 500 1388 0 ?
122 498 502 499 0 0 1 30 501 1593 0 502 499 503 0 +-.0808249541055994 .0015 -.00
2422000164467125 0 -1 0 16 502 1392 0 ?124 500 465 501 0 0 1 30 503 1592 0 465 5
01 504 0 +-.079224953938621 .0015 -.000821999997488704 0 -1 0 16 465 1364 0 ?505
 502 463 503 0 0 1 30 504 1591 0 506 503 507 0 +0 .0015 -.00485700022041667 1 0
 0 16 506 1472 0 ?508 509 510 504 0 0 1 31 507 1590 0 509 504 511 0 +-.062000005
9785088 .0015 -.003607000220416665 0 -1 0 0 0 -1 .00125 16 509 1484 0 ?512 513 5
06 507 0 0 1 30 511 1589 0 513 507 514 0 +0 .0015 -.002357000220416665 1 0 0 16
 513 1488 0 ?515 516 509 511 0 0 1 31 514 1588 0 516 511 517 0 +-.06470000597850
88 .0015 -.003607000220416665 0 -1 0 0 0 -1 .00125 16 516 1476 0 ?518 519 513 51
4 0 0 1 30 517 1587 0 520 514 521 0 +0 0 -.00485700022041667 1 0 0 16 520 1491 0
 ?59 522 0 517 0 0 1 31 521 1586 0 522 517 523 0 +-.0620000059785088 0 -.0036070
00220416665 0 -1 0 0 0 -1 .00125 16 522 1494 0 ?524 525 520 521 0 0 1 30 523 158
5 0 525 521 526 0 +0 0 -.002357000220416665 1 0 0 16 525 1480 0 ?527 510 522 523
 0 0 1 31 526 1584 0 510 523 528 0 +-.0647000059785088 0 -.003607000220416665 0
 -1 0 0 0 -1 .00125 16 510 1497 0 ?529 506 525 526 0 0 1 30 528 1583 0 470 526 5
30 0 +-.0647000059785088 .0015 -.00485700022041667 0 -1 0 16 470 1479 0 ?87 466
 531 528 0 0 1 30 530 1582 0 531 528 532 0 +-.0647000059785088 .0015 -.002357000
220416665 0 -1 0 16 531 1483 0 ?91 470 533 530 0 0 1 30 532 1581 0 533 530 534 0
 +-.0620000059785088 .0015 -.002357000220416665 0 -1 0 16 533 1487 0 ?94 531 519
 532 0 0 1 30 534 1580 0 519 532 535 0 +-.0620000059785088 .0015 -.0048570002204
1667 0 -1 0 16 519 1475 0 ?536 533 516 534 0 0 1 31 535 440 0 537 534 538 0 +-.0
1800001099982695 .0015 -.00850000000000028 0 1 0 0 0 1 .0016 16 537 313 0 ?539 5
40 541 535 0 0 1 31 538 438 0 541 535 542 0 +.1434999640375004 .0015 -.008589999
77260868 0 1 0 0 0 1 .0016 16 541 333 0 ?543 537 359 538 0 0 1 31 542 436 0 359
 538 544 0 +-.0315 .0015 .015 0 1 0 0 0 1 .0016 16 359 353 0 ?545 541 357 542 0
 0 1 31 544 434 0 546 542 547 0 +.1925 .0015 -.016 0 1 0 0 0 1 .0016 16 546 259
 0 ?548 549 540 544 0 0 1 31 547 432 0 540 544 550 0 +.0445 .0015 .015 0 1 0 0 0
 1 .0016 16 540 241 0 ?551 546 537 547 0 0 1 31 550 430 0 552 547 553 0 +-.1925
 .0015 .016 0 1 0 0 0 1 .0016 16 552 295 0 ?554 555 549 550 0 0 1 31 553 428 0 5
49 550 556 0 -.1925 .0015 .016 0 1 0 0 0 1 .0016 16 549 274 0 ?557 552 546 553 0
 0 1 31 556 425 0 555 553 558 0 --.1925 .0015 -.016 0 1 0 0 0 1 .0016 16 555 368
 0 ?559 560 552 556 0 0 1 30 558 7 0 561 556 562 0 +.1965 .0015 -.02 0 0 -1 16 5
61 5 0 ?563 564 565 558 0 0 1 30 562 11 0 564 558 566 0 +-.1965 .0015 -.02 -1 0
 0 16 564 9 0 ?82 567 561 562 0 0 1 30 566 15 0 567 562 568 0 +-.1965 .0015 -.02
 0 0 1 16 567 13 0 ?79 569 564 566 0 0 1 30 568 19 0 569 566 570 0 +-.1965 .0015
 .02 1 0 -882810929250284e-32 16 569 17 0 ?76 571 567 568 0 0 1 30 570 74 0 560
 568 572 0 +.1965 0 -.02 0 0 -1 16 560 62 0 ?573 574 555 570 0 0 1 30 572 73 0 5
74 570 575 0 +-.1965 0 -.02 -1 0 0 16 574 58 0 ?70 576 560 572 0 0 1 30 575 72 0
 576 572 577 0 +-.1965 0 -.02 0 0 1 16 576 54 0 ?67 565 574 575 0 0 1 30 577 71
 0 565 575 578 0 +-.1965 0 .02 1 0 -882810929250284e-32 16 565 50 0 ?63 561 576
 577 0 0 1 30 578 95 0 571 577 579 0 +.1965 .0015 .02 0 -1 0 16 571 79 0 ?580 58
1 569 578 0 0 1 30 579 96 0 581 578 582 0 +-.1965 .0015 .02 0 -1 0 16 581 80 0 ?
583 584 571 579 0 0 1 30 582 97 0 584 579 585 0 +-.1965 .0015 -.02 0 -1 0 16 584
 81 0 ?586 587 581 582 0 0 1 30 585 98 0 587 582 588 0 +.1965 .0015 -.02 0 -1 0
 16 587 82 0 ?589 590 584 585 0 0 1 31 588 496 0 590 585 591 0 +-.1925 0 .016 0
 1 0 0 0 1 .002599999999999935 16 590 493 0 ?592 593 587 588 0 0 1 31 591 502 0
 593 588 594 0 +-.1925 0 -.016 0 1 0 0 0 1 .002599999999999935 16 593 499 0 ?595
 596 590 591 0 0 1 31 594 508 0 596 591 597 0 +-.0315 0 .015 0 1 0 0 0 1 .002600
000000000045 16 596 505 0 ?598 599 593 594 0 0 1 31 597 514 0 599 594 600 0 +-.0
1800001099982695 0 -.00850000000000028 0 1 0 0 0 1 .002599999999999935 16 599 51
1 0 ?601 602 596 597 0 0 1 31 600 520 0 602 597 603 0 +.0445 0 .015 0 1 0 0 0 1
 .002600000000000045 16 602 517 0 ?604 605 599 600 0 0 1 31 603 526 0 605 600 60
6 0 +.1434999640375004 0 -.00858999977260868 0 1 0 0 0 1 .002599999999999935 16
 605 523 0 ?607 608 602 603 0 0 1 31 606 532 0 608 603 609 0 +.1925 0 .016 0 1 0
 0 0 1 .002599999999999935 16 608 529 0 ?610 611 605 606 0 0 1 31 609 538 0 611
 606 612 0 +.1925 0 -.016 0 1 0 0 0 1 .002599999999999935 16 611 535 0 ?613 614
 608 609 0 0 1 31 612 544 0 614 609 615 0 -.1925 .000999999999999939 -.016 0 1 0
 0 0 1 .0016 16 614 541 0 ?616 617 611 612 0 0 1 31 615 550 0 617 612 618 0 -.19
25 .000999999999999951 .016 0 1 0 0 0 1 .0016 16 617 547 0 ?619 620 614 615 0 0
 1 31 618 556 0 620 615 621 0 -.1434999640375004 .000999999999999939 -.008589999
77260868 0 1 0 0 0 1 .0016 16 620 553 0 ?622 623 617 618 0 0 1 31 621 562 0 623
 618 624 0 -.0445 .000999999999999981 .015 0 1 0 0 0 1 .0016 16 623 559 0 ?625 6
26 620 621 0 0 1 31 624 568 0 626 621 627 0 --.01800001099982695 .00099999999999
9928 -.00850000000000028 0 1 0 0 0 1 .0016 16 626 565 0 ?628 629 623 624 0 0 1 3
1 627 574 0 629 624 21 0 --.0315 .000999999999999984 .015 0 1 0 0 0 1 .0016 16 6
29 571 0 ?630 25 626 627 0 0 1 31 21 580 0 25 627 7 0 --.1925 .00099999999999995
1 -.016 0 1 0 0 0 1 .0016 16 25 577 0 ?631 10 629 21 0 0 1 17 631 0 632 631 631
 0 633 25 0 0 +15 632 578 0 631 634 635 17 633 0 636 633 633 0 631 25 0 0 -15 63
6 688 0 633 637 0 14 255 637 686 638 ?19 639 640 5 20 +0 0 19 639 23 81 1 638 21
66 641 637 642 0 0 643 644 14 19 700 643 ?645 637 646 5 6 +0 0 645 637 23 14 639
 672 647 ?637 648 649 5 650 +0 0 637 648 23 15 640 687 0 651 637 636 52 20 693 6
52 637 650 6 0 --.1925 .00099999999999995 -.016 0 -1 0 .0016 .707106781186546 .7
0710678118655 0 0 -1 13 23 34 0 0 0 0 0 0 9 16 14 16 998 653 ?654 0 279 5 655 +0
 0 654 0 23 81 1 653 2169 641 16 656 0 647 657 658 14 654 846 657 ?659 16 660 5
 661 -0 0 659 16 23 50 255 655 3 0 16 662 661 0 +0 .0015 0 0 1 0 0 0 1 51 255 66
2 401 0 634 663 655 0 --.1925 0 -.016 0 1 0 .0016 0 0 1 50 661 70 0 654 655 664
 0 +0 0 0 0 1 0 0 0 1 50 664 91 0 665 661 666 0 +-.1965 .0015 .02 -8828109292502
84e-32 0 -1 -1 0 882810929250284e-32 14 665 84 667 ?634 668 669 5 664 -0 0 634 6
68 23 50 666 92 0 668 664 670 0 +-.1965 .0015 -.02 1 0 0 0 0 -1 14 668 86 671 ?6
65 672 673 5 666 -0 0 665 672 23 50 670 93 0 672 666 674 0 +-.1965 .0015 -.02 0
 0 1 1 0 0 14 672 88 675 ?668 659 676 5 670 -0 0 668 659 23 50 674 94 0 659 670
 677 0 +.1965 .0015 -.02 -1 0 0 0 0 1 14 659 90 678 ?672 654 679 5 674 -0 0 672
 654 23 52 677 609 680 681 674 682 0 -.1925 0 -.016 0 -1 0 .002599999999999935 .
70710678118655 .707106781186546 0 0 -1 81 2 680 610 683 677 0 0 0 684 685 686 14
 681 602 687 ?688 689 690 5 677 +0 0 688 689 23 52 682 623 684 688 677 691 0 -.1
925 .00099999999999995 .016 0 -1 0 .0016 .707106781186546 .70710678118655 0 0 -1
 81 2 684 624 683 682 0 0 680 692 693 694 14 688 616 695 ?696 681 697 5 682 +0 0
 696 681 23 52 691 637 692 696 682 698 0 -.1434999640375004 0 -.0085899997726086
8 0 -1 0 .002599999999999935 .70710678118655 .707106781186546 0 0 -1 81 2 692 63
8 683 691 0 0 684 699 700 701 14 696 630 702 ?703 688 704 5 691 +0 0 703 688 23
 52 698 651 699 703 691 705 0 -.0445 0 .015 0 -1 0 .002600000000000045 .70710678
1186569 .707106781186526 0 0 -1 81 2 699 652 683 698 0 0 692 706 707 708 14 703
 644 709 ?648 696 710 5 698 +0 0 648 696 23 52 705 665 706 648 698 650 0 --.0180
0001099982695 0 -.00850000000000028 0 -1 0 .002599999999999935 .707106781186549
 .707106781186546 0 0 -1 81 2 706 666 683 705 0 0 699 711 712 713 14 648 658 714
 ?639 703 715 5 705 +0 0 639 703 23 52 650 679 711 639 705 20 0 --.0315 0 .015 0
 -1 0 .002600000000000045 .707106781186569 .707106781186526 0 0 -1 81 2 711 680
 683 650 0 0 706 652 716 717 80 255 2 683 718 719 8044 0 0 0 0 3 5 0 0 0 FFFFTFF
FTTFFFF3 2 81 2 652 694 683 20 0 0 711 18 720 721 84 255 6 716 BAAAAB83 255 3 71
7 -.000999999999999985 0 .000999999999999984 81 2 18 708 683 6 0 0 652 0 722 723
 84 6 720 BAAAAB83 3 721 0 .00099999999999995 .000999999999999945 84 6 722 BAAAA
B83 3 723 -.00099999999999994 0 .000999999999999939 79 255 17 719 SDL/TYSA_BLEND
_ID81 1 714 2179 641 648 724 0 709 725 726 15 715 659 0 727 648 728 17 727 0 715
 727 727 0 628 626 0 0 -15 728 660 0 729 648 0 17 729 0 728 729 729 0 601 599 0
 0 -17 601 0 730 601 601 0 729 599 0 0 +15 730 512 0 601 654 731 15 731 506 0 59
8 654 732 17 598 0 731 598 598 0 733 596 0 0 +15 732 500 0 595 654 734 17 595 0
 732 595 595 0 651 593 0 0 +15 734 494 0 592 654 735 17 592 0 734 592 592 0 736
 590 0 0 +15 735 49 0 737 654 738 17 737 0 735 739 73 61 573 560 0 0 -15 738 844
 0 406 654 0 17 406 0 738 427 740 146 53 404 0 0 +17 427 0 738 425 406 150 148 3
86 0 0 +17 740 0 738 406 741 51 410 407 0 0 -17 53 0 742 185 429 51 406 404 0 44
3 -15 742 1325 0 53 743 0 17 185 0 742 168 53 149 443 403 0 744 -17 429 0 742 53
 168 146 745 323 0 406 +17 443 0 746 410 744 51 185 403 0 740 +15 746 1353 0 410
 747 0 17 410 0 746 41 443 128 740 407 0 741 +17 744 0 746 443 41 149 388 385 0
 748 -17 41 0 746 744 410 27 37 440 0 388 -17 388 0 749 39 748 27 744 385 0 0 +1
7 748 0 749 388 750 149 168 383 0 0 -15 749 965 0 750 16 0 17 750 0 749 748 751
 166 172 401 0 0 -17 168 0 742 429 185 166 748 383 0 745 +17 745 0 752 172 148 1
66 429 323 0 750 -15 752 1329 0 148 753 0 17 172 0 752 152 745 170 750 401 0 754
 +17 148 0 752 745 152 146 427 386 0 429 -17 152 0 752 148 172 150 754 430 0 755
 +17 754 0 756 175 755 170 152 430 0 751 -17 755 0 756 754 155 150 425 423 0 427
 -15 756 1333 0 755 757 0 17 155 0 756 755 175 153 758 432 0 422 +17 425 0 738 7
59 427 153 755 423 0 0 +17 759 0 738 760 425 156 422 420 0 0 -17 760 0 738 761 7
59 159 419 417 0 0 -17 422 0 762 758 158 153 759 420 0 425 +15 762 1337 0 422 76
3 0 17 758 0 762 764 422 173 155 432 0 398 -17 158 0 762 422 764 156 178 434 0 4
19 +17 764 0 762 158 758 176 398 396 0 395 -17 178 0 765 766 419 176 158 434 0 7
64 -17 419 0 765 178 161 156 760 417 0 759 +15 765 1341 0 419 767 0 17 161 0 765
 419 766 159 181 436 0 416 +17 766 0 765 161 178 179 395 393 0 392 -17 181 0 768
 769 416 179 161 436 0 766 -17 416 0 768 181 164 159 761 414 0 760 +15 768 1345
 0 416 770 0 17 164 0 768 416 769 162 38 438 0 413 +17 761 0 738 741 760 162 416
 414 0 0 -17 741 0 738 740 761 128 413 411 0 0 -17 413 0 36 38 37 162 741 411 0
 761 +15 36 1349 0 413 771 0 17 38 0 36 34 413 182 164 438 0 769 -17 37 0 36 413
 34 128 41 440 0 410 +17 769 0 768 164 181 182 392 390 0 39 -17 392 0 749 395 39
 179 769 390 0 0 +17 39 0 749 392 388 182 34 40 0 0 +17 395 0 749 398 392 176 76
6 393 0 0 +17 398 0 749 751 395 173 764 396 0 0 +17 751 0 749 750 398 170 175 39
9 0 0 -17 175 0 756 155 754 173 751 399 0 758 +14 771 1346 725 ?747 770 36 5 772
 -0 0 747 770 23 81 1 725 2180 641 771 773 0 714 774 775 14 747 1350 774 ?264 77
1 746 5 776 -0 0 264 771 23 14 770 1342 777 ?771 767 768 5 778 -0 0 771 767 23 5
0 772 1556 0 771 778 776 0 +-.103565250234811 .0015 0 -1 0 0 0 0 1 51 778 1557 0
 770 779 772 0 +-.101915250234811 .0015 -.00251000404194504 0 -1 0 .00165 0 0 -1
 51 776 1555 0 747 772 780 0 +-.101915250234811 .0015 .001945995958054965 0 -1 0
 .00165 0 0 -1 50 780 1554 0 743 776 781 0 +0 .0015 .003595995958054965 0 0 -1 -
1 0 0 14 743 1322 782 ?753 783 742 5 780 +0 0 753 783 23 51 781 1551 0 784 780 7
85 0 --.0727749545025005 .0015 -.002422000958266325 0 -1 0 .001600000960777665 0
 0 -1 14 784 1437 786 ?787 788 789 5 781 +0 0 787 788 23 50 785 1550 0 787 781 7
90 0 +-.0711749514724145 .0015 608089141798516e-22 -.999999999999635 0 854358351
103298e-21 854358351103299e-21 0 .999999999999635 14 787 1441 791 ?792 784 793 5
 785 +0 0 792 784 23 51 790 1549 0 792 785 794 0 --.0727749541055995 .0015 -.003
0820005613653 0 -1 0 .00160000000000004 0 0 -1 14 792 1445 795 ?796 787 797 5 79
0 +0 0 796 787 23 50 794 1548 0 796 790 798 0 +-4093138366436705e-25 .0015 -.004
68200692355061 -874227320307474e-22 0 -1 -1 0 874227320307474e-22 14 796 1449 79
9 ?800 792 801 5 794 -0 0 800 792 23 51 798 1547 0 800 794 802 0 +-.079224954214
8768 .0015 -.0030820001067661 0 -1 0 .001599999890722595 0 0 -1 14 800 1453 803
 ?804 796 805 5 798 -0 0 804 796 23 50 802 1546 0 804 798 806 0 +-.0808249541055
994 .0015 -169950323659914e-29 -1 0 -210269619748711e-28 -210269619748711e-28 0
 1 14 804 1457 807 ?783 800 808 5 802 -0 0 783 800 23 51 806 1545 0 783 802 809
 0 +-.079224953938621 .0015 -.00242200016446711 0 -1 0 .001600000166978415 0 0 -
1 14 783 1461 810 ?743 804 811 5 806 -0 0 743 804 23 50 809 1544 0 788 806 812 0
 +0 .0015 -.000821999997488704 0 0 -1 -1 0 0 14 788 1433 813 ?784 814 815 5 809
 +0 0 784 814 23 51 812 1541 0 816 809 817 0 +-.0647000059785088 .0015 -.0036070
00220416665 0 -1 0 .00125 0 0 -1 14 816 1512 818 ?819 645 820 5 812 -0 0 819 645
 23 50 817 1540 0 819 812 821 0 +0 .0015 -.002357000220416665 0 0 -1 -1 0 0 14 8
19 1516 822 ?814 816 823 5 817 +0 0 814 816 23 51 821 1539 0 814 817 824 0 +-.06
20000059785088 .0015 -.003607000220416665 0 -1 0 .00125 0 0 -1 14 814 1520 825 ?
788 819 826 5 821 -0 0 788 819 23 50 824 1538 0 645 821 827 0 +0 .0015 -.0048570
0022041667 0 0 -1 -1 0 0 14 645 1508 828 ?816 19 829 5 824 -0 0 816 19 23 51 827
 424 0 830 824 831 0 +-.01800001099982695 0 -.00850000000000028 0 1 0 .0016 0 0
 1 14 830 316 832 ?833 834 835 5 827 -0 0 833 834 23 51 831 421 0 834 827 836 0
 +.1434999640375004 0 -.00858999977260868 0 1 0 .0016 0 0 1 14 834 336 837 ?830
 838 839 5 831 -0 0 830 838 23 51 836 418 0 838 831 840 0 +-.0315 0 .015 0 1 0 .
0016 0 0 1 14 838 356 841 ?834 634 842 5 836 -0 0 834 634 23 51 840 415 0 843 83
6 844 0 +.1925 0 -.016 0 1 0 .0016 0 0 1 14 843 262 845 ?689 846 847 5 840 -0 0
 689 846 23 51 844 412 0 689 840 848 0 +.0445 0 .015 0 1 0 .0016 0 0 1 14 689 24
4 849 ?681 843 850 5 844 -0 0 681 843 23 51 848 409 0 833 844 663 0 +-.1925 0 .0
16 0 1 0 .0016 0 0 1 14 833 298 851 ?846 830 852 5 848 -0 0 846 830 23 51 663 40
6 0 846 848 662 0 -.1925 0 .016 0 1 0 .0016 0 0 1 14 846 280 853 ?843 833 854 5
 663 +0 0 843 833 23 81 1 853 2202 641 846 855 0 851 856 857 15 854 548 0 619 84
6 858 17 619 0 854 619 619 0 859 617 0 0 +15 858 284 0 860 846 0 17 860 0 858 86
0 860 0 557 549 0 0 -17 557 0 861 557 557 0 860 549 0 0 +15 861 220 0 557 16 862
 15 862 190 0 559 16 863 17 559 0 862 559 559 0 864 555 0 0 +15 863 4 0 563 16 8
65 17 563 0 863 82 76 64 866 561 0 867 +15 865 197 0 868 16 869 17 868 0 865 868
 868 0 545 359 0 0 -15 869 203 0 870 16 871 17 870 0 869 870 870 0 543 541 0 0 -
15 871 209 0 872 16 873 17 872 0 871 872 872 0 539 537 0 0 -15 873 215 0 874 16
 875 17 874 0 873 874 874 0 554 552 0 0 -15 875 227 0 876 16 877 17 876 0 875 87
6 876 0 548 546 0 0 -15 877 233 0 878 16 879 17 878 0 877 878 878 0 551 540 0 0
 -15 879 929 0 880 16 749 17 880 0 879 881 882 125 131 463 0 0 -17 881 0 879 449
 880 107 127 444 0 0 -17 882 0 879 880 883 129 134 461 0 0 -17 131 0 789 110 884
 129 880 463 0 885 +15 789 1440 0 106 784 0 17 110 0 789 106 131 108 885 492 0 8
86 +17 884 0 789 131 106 125 491 408 0 880 -17 885 0 793 134 886 129 110 492 0 8
82 -15 793 1444 0 886 787 0 17 134 0 793 113 885 132 882 461 0 887 +17 886 0 793
 885 113 108 487 485 0 489 -17 113 0 793 886 134 111 887 494 0 888 +17 487 0 889
 484 489 111 886 485 0 0 +17 489 0 889 487 468 108 106 447 0 0 +15 889 808 0 468
 654 890 17 468 0 889 489 891 104 56 466 0 0 +17 106 0 789 884 110 104 489 447 0
 491 -17 491 0 815 56 127 104 884 408 0 468 +15 815 1436 0 56 788 0 17 56 0 815
 145 491 54 468 466 0 505 -17 127 0 815 491 145 125 881 444 0 884 +17 145 0 815
 127 56 107 505 465 0 892 -17 505 0 811 472 892 54 145 465 0 891 +17 892 0 811 5
05 893 107 449 446 0 881 -15 811 1464 0 472 783 0 17 893 0 811 892 472 35 124 50
2 0 449 -17 449 0 879 452 881 35 892 446 0 0 +17 452 0 879 455 449 141 42 450 0
 0 +17 455 0 879 458 452 138 894 453 0 0 +17 42 0 808 124 143 35 452 450 0 893 -
15 808 1460 0 475 804 0 17 124 0 808 475 42 98 893 502 0 472 +17 143 0 808 42 47
5 141 122 500 0 894 -17 475 0 808 143 124 120 895 473 0 896 +17 122 0 805 478 89
4 120 143 500 0 475 +17 894 0 805 122 140 141 455 453 0 452 -15 805 1456 0 478 8
00 0 17 140 0 805 894 478 138 119 498 0 897 -17 478 0 805 140 122 117 896 476 0
 898 +17 119 0 801 481 897 117 140 498 0 478 +17 897 0 801 119 899 138 458 456 0
 455 -15 801 1452 0 481 796 0 17 899 0 801 897 481 135 116 496 0 458 -17 458 0 8
79 883 455 135 897 456 0 0 +17 883 0 879 882 458 132 137 459 0 0 -17 137 0 797 1
16 887 135 883 459 0 899 +15 797 1448 0 888 792 0 17 116 0 797 888 137 114 899 4
96 0 481 +17 887 0 797 137 888 132 113 494 0 883 -17 888 0 797 887 116 111 484 4
82 0 487 -17 484 0 889 898 487 114 888 482 0 0 +17 898 0 889 896 484 117 481 479
 0 0 -17 896 0 889 895 898 120 478 476 0 0 -17 481 0 801 899 119 114 898 479 0 4
84 +17 895 0 889 891 896 98 475 473 0 0 -17 891 0 889 468 895 54 472 469 0 0 -17
 472 0 811 893 505 98 891 469 0 895 +15 890 757 0 900 654 901 17 900 0 890 902 5
27 57 524 522 0 0 -15 901 536 0 613 654 903 17 613 0 901 613 613 0 904 611 0 0 +
15 903 530 0 610 654 905 17 610 0 903 610 610 0 906 608 0 0 +15 905 524 0 607 65
4 907 17 607 0 905 607 607 0 908 605 0 0 +15 907 518 0 604 654 730 17 604 0 907
 604 604 0 909 602 0 0 +17 909 0 910 909 909 0 604 602 0 0 -15 910 646 0 909 703
 0 17 908 0 911 908 908 0 607 605 0 0 -15 911 632 0 908 696 0 17 906 0 697 906 9
06 0 610 608 0 0 -15 697 617 0 906 688 912 15 912 618 0 859 688 0 17 859 0 912 8
59 859 0 619 617 0 0 -17 904 0 913 904 904 0 613 611 0 0 -15 913 604 0 904 681 0
 17 902 0 890 914 900 85 59 520 0 0 -17 527 0 890 900 914 92 915 525 0 0 +17 524
 0 826 47 536 92 900 522 0 527 +15 826 1523 0 524 814 0 17 47 0 826 916 524 43 9
4 533 0 515 -17 536 0 826 524 916 57 103 519 0 900 +17 916 0 826 536 47 88 512 5
09 0 508 -17 103 0 829 917 59 88 536 519 0 916 -15 829 1511 0 59 645 0 17 917 0
 829 87 103 95 508 506 0 518 -17 59 0 829 103 87 57 902 520 0 536 +17 87 0 829 5
9 917 85 97 470 0 529 +17 97 0 820 918 529 95 87 470 0 917 -17 529 0 820 97 91 8
5 914 510 0 902 +15 820 1515 0 529 816 0 17 91 0 820 529 918 89 101 531 0 915 +1
7 914 0 890 527 902 89 529 510 0 0 -17 918 0 820 91 97 99 518 516 0 919 -17 101
 0 823 515 915 99 91 531 0 918 -17 915 0 823 101 94 89 527 525 0 914 -15 823 151
9 0 915 819 0 17 94 0 823 915 515 92 47 533 0 524 +17 515 0 823 94 101 43 919 51
3 0 512 +17 919 0 281 518 512 99 515 513 0 0 -17 512 0 281 919 508 43 916 509 0
 0 +15 281 924 0 508 16 861 17 508 0 281 512 518 88 917 506 0 0 +17 518 0 281 50
8 919 95 918 516 0 0 +17 551 0 920 551 551 0 878 540 0 0 +15 920 248 0 551 689 0
 17 548 0 921 548 548 0 876 546 0 0 +15 921 266 0 548 843 0 17 554 0 922 554 554
 0 874 552 0 0 +15 922 302 0 554 833 0 17 539 0 923 539 539 0 872 537 0 0 +15 92
3 320 0 539 830 0 17 543 0 924 543 543 0 870 541 0 0 +15 924 340 0 543 834 0 17
 545 0 925 545 545 0 868 359 0 0 +15 925 360 0 545 838 0 17 82 0 863 79 563 80 8
4 564 0 926 +17 76 0 863 563 79 60 927 569 0 928 +17 866 0 679 580 867 60 563 56
1 0 0 -17 867 0 679 866 573 64 589 587 0 0 -15 679 89 0 573 659 0 17 573 0 679 8
67 580 71 737 560 0 0 +17 589 0 676 70 84 71 867 587 0 573 +15 676 87 0 70 672 0
 17 70 0 676 926 589 68 73 574 0 586 +17 84 0 676 589 926 64 82 564 0 563 -17 92
6 0 676 84 70 80 586 584 0 929 -17 586 0 673 67 929 68 926 584 0 930 +17 929 0 6
73 586 931 80 79 567 0 0 -15 673 85 0 67 668 0 17 931 0 673 929 67 77 583 581 0
 927 -17 79 0 863 76 82 77 929 567 0 931 +17 67 0 673 931 586 65 930 576 0 583 +
17 583 0 669 63 927 65 931 581 0 739 +17 927 0 669 583 928 77 76 569 0 0 -15 669
 83 0 63 665 0 17 928 0 669 927 63 60 580 571 0 866 -17 63 0 669 928 583 61 739
 565 0 580 +17 580 0 679 573 866 61 928 571 0 737 +17 739 0 735 930 737 65 63 56
5 0 0 -17 930 0 735 73 739 68 67 576 0 0 -17 73 0 735 737 930 71 70 574 0 589 -1
7 864 0 635 864 864 0 559 555 0 0 -15 635 378 0 864 634 0 14 634 374 856 ?838 66
5 632 5 662 +0 0 838 665 23 81 1 856 2203 641 634 932 0 853 933 934 80 1 641 935
 936 9000 1 1 1 1 1 1 1 1 0 FFFFTFTFFFFFFF1 81 1 932 2002 937 634 0 856 938 939
 940 81 1 933 2204 641 753 941 0 856 942 943 82 255 1 934 -1030487893 14 753 132
6 933 ?757 743 752 5 944 +0 0 757 743 23 81 1 941 2031 937 753 0 933 945 946 947
 81 1 942 2205 641 757 946 0 933 948 949 82 1 943 -554958669 14 757 1330 942 ?76
3 753 756 5 950 +0 0 763 753 23 81 1 946 2032 937 757 0 942 941 951 952 81 1 948
 2206 641 763 951 0 942 953 954 82 1 949 -554696525 14 763 1334 948 ?767 757 762
 5 955 -0 0 767 757 23 81 1 951 2033 937 763 0 948 946 956 957 81 1 953 2207 641
 767 956 0 948 958 959 82 1 954 -554434381 14 767 1338 953 ?770 763 765 5 779 -0
 0 770 763 23 81 1 956 2034 937 767 0 953 951 960 961 81 1 958 2208 641 264 962
 0 953 963 964 82 1 959 -554237773 14 264 1187 958 ?965 747 259 5 966 -0 0 965 7
47 23 81 1 962 2038 937 264 0 958 967 968 969 81 1 963 2209 641 965 968 0 958 97
0 971 82 1 964 -577699661 14 965 1191 963 ?972 264 973 5 974 -0 0 972 264 23 81
 1 968 2039 937 965 0 963 962 975 976 81 1 970 2210 641 972 975 0 963 977 978 82
 1 971 -579403597 14 972 1195 970 ?979 965 980 5 981 -0 0 979 965 23 81 1 975 20
40 937 972 0 970 968 982 983 81 1 977 2211 641 979 982 0 970 984 985 82 1 978 -5
79272525 14 979 1199 977 ?986 972 987 5 988 -0 0 986 972 23 81 1 982 2041 937 97
9 0 977 975 989 990 81 1 984 2212 641 986 989 0 977 991 992 82 1 985 -579141453
 14 986 1203 984 ?993 979 994 5 995 -0 0 993 979 23 81 1 989 2042 937 986 0 984
 982 996 997 81 1 991 2213 641 993 996 0 984 998 999 82 1 992 -579010381 14 993
 1207 991 ?1000 986 1001 5 1002 -0 0 1000 986 23 81 1 996 2043 937 993 0 991 989
 1003 1004 81 1 998 2214 641 1000 1003 0 991 1005 1006 82 1 999 -578879309 14 10
00 1211 998 ?1007 993 1008 5 1009 -0 0 1007 993 23 81 1 1003 2044 937 1000 0 998
 996 1010 1011 81 1 1005 2215 641 1007 1010 0 998 1012 1013 82 1 1006 -578748237
 14 1007 1215 1005 ?1014 1000 1015 5 1016 -0 0 1014 1000 23 81 1 1010 2045 937 1
007 0 1005 1003 1017 1018 81 1 1012 2216 641 1014 1017 0 1005 1019 1020 82 1 101
3 -578617165 14 1014 1219 1012 ?1021 1007 1022 5 1023 -0 0 1021 1007 23 81 1 101
7 2046 937 1014 0 1012 1010 1024 1025 81 1 1019 2217 641 1021 1024 0 1012 1026 1
027 82 1 1020 -578486093 14 1021 1223 1019 ?1028 1014 1029 5 1030 -0 0 1028 1014
 23 81 1 1024 2047 937 1021 0 1019 1017 1031 1032 81 1 1026 2218 641 1028 1031 0
 1019 1033 1034 82 1 1027 -578355021 14 1028 1227 1026 ?1035 1021 1036 5 1037 -0
 0 1035 1021 23 81 1 1031 2048 937 1028 0 1026 1024 1038 1039 81 1 1033 2219 641
 1035 1038 0 1026 1040 1041 82 1 1034 -578223949 14 1035 1231 1033 ?1042 1028 10
43 5 1044 -0 0 1042 1028 23 81 1 1038 2049 937 1035 0 1033 1031 1045 1046 81 1 1
040 2220 641 1042 1045 0 1033 1047 1048 82 1 1041 -578092877 14 1042 1235 1040 ?
278 1035 28 5 1049 -0 0 278 1035 23 81 1 1045 2050 937 1042 0 1040 1038 1050 105
1 81 1 1047 2221 641 278 1050 0 1040 0 1052 82 1 1048 -577961805 14 278 1239 104
7 ?0 1042 270 5 1053 -0 0 0 1042 23 81 1 1050 2051 937 278 0 1047 1045 0 1054 82
 1 1052 -577830733 80 1 937 0 1055 8001 0 0 0 0 3 5 0 0 0 FFFFTFTFFFFFFF2 83 3 1
054 .2666666666666665 .2666666666666665 .2666666666666665 79 15 1055 SDL/TYSA_CO
LOUR51 1053 1565 0 278 1049 966 0 +-.111800007159493 .0015 .000942999134840671 0
 -1 0 .00115 0 0 -1 50 1049 1566 0 1042 1044 1053 0 +182974852139526e-24 .0015 .
002092989360978355 874227339856113e-22 0 1 1 0 -874227339856113e-22 50 966 1564
 0 264 1053 944 0 +-.1106500072419316 .0015 967331872393712e-23 1 0 -87422666885
0259e-22 -874226668850259e-22 0 -1 51 944 1561 0 753 966 950 0 --.09008476530721
9 .0015 .001945995958054965 0 -1 0 .00165 0 0 -1 50 950 1560 0 757 944 955 0 +-.
088434765307219 .0015 0 -1 0 0 0 0 1 51 955 1559 0 763 950 779 0 +-.090084765307
219 .0015 -.00251000404194504 0 -1 0 .00165 0 0 -1 50 779 1558 0 767 955 778 0 +
3049941196784625e-34 .0015 -.00416000404194503 733158229182539e-31 0 -1 -1 0 -73
3158229182539e-31 51 1044 1567 0 1035 1037 1049 0 +-.125200007159493 .0015 .0009
4300030630529 0 -1 0 .00115 0 0 -1 50 1037 1568 0 1028 1030 1044 0 +-.1263500072
419316 .0015 1104586473236692e-23 -1 0 874227471251075e-22 874227471251075e-22 0
 1 51 1030 1569 0 1021 1023 1037 0 +-.1252000073761638 .0015 -.00153542729733970
5 0 -1 0 .00115000000000015 0 0 -1 50 1023 1570 0 1014 1016 1030 0 +-.0115978933
9688346 .0015 -.03769314181668175 -.2940859323925405 0 -.95577898301271 -.955778
98301271 0 .2940859323925405 50 1016 1571 0 1007 1009 1023 0 +-.0718369266031595
 .0015 -.0632164842676459 -.750713574674488 0 -.66062782926505 -.66062782926505
 0 .750713574674488 51 1009 1572 0 1000 1002 1016 0 +-.1232893876854826 .0015 -.
0030069998607263 0 -1 0 .001150000000000302 0 0 -1 50 1002 1573 0 993 995 1009 0
 +-363417148431532e-24 .0015 -.00415701063901924 -874227130958874e-22 0 -1 -1 0
 874227130958874e-22 51 995 1574 0 986 988 1002 0 +-.1137106273241426 .0015 -.00
300700069812771 0 -1 0 .00115 0 0 -1 50 988 1575 0 979 981 995 0 +-.061729358260
6582 .0015 .0543218448453232 .750713459167009 0 -.660627960523549 -.660627960523
549 0 -.750713459167009 50 981 1576 0 972 974 988 0 +-.00889940591953734 .0015 .
02892307823441655 .2940857652791065 0 -.955779034432228 -.955779034432228 0 -.29
40857652791065 51 974 1577 0 965 0 981 0 +-.1118000073761638 .0015 -.00153542846
8804335 0 -1 0 .001150000000000254 0 0 -1 83 3 1051 .2666666666666665 .266666666
6666665 .2666666666666665 15 28 1238 0 327 1042 0 17 327 0 28 30 29 220 1056 325
 0 1057 +17 30 0 28 26 327 256 222 380 0 1058 -17 29 0 28 327 26 169 33 273 0 27
1 +17 1056 0 660 272 1057 169 327 325 0 0 -17 1057 0 660 1056 1059 220 330 328 0
 0 -15 660 849 0 272 654 889 17 1059 0 660 1057 1060 217 333 331 0 0 -17 330 0 1
043 255 222 217 1057 328 0 1059 +15 1043 1234 0 330 1035 0 17 255 0 1043 1058 33
0 253 219 378 0 1061 -17 222 0 1043 330 1058 220 30 380 0 327 +17 1058 0 1043 22
2 255 256 293 291 0 31 -17 293 0 279 296 31 253 1058 291 0 0 +17 31 0 279 293 27
6 256 26 32 0 0 +17 296 0 279 299 293 250 1061 294 0 0 +17 299 0 279 302 296 247
 1062 297 0 0 +17 1061 0 1036 219 252 253 296 294 0 293 -15 1036 1230 0 333 1028
 0 17 219 0 1036 333 1061 217 255 378 0 330 +17 252 0 1036 1061 333 250 216 376
 0 1062 -17 333 0 1036 252 219 214 1059 331 0 1060 +17 216 0 1029 336 1062 214 2
52 376 0 333 +17 1062 0 1029 216 249 250 299 297 0 296 -15 1029 1226 0 336 1021
 0 17 249 0 1029 1062 336 247 213 374 0 1063 -17 336 0 1029 249 216 211 1060 334
 0 1064 +17 213 0 1022 339 1063 211 249 374 0 336 +17 1063 0 1022 213 246 247 30
2 300 0 299 -15 1022 1222 0 339 1014 0 17 246 0 1022 1063 339 244 210 372 0 1065
 -17 302 0 279 305 299 244 1063 300 0 0 +17 305 0 279 308 302 241 1065 303 0 0 +
17 308 0 279 311 305 238 1066 306 0 0 +17 1065 0 1015 210 243 244 305 303 0 302
 -15 1015 1218 0 342 1007 0 17 210 0 1015 342 1065 208 246 372 0 339 +17 243 0 1
015 1065 342 241 207 370 0 1066 -17 342 0 1015 243 210 205 1067 340 0 1068 +17 2
07 0 1008 345 1066 205 243 370 0 342 +17 1066 0 1008 207 240 241 308 306 0 305 -
15 1008 1214 0 345 1000 0 17 240 0 1008 1066 345 238 204 368 0 1069 -17 345 0 10
08 240 207 202 1068 343 0 1070 +17 204 0 1001 348 1069 202 240 368 0 345 +17 106
9 0 1001 204 237 238 311 309 0 308 -15 1001 1210 0 348 993 0 17 237 0 1001 1069
 348 235 201 366 0 1071 -17 311 0 279 314 308 235 1069 309 0 0 +17 314 0 279 317
 311 232 1071 312 0 0 +17 317 0 279 282 314 229 1072 315 0 0 +17 1071 0 994 201
 234 235 314 312 0 311 -15 994 1206 0 351 986 0 17 201 0 994 351 1071 199 237 36
6 0 348 +17 234 0 994 1071 351 232 198 364 0 1072 -17 351 0 994 234 201 196 1073
 349 0 1074 +17 198 0 987 354 1072 196 234 364 0 351 +17 1072 0 987 198 231 232
 317 315 0 314 -15 987 1202 0 354 979 0 17 231 0 987 1072 354 229 195 362 0 1075
 -17 354 0 987 231 198 193 1074 352 0 1076 +17 195 0 980 355 1075 193 231 362 0
 354 +17 1075 0 980 195 228 229 282 318 0 317 -15 980 1198 0 355 972 0 17 228 0
 980 1075 355 226 192 360 0 283 -17 282 0 279 267 317 226 1075 318 0 0 +17 355 0
 980 228 195 190 1076 287 0 1077 +17 192 0 973 286 283 190 228 360 0 355 +17 283
 0 973 192 225 226 267 274 0 282 -15 973 1194 0 286 965 0 17 225 0 973 283 286 7
4 188 357 0 260 -17 286 0 973 225 192 186 1077 284 0 268 +17 188 0 259 50 260 18
6 225 357 0 286 +17 1077 0 660 1076 268 190 286 284 0 0 -17 268 0 660 1077 272 1
86 50 269 0 0 -17 272 0 660 268 1056 48 271 322 0 0 -17 271 0 270 33 261 169 272
 322 0 1056 +17 1076 0 660 1074 1077 193 355 287 0 0 -17 1074 0 660 1073 1076 19
6 354 352 0 0 -17 1073 0 660 1070 1074 199 351 349 0 0 -17 1070 0 660 1068 1073
 202 348 346 0 0 -17 1068 0 660 1067 1070 205 345 343 0 0 -17 348 0 1001 237 204
 199 1070 346 0 1073 +17 1067 0 660 1064 1068 208 342 340 0 0 -17 1064 0 660 106
0 1067 211 339 337 0 0 -17 1060 0 660 1059 1064 214 336 334 0 0 -17 339 0 1022 2
46 213 208 1064 337 0 1067 +83 3 1046 .2666666666666665 .2666666666666665 .26666
66666666665 83 3 1039 .2666666666666665 .2666666666666665 .2666666666666665 83 3
 1032 .2666666666666665 .2666666666666665 .2666666666666665 83 3 1025 .266666666
6666665 .2666666666666665 .2666666666666665 83 3 1018 .2666666666666665 .2666666
666666665 .2666666666666665 83 3 1011 .2666666666666665 .2666666666666665 .26666
66666666665 83 3 1004 .2666666666666665 .2666666666666665 .2666666666666665 83 3
 997 .2666666666666665 .2666666666666665 .2666666666666665 83 3 990 .26666666666
66665 .2666666666666665 .2666666666666665 83 3 983 .2666666666666665 .2666666666
666665 .2666666666666665 83 3 976 .2666666666666665 .2666666666666665 .266666666
6666665 81 1 967 2037 937 747 0 774 773 962 1078 83 3 969 .2666666666666665 .266
6666666666665 .2666666666666665 81 1 774 2181 641 747 967 0 725 777 1079 81 1 77
3 2036 937 771 0 725 960 967 1080 83 3 1078 .2666666666666665 .2666666666666665
 .2666666666666665 81 1 960 2035 937 770 0 777 956 773 1081 83 3 1080 .266666666
6666665 .2666666666666665 .2666666666666665 81 1 777 2182 641 770 960 0 774 782
 1082 83 3 1081 .2666666666666665 .2666666666666665 .2666666666666665 81 1 782 2
183 641 743 945 0 777 786 1083 82 1 1082 -554106701 81 1 945 2030 937 743 0 782
 1084 941 1085 81 1 786 2184 641 784 1086 0 782 791 1087 82 1 1083 -553713485 81
 1 1086 2023 937 784 0 786 1088 1089 1090 81 1 791 2185 641 787 1089 0 786 795 1
091 82 1 1087 -532414285 81 1 1089 2024 937 787 0 791 1086 1092 1093 81 1 795 21
86 641 792 1092 0 791 799 1094 82 1 1091 -532152141 81 1 1092 2025 937 792 0 795
 1089 1095 1096 81 1 799 2187 641 796 1095 0 795 803 1097 82 1 1094 -531889997 8
1 1 1095 2026 937 796 0 799 1092 1098 1099 81 1 803 2188 641 800 1098 0 799 807
 1100 82 1 1097 -531627853 81 1 1098 2027 937 800 0 803 1095 1101 1102 81 1 807
 2189 641 804 1101 0 803 810 1103 82 1 1100 -531431245 81 1 1101 2028 937 804 0
 807 1098 1084 1104 81 1 810 2190 641 783 1084 0 807 813 1105 82 1 1103 -5313001
73 81 1 1084 2029 937 783 0 810 1101 945 1106 81 1 813 2191 641 788 1088 0 810 8
18 1107 82 1 1105 -531169101 81 1 1088 2022 937 788 0 813 1108 1086 1109 81 1 81
8 2192 641 816 1110 0 813 822 1111 82 1 1107 -531038029 81 1 1110 2019 937 816 0
 818 1112 1113 1114 81 1 822 2193 641 819 1113 0 818 825 1115 82 1 1111 -5178652
93 81 1 1113 2020 937 819 0 822 1110 1108 1116 81 1 825 2194 641 814 1108 0 822
 828 1117 82 1 1115 -517734221 81 1 1108 2021 937 814 0 825 1113 1088 1118 81 1
 828 2195 641 645 1112 0 825 832 1119 82 1 1117 -517406541 81 1 1112 2018 937 64
5 0 828 1120 1110 1121 81 1 832 2196 641 830 1122 0 828 837 1123 82 1 1119 -5172
09933 81 1 1122 2005 937 830 0 832 1124 1125 1126 81 1 837 2197 641 834 1124 0 8
32 841 1127 82 1 1123 -1007353685 81 1 1124 2004 937 834 0 837 939 1122 1128 81
 1 841 2198 641 838 939 0 837 845 1129 82 1 1127 -1002635093 81 1 939 2003 937 8
38 0 841 932 1124 1130 81 1 845 2199 641 843 1131 0 841 849 1132 82 1 1129 -9987
02933 81 1 1131 2008 937 843 0 845 855 1133 1134 81 1 849 2200 641 689 1133 0 84
5 851 1135 82 1 1132 -1016594261 81 1 1133 2009 937 689 0 849 1131 1136 1137 81
 1 851 2201 641 833 1125 0 849 853 1138 82 1 1135 -1012072277 81 1 1125 2006 937
 833 0 851 1122 855 1139 82 1 1138 -1025769301 81 1 855 2007 937 846 0 853 1125
 1131 1140 83 3 1139 .2666666666666665 .2666666666666665 .2666666666666665 83 3
 1140 .2666666666666665 .2666666666666665 .2666666666666665 81 1 1136 2010 937 6
81 0 687 1133 1141 1142 83 3 1137 .2666666666666665 .2666666666666665 .266666666
6666665 81 1 687 2175 641 681 1136 0 678 695 1143 81 1 1141 2011 937 688 0 695 1
136 1144 1145 83 3 1142 .2666666666666665 .2666666666666665 .2666666666666665 81
 1 695 2176 641 688 1141 0 687 702 1146 81 1 1144 2012 937 696 0 702 1141 1147 1
148 83 3 1145 .2666666666666665 .2666666666666665 .2666666666666665 81 1 702 217
7 641 696 1144 0 695 709 1149 81 1 1147 2013 937 703 0 709 1144 724 1150 83 3 11
48 .2666666666666665 .2666666666666665 .2666666666666665 81 1 709 2178 641 703 1
147 0 702 714 1151 81 1 724 2014 937 648 0 714 1147 1152 1153 83 3 1150 .2666666
666666665 .2666666666666665 .2666666666666665 81 1 1152 2015 937 639 0 647 724 6
42 1154 83 3 1153 .2666666666666665 .2666666666666665 .2666666666666665 81 1 647
 2168 641 639 1152 0 643 653 1155 81 1 642 2016 937 637 0 638 1152 1120 1156 83
 3 1154 .2666666666666665 .2666666666666665 .2666666666666665 81 1 1120 2017 937
 19 0 643 642 1112 1157 83 3 1156 .2666666666666665 .2666666666666665 .266666666
6666665 81 1 643 2167 641 19 1120 0 638 647 1158 83 3 1157 .2666666666666665 .26
66666666666665 .2666666666666665 82 1 1158 -925695829 82 1 1155 -928448341 82 1
 1151 -931200853 82 1 1149 -932577109 82 1 1146 -933953365 81 1 678 2174 641 659
 1159 0 675 687 1160 82 1 1143 -935329621 81 1 1159 1998 937 659 0 678 1161 1162
 1163 81 1 675 2173 641 672 1162 0 671 678 1164 82 1 1160 -1382547288 81 1 1162
 1999 937 672 0 675 1159 1165 1166 81 1 671 2172 641 668 1165 0 667 675 1167 82
 1 1164 -1382809432 81 1 1165 2000 937 668 0 671 1162 938 1168 81 1 667 2171 641
 665 938 0 657 671 1169 82 1 1167 -1383071576 81 1 938 2001 937 665 0 667 1165 9
32 1170 81 1 657 2170 641 654 1161 0 653 667 1171 82 1 1169 -1383333720 81 1 116
1 1997 937 654 0 657 656 1159 1172 82 1 1171 -490602317 81 1 656 1996 937 16 0 6
53 0 1161 1173 83 3 1172 .2666666666666665 .2666666666666665 .2666666666666665 8
3 3 1173 .2666666666666665 .2666666666666665 .2666666666666665 83 3 1170 .266666
6666666665 .2666666666666665 .2666666666666665 83 3 1168 .2666666666666665 .2666
666666666665 .2666666666666665 83 3 1166 .2666666666666665 .2666666666666665 .26
66666666666665 83 3 1163 .2666666666666665 .2666666666666665 .2666666666666665 8
3 3 1134 .2666666666666665 .2666666666666665 .2666666666666665 83 3 1130 .266666
6666666665 .2666666666666665 .2666666666666665 83 3 1128 .2666666666666665 .2666
666666666665 .2666666666666665 83 3 1126 .2666666666666665 .2666666666666665 .26
66666666666665 83 3 1121 .2666666666666665 .2666666666666665 .2666666666666665 8
3 3 1118 .2666666666666665 .2666666666666665 .2666666666666665 83 3 1116 .266666
6666666665 .2666666666666665 .2666666666666665 83 3 1114 .2666666666666665 .2666
666666666665 .2666666666666665 83 3 1109 .2666666666666665 .2666666666666665 .26
66666666666665 83 3 1106 .2666666666666665 .2666666666666665 .2666666666666665 8
3 3 1104 .2666666666666665 .2666666666666665 .2666666666666665 83 3 1102 .266666
6666666665 .2666666666666665 .2666666666666665 83 3 1099 .2666666666666665 .2666
666666666665 .2666666666666665 83 3 1096 .2666666666666665 .2666666666666665 .26
66666666666665 83 3 1093 .2666666666666665 .2666666666666665 .2666666666666665 8
3 3 1090 .2666666666666665 .2666666666666665 .2666666666666665 83 3 1085 .266666
6666666665 .2666666666666665 .2666666666666665 82 1 1079 -553844557 83 3 961 .26
66666666666665 .2666666666666665 .2666666666666665 83 3 957 .2666666666666665 .2
666666666666665 .2666666666666665 83 3 952 .2666666666666665 .2666666666666665 .
2666666666666665 83 3 947 .2666666666666665 .2666666666666665 .2666666666666665
 83 3 940 .2666666666666665 .2666666666666665 .2666666666666665 79 14 936 SWEntU
nchanged82 1 857 -1021247317 15 852 584 0 24 833 922 17 24 0 852 24 24 0 1174 10
 0 0 +17 1174 0 646 1174 1174 0 24 10 0 0 -15 646 701 0 1174 19 1175 15 1175 702
 0 736 19 0 17 736 0 1175 736 736 0 592 590 0 0 -15 850 560 0 625 689 920 17 625
 0 850 625 625 0 1176 623 0 0 +17 1176 0 710 1176 1176 0 625 623 0 0 -15 710 645
 0 1176 703 910 15 847 542 0 616 843 921 17 616 0 847 616 616 0 1177 614 0 0 +17
 1177 0 690 1177 1177 0 616 614 0 0 -15 690 603 0 1177 681 913 15 842 572 0 630
 838 925 17 630 0 842 630 630 0 1178 629 0 0 +17 1178 0 649 1178 1178 0 630 629
 0 0 -15 649 673 0 1178 639 1179 15 1179 674 0 733 639 0 17 733 0 1179 733 733 0
 598 596 0 0 -15 839 554 0 622 834 924 17 622 0 839 622 622 0 1180 620 0 0 +17 1
180 0 704 1180 1180 0 622 620 0 0 -15 704 631 0 1180 696 911 15 835 566 0 628 83
0 923 17 628 0 835 628 628 0 727 626 0 0 +82 1 775 -553975629 17 651 0 640 651 6
51 0 595 593 0 0 -82 1 726 -929824597 84 6 712 BAAAAB83 3 713 -.0009999999999999
29 0 .000999999999999928 84 6 707 BAAAAB83 3 708 -.000999999999999982 0 .0009999
99999999981 84 6 700 BAAAAB83 3 701 -.000999999999999939 0 .000999999999999939 8
4 6 693 BAAAAB83 3 694 0 .00099999999999995 .000999999999999945 84 6 685 BAAAAB8
3 3 686 -.00099999999999994 0 .000999999999999939 82 1 658 -476184397 82 1 644 -
927072085 19 17 100 0 1 0 9 5 S0 74 4 CI16 index_map_offset0 0 1 dCCZ20 15 9 0 0
 1181 1182 1047 18 1183 1184 13 1050 2 0 0 0 0 0 0 0 0 0 0 0 81 2 1181 124 1185
 1 0 1182 0 0 0 1186 81 2 1182 128 1187 1 1181 1183 0 0 0 1188 81 1 1183 1871 11
89 1 1182 1184 0 0 1190 81 2 1184 1872 1191 1 1183 13 0 0 0 0 81 2 13 1981 1192
 1 1184 2 0 0 0 1193 80 2 1192 1194 1195 9000 0 0 0 0 3 5 0 0 0 FFTFFFFFFFFFFF9
 1 82 1 1193 1 79 24 1195 BODY_IN_LIGHTWEIGHT_PERM80 2 1191 1196 1197 9000 0 0 0
 0 3 5 0 0 0 FFTFFFFFFFFFFF9 1 79 16 1197 BODY_RECIPE_200180 1 1189 1198 1199 90
00 1 1 1 1 1 1 1 1 0 FFTFFFFFFFFFFF1 82 1 1190 4107558 79 10 1199 BODY_MATCH80 2
 1187 1200 1201 9000 0 0 0 0 3 5 0 0 0 FFTFFFFFFFFFFF9 1 82 1 1188 99 79 30 1201
 LAST_BODY_MODIFYING_FEATURE_ID80 2 1185 1202 1203 9000 0 0 0 0 3 5 0 0 0 FFTFFF
FFFFFFFT9 1 82 1 1186 171 79 19 1203 ENT_TIME_STAMP_200180 2 12 1204 1205 9000 0
 0 0 0 3 5 0 0 0 FFTFFFFFFFFFFF9 1 82 1 14 103 79 12 1205 ATOM_ID_20011 0 
