**ABCDEFGHIJKLMNOPQRSTUVWXYZabcdefghijklmnopqrstuvwxyz**************************
**PARASOLID !"#$%&'()*+,-./:;<=>?@[\]^_`{|}~0123456789**************************
**PART1;
MC=AMD64;
MC_MODEL=Intel64 Family 6 Model 158 Stepping 9, GenuineIntel;
MC_ID=unknown;
OS=Windows_NT;
OS_RELEASE=unknown;
FRU=Parasolid Version 33.1, build 247,  8- 6-2021;
APPL=SOLIDWORKS 2022-2021255;
SITE=;
USER=unknown;
FORMAT=text;
GUISE=transmit;
KEY=FILEWasher_M3_0.5mm.x_t;
DATE=Wed Apr 20 09:31:59 2022;
**PART2;
SCH=SCH_3301247_33103;
USFLD_SIZE=0;
**PART3;
**END_OF_HEADER*****************************************************************
T51 : TRANSMIT FILE created by modeller version 330124723 SCH_3301247_33103_1300
6230 0 12 35 CCCI7 lattice222 0 CCCI4 mesh1006 0 I8 polyline1008 0 CCCCCCCDI5 ow
ner1040 0 CCCCCCI13 boundary_mesh1006 0 I17 boundary_polyline1008 0 CCCA16 index
_map_offset0 0 1 dA9 index_map82 0 A17 node_id_index_map82 0 A20 schema_embeddin
g_map82 0 A5 child12 0 A14 lowest_node_id0 0 1 dA16 mesh_offset_data206 0 Z1 253
 2 3 0 0 0 0 0 0 0 1e3 1e-8 0 4 0 1 0 1 1 5 6 7 8 0 0 9 10 11 0 0 0 0 0 0 0 81 2
55 2 2 245 12 1 13 0 0 0 0 14 70 11 CI9 list_type0 0 1 uI10 notransmit0 0 1 lCCC
DCCDI12 finger_index0 0 1 dI12 finger_block1012 0 CZ3 0 4 T1 0 0 12 20 1 15 15 1
3 255 5 44 0 1 0 16 0 0 17 0 51 255 6 52 0 18 19 0 0 +0 0 0 0 1 0 .0035 1 0 0 31
 255 7 68 0 20 21 0 0 +0 5e-5 0 0 -1 0 1 0 0 .0035 29 255 8 60 0 22 23 0 -.00165
 5e-4 2020667e-25 19 8 CCCCCCCA5 owner12 0 Z9 1 0 1 17 0 24 V0 16 255 10 37 25 ?
26 0 27 28 0 0 1 18 255 11 38 29 26 0 30 31 ?1 81 1 29 94 32 11 0 0 33 34 35 17
 255 26 0 36 26 26 11 37 10 0 37 +18 30 33 34 38 11 39 40 ?1 29 31 54 0 11 41 40
 -.0016 45e-5 -1959435e-25 29 41 53 0 39 0 31 -.00165 0 -2020667e-25 29 40 55 0
 30 31 42 -.0016 5e-5 1959435e-25 29 42 56 0 43 40 44 -.0035 5e-5 -4286264e-25 1
8 43 13 45 46 22 47 42 ?1 29 44 57 0 48 42 49 -.00345 5e-4 -4225031e-25 18 48 6
 50 51 47 0 44 ?1 29 49 58 0 47 44 23 -.0035 45e-5 4286264e-25 18 47 9 52 53 43
 48 49 ?1 29 23 59 0 54 49 8 -.00345 0 4225031e-25 18 54 24 55 56 39 22 23 ?1 81
 1 55 99 32 54 0 0 52 57 58 17 56 0 59 56 56 54 60 61 0 60 +18 39 29 33 62 30 54
 41 ?1 18 22 19 57 63 54 43 8 ?1 81 1 57 100 32 22 0 0 55 64 65 17 63 0 66 63 63
 22 67 68 0 67 +15 255 66 42 0 63 16 36 17 67 0 69 67 67 22 63 68 0 0 -16 68 18
 70 ?63 61 20 71 0 0 1 81 1 70 73 32 68 0 0 72 25 73 16 61 23 74 ?56 75 68 76 0
 0 1 16 20 12 77 ?46 68 78 7 0 0 1 31 71 65 0 68 79 28 0 +0 5e-4 0 0 1 0 1 0 0 .
00165 31 79 64 0 80 81 71 0 +0 5e-4 0 0 -1 0 1 0 0 .00345 31 28 66 0 10 71 21 0
 +0 45e-5 0 0 -1 0 1 0 0 .0016 31 21 67 0 75 28 7 0 +0 0 0 0 -1 0 1 0 0 .00165 1
6 75 28 82 ?62 27 61 21 0 0 1 81 1 82 75 32 75 0 0 25 77 83 17 62 0 84 62 62 39
 85 75 0 85 +16 27 32 86 ?38 10 75 81 0 0 1 81 1 86 71 32 27 0 0 74 72 87 17 38
 0 88 38 38 30 89 27 0 89 +31 81 63 0 27 76 79 0 +0 5e-5 0 0 1 0 1 0 0 .0016 31
 76 62 0 61 90 81 0 +0 0 0 0 1 0 1 0 0 .00345 31 90 61 0 78 0 76 0 +0 45e-5 0 0
 1 0 1 0 0 .0035 16 78 8 91 ?53 20 80 90 0 0 1 81 1 91 69 32 78 0 0 0 74 92 17 5
3 0 93 53 53 47 94 78 0 94 +16 80 5 72 ?51 78 0 79 0 0 1 81 1 72 72 32 80 0 0 86
 70 95 17 51 0 96 51 51 48 97 80 0 97 +15 96 4 0 51 98 0 17 97 0 99 97 97 48 51
 80 0 0 -15 99 16 0 97 100 0 14 255 100 15 101 ?18 102 69 5 103 -0 0 18 102 24 8
1 1 101 246 104 100 105 0 0 106 107 14 18 10 106 ?98 100 108 5 6 +0 0 98 100 24
 14 102 20 109 ?100 110 59 5 111 +0 0 100 110 24 15 69 17 0 67 100 99 50 255 103
 47 0 100 112 113 0 +0 5e-4 0 0 -1 0 0 0 -1 13 24 2 0 0 0 0 0 0 9 16 14 16 40 11
4 ?115 0 66 5 19 +0 0 115 0 24 81 1 114 249 104 16 116 0 109 117 118 14 115 35 1
17 ?119 16 120 5 121 -0 0 119 16 24 54 255 19 51 0 16 122 6 0 +0 45e-5 0 0 -1 0
 .00165 5e-5 0 0 -1 50 122 50 0 110 111 19 0 +0 0 0 0 -1 0 0 0 -1 14 110 25 123
 ?102 119 124 5 122 +0 0 102 119 24 54 111 49 0 102 113 122 0 +0 5e-5 0 0 -1 0 .
00345 5e-5 0 0 -1 54 113 48 0 119 103 111 0 +0 5e-5 0 0 1 0 .00165 5e-5 0 0 1 14
 119 30 125 ?110 115 84 5 113 +0 0 110 115 24 81 1 125 252 104 119 126 0 123 127
 128 15 84 34 0 62 119 88 15 88 31 0 38 119 0 80 255 1 104 129 130 9000 1 1 1 1
 1 1 1 1 0 FFFFTFTFFFFFFF1 81 1 126 222 131 119 132 125 133 134 135 81 1 123 251
 104 110 134 0 117 125 136 81 1 127 253 104 98 137 0 125 0 138 82 255 1 128 -113
4100367 14 98 3 127 ?0 18 93 5 112 +0 0 0 18 24 81 1 137 227 131 98 139 127 140
 0 141 82 1 138 -1132593039 80 1 131 0 142 8001 0 0 0 0 3 5 0 0 0 FFFFTFTFFFFFFF
2 81 1 139 80 32 98 0 137 143 144 145 81 1 140 226 131 18 146 106 105 137 147 83
 255 3 141 .650980392156863 .619607843137255 .588235294117647 81 1 146 92 32 18
 0 140 148 33 149 81 1 106 247 104 18 140 0 101 109 150 81 1 105 225 131 100 144
 101 151 140 152 83 3 147 .650980392156863 .619607843137255 .588235294117647 81
 1 144 82 32 100 0 105 139 132 153 81 1 151 224 131 102 154 109 134 105 155 83 3
 152 .650980392156863 .619607843137255 .588235294117647 81 1 154 86 32 102 0 151
 132 156 157 81 1 109 248 104 102 151 0 106 114 158 81 1 134 223 131 110 156 123
 126 151 159 83 3 155 .650980392156863 .619607843137255 .588235294117647 81 1 15
6 88 32 110 0 134 154 148 160 83 3 159 .650980392156863 .619607843137255 .588235
294117647 80 1 32 161 162 9000 0 0 0 0 3 6 0 0 0 TTTFTFTTTFFFFF3 81 1 148 90 32
 16 0 116 156 146 163 84 255 3 160 17581 1 116 220 131 16 148 114 0 133 164 84 3
 163 22781 1 133 221 131 115 143 117 116 126 165 83 3 164 .650980392156863 .6196
07843137255 .588235294117647 81 1 143 78 32 115 0 133 77 139 166 81 1 117 250 10
4 115 133 0 114 123 167 83 3 165 .650980392156863 .619607843137255 .588235294117
647 82 1 167 -1134493583 81 1 77 76 32 20 0 0 82 143 168 84 3 166 21584 3 168 10
879 255 20 162 ATTRIB_XPARASOLID_ID82 1 158 -1134886799 81 1 132 84 32 119 0 126
 144 154 169 84 3 157 15584 3 169 19584 3 153 13582 1 150 -1134952335 81 1 33 93
 32 39 0 0 146 29 170 84 3 149 11584 3 170 16584 2 145 9579 15 142 SDL/TYSA_COLO
UR15 93 7 0 53 98 96 54 112 46 0 98 121 103 0 +0 45e-5 0 0 -1 0 .00345 5e-5 0 0
 -1 51 121 45 0 115 0 112 0 +0 0 0 0 1 0 .0016 1 0 0 82 1 136 -1134296975 83 3 1
35 .650980392156863 .619607843137255 .588235294117647 79 14 130 SWEntUnchanged15
 124 27 0 85 110 171 17 85 0 124 85 85 39 62 75 0 0 -15 171 26 0 60 110 0 17 60
 0 171 60 60 54 56 61 0 0 -15 120 39 0 89 115 172 17 89 0 120 89 89 30 38 27 0 0
 -15 172 36 0 37 115 0 17 37 0 172 37 37 11 26 10 0 0 -82 1 118 -1134624655 15 5
9 22 0 56 102 173 15 173 21 0 46 102 0 17 46 0 173 46 46 43 174 20 0 174 +17 174
 0 175 174 174 43 46 20 0 0 -15 175 11 0 174 18 0 15 108 14 0 94 18 175 17 94 0
 108 94 94 47 53 78 0 0 -82 1 107 -1135083407 84 2 95 8081 1 74 70 32 61 0 0 91
 86 176 84 2 92 9184 3 176 15184 3 87 18881 1 25 74 32 10 0 0 70 82 177 84 3 83
 17184 3 177 20884 3 73 13115 36 41 0 26 16 0 81 1 64 112 32 1 178 179 57 0 180
 84 3 65 12581 1 178 111 181 1 182 64 0 0 183 81 2 179 114 184 1 64 185 0 0 0 18
6 84 3 180 22980 2 184 187 188 9000 0 0 0 0 3 5 0 0 0 FFTFFFFFFFFFFF9 1 81 2 185
 115 189 1 179 190 0 0 0 191 82 1 186 38 80 2 189 192 193 9000 0 0 0 0 3 5 0 0 0
 FFTFFFFFFFFFFF9 1 81 2 190 134 194 1 185 195 0 0 0 0 82 1 191 103 80 2 194 196
 197 9000 0 0 0 0 3 5 0 0 0 FFTFFFFFFFFFFF9 1 81 1 195 143 198 1 190 199 0 0 200
 80 1 198 201 202 9000 1 1 1 1 1 1 1 1 0 FFTFFFFFFFFFFF1 81 3 199 199 203 1 195
 13 0 0 204 205 206 82 1 200 375822 80 3 203 207 208 9000 0 1 0 0 1 1 1 1 0 FFTF
FFFFFFFFFF1 1 1 81 2 13 219 209 1 199 2 0 0 0 210 82 1 204 375822 82 1 205 103 8
2 6 206 375903 375905 375911 375899 375898 375934 80 2 209 211 212 9000 0 0 0 0
 3 5 0 0 0 FFTFFFFFFFFFFF9 1 82 1 210 1 79 24 212 BODY_IN_LIGHTWEIGHT_PERM79 13
 208 TempAxisFaces79 10 202 BODY_MATCH79 16 197 BODY_RECIPE_200179 19 193 ENT_TI
ME_STAMP_200179 30 188 LAST_BODY_MODIFYING_FEATURE_ID80 1 181 32 213 9000 0 0 0
 0 3 5 0 0 0 TFTFTFTFFFFFFF3 81 1 182 101 214 1 0 178 0 0 215 84 5 183 BRBM380 1
 214 131 216 8040 0 0 0 0 3 5 0 0 0 TTTFFFFFFFFFFF2 83 3 215 .639216005802155 .6
39216005802155 .686275005340576 79 17 216 SDL/TYSA_COLOUR_279 22 213 ATTRIB_XPAR
ASOLID_NAME81 1 52 98 32 47 0 0 50 55 217 84 3 58 14581 1 50 97 32 48 0 0 45 52
 218 84 2 217 8581 1 45 96 32 43 0 0 34 50 219 84 2 218 7481 1 34 95 32 30 0 0 2
9 45 220 84 3 219 10284 3 220 18284 3 35 20219 17 43 0 1 0 9 5 S0 74 4 CI16 inde
x_map_offset0 0 1 dCCZ20 15 12 0 0 64 182 178 179 185 190 127 195 199 13 137 2 0
 0 0 0 0 0 0 0 80 2 12 221 222 9000 0 0 0 0 3 5 0 0 0 FFTFFFFFFFFFFF9 1 82 1 14
 101 79 12 222 ATOM_ID_20011 0 
