  0
SECTION
  2
HEADER
  9
$ACADVER
  1
AC1009
  9
$DWGCODEPAGE
  3
ansi_1252
  9
$INSBASE
 10
0.0
 20
0.0
 30
0.0
  9
$EXTMIN
 10
0.0
 20
0.0
 30
0.0
  9
$EXTMAX
 10
40.0
 20
55.0
 30
0.0
  9
$LIMMIN
 10
0.0
 20
0.0
  9
$LIMMAX
 10
12.0
 20
9.0
  9
$ORTHOMODE
 70
     0
  9
$REGENMODE
 70
     1
  9
$FILLMODE
 70
     1
  9
$QTEXTMODE
 70
     0
  9
$MIRRTEXT
 70
     1
  9
$DRAGMODE
 70
     2
  9
$LTSCALE
 40
1.0
  9
$OSMODE
 70
    37
  9
$ATTMODE
 70
     1
  9
$TEXTSIZE
 40
0.2
  9
$TRACEWID
 40
0.05
  9
$TEXTSTYLE
  7
STANDARD
  9
$CLAYER
  8
0
  9
$CELTYPE
  6
BYLAYER
  9
$CECOLOR
 62
   256
  9
$DIMSCALE
 40
1.0
  9
$DIMASZ
 40
0.18
  9
$DIMEXO
 40
0.0625
  9
$DIMDLI
 40
0.38
  9
$DIMRND
 40
0.0
  9
$DIMDLE
 40
0.0
  9
$DIMEXE
 40
0.18
  9
$DIMTP
 40
0.0
  9
$DIMTM
 40
0.0
  9
$DIMTXT
 40
0.18
  9
$DIMCEN
 40
0.09
  9
$DIMTSZ
 40
0.0
  9
$DIMTOL
 70
     0
  9
$DIMLIM
 70
     0
  9
$DIMTIH
 70
     1
  9
$DIMTOH
 70
     1
  9
$DIMSE1
 70
     0
  9
$DIMSE2
 70
     0
  9
$DIMTAD
 70
     0
  9
$DIMZIN
 70
     0
  9
$DIMBLK
  1

  9
$DIMASO
 70
     1
  9
$DIMSHO
 70
     1
  9
$DIMPOST
  1

  9
$DIMAPOST
  1

  9
$DIMALT
 70
     0
  9
$DIMALTD
 70
     2
  9
$DIMALTF
 40
25.4
  9
$DIMLFAC
 40
1.0
  9
$DIMTOFL
 70
     0
  9
$DIMTVP
 40
0.0
  9
$DIMTIX
 70
     0
  9
$DIMSOXD
 70
     0
  9
$DIMSAH
 70
     0
  9
$DIMBLK1
  1

  9
$DIMBLK2
  1

  9
$DIMSTYLE
  2
STANDARD
  9
$DIMCLRD
 70
     0
  9
$DIMCLRE
 70
     0
  9
$DIMCLRT
 70
     0
  9
$DIMTFAC
 40
1.0
  9
$DIMGAP
 40
0.09
  9
$LUNITS
 70
     2
  9
$LUPREC
 70
     4
  9
$SKETCHINC
 40
0.1
  9
$FILLETRAD
 40
0.5
  9
$AUNITS
 70
     0
  9
$AUPREC
 70
     0
  9
$MENU
  1
.
  9
$ELEVATION
 40
0.0
  9
$PELEVATION
 40
0.0
  9
$THICKNESS
 40
0.0
  9
$LIMCHECK
 70
     0
  9
$CHAMFERA
 40
0.0
  9
$CHAMFERB
 40
0.0
  9
$SKPOLY
 70
     0
  9
$TDCREATE
 40
2454910.5
  9
$TDUPDATE
 40
2459673.801688599
  9
$TDINDWG
 40
0.0000000116
  9
$TDUSRTIMER
 40
0.0000000116
  9
$USRTIMER
 70
     1
  9
$ANGBASE
 50
0.0
  9
$ANGDIR
 70
     0
  9
$PDMODE
 70
     0
  9
$PDSIZE
 40
0.0
  9
$PLINEWID
 40
0.0
  9
$COORDS
 70
     1
  9
$SPLFRAME
 70
     0
  9
$SPLINETYPE
 70
     6
  9
$SPLINESEGS
 70
     8
  9
$ATTDIA
 70
     0
  9
$ATTREQ
 70
     1
  9
$HANDLING
 70
     1
  9
$HANDSEED
  5
10B
  9
$SURFTAB1
 70
     6
  9
$SURFTAB2
 70
     6
  9
$SURFTYPE
 70
     6
  9
$SURFU
 70
     6
  9
$SURFV
 70
     6
  9
$UCSNAME
  2

  9
$UCSORG
 10
0.0
 20
0.0
 30
0.0
  9
$UCSXDIR
 10
1.0
 20
0.0
 30
0.0
  9
$UCSYDIR
 10
0.0
 20
1.0
 30
0.0
  9
$PUCSNAME
  2

  9
$PUCSORG
 10
0.0
 20
0.0
 30
0.0
  9
$PUCSXDIR
 10
1.0
 20
0.0
 30
0.0
  9
$PUCSYDIR
 10
0.0
 20
1.0
 30
0.0
  9
$USERI1
 70
     0
  9
$USERI2
 70
     0
  9
$USERI3
 70
     0
  9
$USERI4
 70
     0
  9
$USERI5
 70
     0
  9
$USERR1
 40
0.0
  9
$USERR2
 40
0.0
  9
$USERR3
 40
0.0
  9
$USERR4
 40
0.0
  9
$USERR5
 40
0.0
  9
$WORLDVIEW
 70
     1
  9
$SHADEDGE
 70
     3
  9
$SHADEDIF
 70
    70
  9
$TILEMODE
 70
     1
  9
$MAXACTVP
 70
    64
  9
$PLIMCHECK
 70
     0
  9
$PEXTMIN
 10
1.000000000000000E+20
 20
1.000000000000000E+20
 30
1.000000000000000E+20
  9
$PEXTMAX
 10
-1.000000000000000E+20
 20
-1.000000000000000E+20
 30
-1.000000000000000E+20
  9
$PLIMMIN
 10
0.0
 20
0.0
  9
$PLIMMAX
 10
12.0
 20
9.0
  9
$UNITMODE
 70
     0
  9
$VISRETAIN
 70
     1
  9
$PLINEGEN
 70
     0
  9
$PSLTSCALE
 70
     1
  0
ENDSEC
  0
SECTION
  2
TABLES
  0
TABLE
  2
VPORT
 70
     1
  0
VPORT
  2
*ACTIVE
 70
     0
 10
0.0
 20
0.0
 11
1.0
 21
1.0
 12
10.42990654205607
 22
4.5
 13
0.0
 23
0.0
 14
0.5
 24
0.5
 15
0.5
 25
0.5
 16
0.0
 26
0.0
 36
1.0
 17
0.0
 27
0.0
 37
0.0
 40
9.0
 41
1.972972972850329
 42
50.0
 43
0.0
 44
0.0
 50
0.0
 51
0.0
 71
     0
 72
   100
 73
     1
 74
     3
 75
     0
 76
     0
 77
     0
 78
     0
  0
ENDTAB
  0
TABLE
  2
LTYPE
 70
     2
  0
LTYPE
  2
CONTINUOUS
 70
     0
  3
Solid line
 72
    65
 73
     0
 40
0.0
  0
LTYPE
  2
CONTINUOUS2
 70
     0
  3
Solid Line
 72
    65
 73
     0
 40
0.0
  0
ENDTAB
  0
TABLE
  2
LAYER
 70
     2
  0
LAYER
  2
0
 70
     0
 62
     7
  6
CONTINUOUS
  0
LAYER
  2
FLAT
 70
     0
 62
     6
  6
CONTINUOUS
  0
ENDTAB
  0
TABLE
  2
STYLE
 70
     1
  0
STYLE
  2
STANDARD
 70
     0
 40
0.0
 41
1.0
 50
0.0
 71
     0
 42
0.2
  3
txt
  4

  0
ENDTAB
  0
TABLE
  2
VIEW
 70
     0
  0
ENDTAB
  0
TABLE
  2
UCS
 70
     0
  0
ENDTAB
  0
TABLE
  2
APPID
 70
     1
  0
APPID
  2
ACAD
 70
     0
  0
ENDTAB
  0
TABLE
  2
DIMSTYLE
 70
     1
  0
DIMSTYLE
  2
STANDARD
 70
     0
  3

  4

  5

  6

  7

 40
1.0
 41
0.18
 42
0.0625
 43
0.38
 44
0.18
 45
0.0
 46
0.0
 47
0.0
 48
0.0
140
0.18
141
0.09
142
0.0
143
25.4
144
1.0
145
0.0
146
1.0
147
0.09
 71
     0
 72
     0
 73
     1
 74
     1
 75
     0
 76
     0
 77
     0
 78
     0
170
     0
171
     2
172
     0
173
     0
174
     0
175
     0
176
     0
177
     0
178
     0
  0
ENDTAB
  0
ENDSEC
  0
SECTION
  2
BLOCKS
  0
BLOCK
  8
0
  2
$MODEL_SPACE
 70
     0
 10
0.0
 20
0.0
 30
0.0
  3
$MODEL_SPACE
  1

  0
ENDBLK
  5
21
  8
0
  0
BLOCK
 67
     1
  8
0
  2
$PAPER_SPACE
 70
     0
 10
0.0
 20
0.0
 30
0.0
  3
$PAPER_SPACE
  1

  0
ENDBLK
  5
1D
 67
     1
  8
0
  0
ENDSEC
  0
SECTION
  2
ENTITIES
  0
POLYLINE
  5
70
  8
FLAT
 66
     1
 10
0.0
 20
0.0
 30
0.0
 70
     1
  0
VERTEX
  5
8E
  8
FLAT
 10
0.0
 20
10.9
 30
0.0
  0
VERTEX
  5
8F
  8
FLAT
 10
40.0
 20
10.9
 30
0.0
  0
VERTEX
  5
90
  8
FLAT
 10
40.0
 20
12.9
 30
0.0
  0
VERTEX
  5
91
  8
FLAT
 10
0.0
 20
12.9
 30
0.0
  0
SEQEND
  5
F4
  8
FLAT
  0
POLYLINE
  5
71
  8
FLAT
 66
     1
 10
0.0
 20
0.0
 30
0.0
 70
     1
  0
VERTEX
  5
92
  8
FLAT
 10
0.0
 20
17.2
 30
0.0
  0
VERTEX
  5
93
  8
FLAT
 10
40.0
 20
17.2
 30
0.0
  0
VERTEX
  5
94
  8
FLAT
 10
40.0
 20
19.2
 30
0.0
  0
VERTEX
  5
95
  8
FLAT
 10
0.0
 20
19.2
 30
0.0
  0
SEQEND
  5
F5
  8
FLAT
  0
POLYLINE
  5
72
  8
FLAT
 66
     1
 10
0.0
 20
0.0
 30
0.0
 70
     1
  0
VERTEX
  5
96
  8
FLAT
 10
0.0
 20
23.5
 30
0.0
  0
VERTEX
  5
97
  8
FLAT
 10
40.0
 20
23.5
 30
0.0
  0
VERTEX
  5
98
  8
FLAT
 10
40.0
 20
25.5
 30
0.0
  0
VERTEX
  5
99
  8
FLAT
 10
0.0
 20
25.5
 30
0.0
  0
SEQEND
  5
F6
  8
FLAT
  0
POLYLINE
  5
73
  8
FLAT
 66
     1
 10
0.0
 20
0.0
 30
0.0
 70
     1
  0
VERTEX
  5
9A
  8
FLAT
 10
0.0
 20
29.8
 30
0.0
  0
VERTEX
  5
9B
  8
FLAT
 10
40.0
 20
29.8
 30
0.0
  0
VERTEX
  5
9C
  8
FLAT
 10
40.0
 20
31.8
 30
0.0
  0
VERTEX
  5
9D
  8
FLAT
 10
0.0
 20
31.8
 30
0.0
  0
SEQEND
  5
F7
  8
FLAT
  0
POLYLINE
  5
74
  8
FLAT
 66
     1
 10
0.0
 20
0.0
 30
0.0
 70
     1
  0
VERTEX
  5
9E
  8
FLAT
 10
0.0
 20
36.09999999999999
 30
0.0
  0
VERTEX
  5
9F
  8
FLAT
 10
40.0
 20
36.09999999999999
 30
0.0
  0
VERTEX
  5
A0
  8
FLAT
 10
40.0
 20
38.09999999999999
 30
0.0
  0
VERTEX
  5
A1
  8
FLAT
 10
0.0
 20
38.09999999999999
 30
0.0
  0
SEQEND
  5
F8
  8
FLAT
  0
POLYLINE
  5
75
  8
FLAT
 66
     1
 10
0.0
 20
0.0
 30
0.0
 70
     1
  0
VERTEX
  5
A2
  8
FLAT
 10
0.0
 20
42.39999999999999
 30
0.0
  0
VERTEX
  5
A3
  8
FLAT
 10
40.0
 20
42.39999999999999
 30
0.0
  0
VERTEX
  5
A4
  8
FLAT
 10
40.0
 20
44.39999999999999
 30
0.0
  0
VERTEX
  5
A5
  8
FLAT
 10
0.0
 20
44.39999999999999
 30
0.0
  0
SEQEND
  5
F9
  8
FLAT
  0
POLYLINE
  5
76
  8
FLAT
 66
     1
 10
0.0
 20
0.0
 30
0.0
  0
VERTEX
  5
A6
  8
FLAT
 10
0.0
 20
50.7
 30
0.0
  0
VERTEX
  5
A7
  8
FLAT
 10
0.0
 20
48.7
 30
0.0
  0
SEQEND
  5
FA
  8
FLAT
  0
POLYLINE
  5
77
  8
FLAT
 66
     1
 10
0.0
 20
0.0
 30
0.0
  0
VERTEX
  5
A8
  8
FLAT
 10
34.0
 20
50.7
 30
0.0
  0
VERTEX
  5
A9
  8
FLAT
 10
6.0
 20
50.7
 30
0.0
  0
SEQEND
  5
FB
  8
FLAT
  0
POLYLINE
  5
78
  8
FLAT
 66
     1
 10
0.0
 20
0.0
 30
0.0
  0
VERTEX
  5
AA
  8
FLAT
 10
40.0
 20
48.7
 30
0.0
  0
VERTEX
  5
AB
  8
FLAT
 10
40.0
 20
50.7
 30
0.0
  0
SEQEND
  5
FC
  8
FLAT
  0
POLYLINE
  5
79
  8
FLAT
 66
     1
 10
0.0
 20
0.0
 30
0.0
  0
VERTEX
  5
AC
  8
FLAT
 10
34.48904865673043
 20
48.7
 30
0.0
  0
VERTEX
  5
AD
  8
FLAT
 10
6.0
 20
48.7
 30
0.0
  0
SEQEND
  5
FD
  8
FLAT
  0
POLYLINE
  5
7A
  8
FLAT
 66
     1
 10
0.0
 20
0.0
 30
0.0
  0
VERTEX
  5
AE
  8
FLAT
 10
0.0
 20
4.6
 30
0.0
  0
VERTEX
  5
AF
  8
FLAT
 10
0.0
 20
6.6
 30
0.0
  0
SEQEND
  5
FE
  8
FLAT
  0
POLYLINE
  5
7B
  8
FLAT
 66
     1
 10
0.0
 20
0.0
 30
0.0
  0
VERTEX
  5
B0
  8
FLAT
 10
34.80513538987024
 20
6.6
 30
0.0
  0
VERTEX
  5
B1
  8
FLAT
 10
5.194864610129898
 20
6.6
 30
0.0
  0
SEQEND
  5
FF
  8
FLAT
  0
POLYLINE
  5
7C
  8
FLAT
 66
     1
 10
0.0
 20
0.0
 30
0.0
  0
VERTEX
  5
B2
  8
FLAT
 10
40.0
 20
4.6
 30
0.0
  0
VERTEX
  5
B3
  8
FLAT
 10
40.0
 20
6.6
 30
0.0
  0
SEQEND
  5
100
  8
FLAT
  0
POLYLINE
  5
7D
  8
FLAT
 66
     1
 10
0.0
 20
0.0
 30
0.0
  0
VERTEX
  5
B4
  8
FLAT
 10
34.0
 20
4.6
 30
0.0
  0
VERTEX
  5
B5
  8
FLAT
 10
6.0
 20
4.6
 30
0.0
  0
SEQEND
  5
101
  8
FLAT
  0
POLYLINE
  5
7E
  8
FLAT
 66
     1
 10
0.0
 20
0.0
 30
0.0
  0
VERTEX
  5
B6
  8
FLAT
 10
5.196702555937632
 20
6.602469358881797
 30
0.0
  0
VERTEX
  5
B7
  8
FLAT
 10
5.066422967619904
 20
6.691972497343269
 30
0.0
  0
VERTEX
  5
B8
  8
FLAT
 10
4.92936375196802
 20
6.770999144990526
 30
0.0
  0
VERTEX
  5
B9
  8
FLAT
 10
4.786156403909849
 20
6.839100146041863
 30
0.0
  0
VERTEX
  5
BA
  8
FLAT
 10
4.637432418373256
 20
6.895826344715574
 30
0.0
  0
VERTEX
  5
BB
  8
FLAT
 10
4.483823290286109
 20
6.94072858522995
 30
0.0
  0
VERTEX
  5
BC
  8
FLAT
 10
4.325960514576273
 20
6.973357711803285
 30
0.0
  0
VERTEX
  5
BD
  8
FLAT
 10
4.164475586171614
 20
6.993264568653871
 30
0.0
  0
VERTEX
  5
BE
  8
FLAT
 10
4.0
 20
7.0
 30
0.0
  0
SEQEND
  5
102
  8
FLAT
  0
POLYLINE
  5
7F
  8
FLAT
 66
     1
 10
0.0
 20
0.0
 30
0.0
  0
VERTEX
  5
BF
  8
FLAT
 10
34.80333851957065
 20
6.602505731011401
 30
0.0
  0
VERTEX
  5
C0
  8
FLAT
 10
34.93306537469473
 20
6.691697041527076
 30
0.0
  0
VERTEX
  5
C1
  8
FLAT
 10
35.06966241677032
 20
6.77057393426424
 30
0.0
  0
VERTEX
  5
C2
  8
FLAT
 10
35.21253109945447
 20
6.838650114270418
 30
0.0
  0
VERTEX
  5
C3
  8
FLAT
 10
35.36107287640421
 20
6.89543928659314
 30
0.0
  0
VERTEX
  5
C4
  8
FLAT
 10
35.51468920127659
 20
6.940455156279931
 30
0.0
  0
VERTEX
  5
C5
  8
FLAT
 10
35.67278152772865
 20
6.973211428378321
 30
0.0
  0
VERTEX
  5
C6
  8
FLAT
 10
35.83475130941744
 20
6.993221807935835
 30
0.0
  0
VERTEX
  5
C7
  8
FLAT
 10
36.0
 20
7.0
 30
0.0
  0
SEQEND
  5
103
  8
FLAT
  0
POLYLINE
  5
80
  8
FLAT
 66
     1
 10
0.0
 20
0.0
 30
0.0
  0
VERTEX
  5
C8
  8
FLAT
 10
6.0
 20
4.6
 30
0.0
  0
VERTEX
  5
C9
  8
FLAT
 10
6.0
 20
0.0
 30
0.0
  0
VERTEX
  5
CA
  8
FLAT
 10
3.0
 20
0.0
 30
0.0
 42
-0.4142135623730958
  0
VERTEX
  5
CB
  8
FLAT
 10
0.0
 20
3.0
 30
0.0
  0
VERTEX
  5
CC
  8
FLAT
 10
0.0
 20
7.0
 30
0.0
  0
VERTEX
  5
CD
  8
FLAT
 10
4.000000000000029
 20
7.0
 30
0.0
  0
SEQEND
  5
104
  8
FLAT
  0
POLYLINE
  5
81
  8
FLAT
 66
     1
 10
0.0
 20
0.0
 30
0.0
  0
VERTEX
  5
CE
  8
FLAT
 10
34.0
 20
4.6
 30
0.0
  0
VERTEX
  5
CF
  8
FLAT
 10
34.0
 20
0.0
 30
0.0
  0
VERTEX
  5
D0
  8
FLAT
 10
37.0
 20
0.0
 30
0.0
 42
0.4142135623730958
  0
VERTEX
  5
D1
  8
FLAT
 10
40.0
 20
3.0
 30
0.0
  0
VERTEX
  5
D2
  8
FLAT
 10
40.0
 20
7.0
 30
0.0
  0
VERTEX
  5
D3
  8
FLAT
 10
35.99999999999977
 20
7.0
 30
0.0
  0
SEQEND
  5
105
  8
FLAT
  0
POLYLINE
  5
82
  8
FLAT
 66
     1
 10
0.0
 20
0.0
 30
0.0
  0
VERTEX
  5
D4
  8
FLAT
 10
34.47552749908879
 20
48.70526663622273
 30
0.0
  0
VERTEX
  5
D5
  8
FLAT
 10
34.62215522652537
 20
48.55031891822142
 30
0.0
  0
VERTEX
  5
D6
  8
FLAT
 10
34.78424150014827
 20
48.41191939696027
 30
0.0
  0
VERTEX
  5
D7
  8
FLAT
 10
34.96033295188965
 20
48.2913353152797
 30
0.0
  0
VERTEX
  5
D8
  8
FLAT
 10
35.14897621368171
 20
48.18983391602011
 30
0.0
  0
VERTEX
  5
D9
  8
FLAT
 10
35.3487179174566
 20
48.10868244202193
 30
0.0
  0
VERTEX
  5
DA
  8
FLAT
 10
35.5581046951465
 20
48.04914813612558
 30
0.0
  0
VERTEX
  5
DB
  8
FLAT
 10
35.77568317868357
 20
48.01249824117146
 30
0.0
  0
VERTEX
  5
DC
  8
FLAT
 10
36.0
 20
48.0
 30
0.0
  0
SEQEND
  5
106
  8
FLAT
  0
POLYLINE
  5
83
  8
FLAT
 66
     1
 10
0.0
 20
0.0
 30
0.0
  0
VERTEX
  5
DD
  8
FLAT
 10
34.0
 20
50.7
 30
0.0
  0
VERTEX
  5
DE
  8
FLAT
 10
34.0
 20
55.0
 30
0.0
  0
VERTEX
  5
DF
  8
FLAT
 10
37.0
 20
55.0
 30
0.0
 42
-0.4142135623730958
  0
VERTEX
  5
E0
  8
FLAT
 10
40.0
 20
52.0
 30
0.0
  0
VERTEX
  5
E1
  8
FLAT
 10
40.0
 20
48.0
 30
0.0
  0
VERTEX
  5
E2
  8
FLAT
 10
35.99999999999864
 20
48.0
 30
0.0
  0
SEQEND
  5
107
  8
FLAT
  0
POLYLINE
  5
84
  8
FLAT
 66
     1
 10
0.0
 20
0.0
 30
0.0
  0
VERTEX
  5
E3
  8
FLAT
 10
5.999999999999988
 20
48.69999999999999
 30
0.0
  0
VERTEX
  5
E4
  8
FLAT
 10
5.519859133666828
 20
48.69999999999999
 30
0.0
  0
SEQEND
  5
108
  8
FLAT
  0
POLYLINE
  5
85
  8
FLAT
 66
     1
 10
0.0
 20
0.0
 30
0.0
  0
VERTEX
  5
E5
  8
FLAT
 10
5.519880248077591
 20
48.69989844949712
 30
0.0
  0
VERTEX
  5
E6
  8
FLAT
 10
5.371435953096636
 20
48.54420181072434
 30
0.0
  0
VERTEX
  5
E7
  8
FLAT
 10
5.207910992288292
 20
48.40595059914057
 30
0.0
  0
VERTEX
  5
E8
  8
FLAT
 10
5.030911307705006
 20
48.28616629152069
 30
0.0
  0
VERTEX
  5
E9
  8
FLAT
 10
4.842042841399221
 20
48.18587036463957
 30
0.0
  0
VERTEX
  5
EA
  8
FLAT
 10
4.642911535423382
 20
48.10608429527206
 30
0.0
  0
VERTEX
  5
EB
  8
FLAT
 10
4.435123331829937
 20
48.04782956019305
 30
0.0
  0
VERTEX
  5
EC
  8
FLAT
 10
4.220284172671327
 20
48.01212763617741
 30
0.0
  0
VERTEX
  5
ED
  8
FLAT
 10
4.0
 20
48.0
 30
0.0
  0
SEQEND
  5
109
  8
FLAT
  0
POLYLINE
  5
86
  8
FLAT
 66
     1
 10
0.0
 20
0.0
 30
0.0
  0
VERTEX
  5
EE
  8
FLAT
 10
6.0
 20
50.7
 30
0.0
  0
VERTEX
  5
EF
  8
FLAT
 10
6.0
 20
55.0
 30
0.0
  0
VERTEX
  5
F0
  8
FLAT
 10
3.000000000000003
 20
55.0
 30
0.0
 42
0.4142135623730958
  0
VERTEX
  5
F1
  8
FLAT
 10
0.0
 20
52.0
 30
0.0
  0
VERTEX
  5
F2
  8
FLAT
 10
0.0
 20
48.0
 30
0.0
  0
VERTEX
  5
F3
  8
FLAT
 10
4.0
 20
48.0
 30
0.0
  0
SEQEND
  5
10A
  8
FLAT
  0
ENDSEC
  0
EOF
