**ABCDEFGHIJKLMNOPQRSTUVWXYZabcdefghijklmnopqrstuvwxyz**************************
**PARASOLID !"#$%&'()*+,-./:;<=>?@[\]^_`{|}~0123456789**************************
**PART1;
MC=AMD64;
MC_MODEL=Intel64 Family 6 Model 158 Stepping 9, GenuineIntel;
MC_ID=unknown;
OS=Windows_NT;
OS_RELEASE=unknown;
FRU=Parasolid Version 33.1, build 247,  8- 6-2021;
APPL=SOLIDWORKS 2022-2021255;
SITE=;
USER=unknown;
FORMAT=text;
GUISE=transmit;
KEY=FILENID65_Pin.x_t;
DATE=Sat Apr 16 17:48:54 2022;
**PART2;
SCH=SCH_3301247_33103;
USFLD_SIZE=0;
**PART3;
**END_OF_HEADER*****************************************************************
T51 : TRANSMIT FILE created by modeller version 330124723 SCH_3301247_33103_1300
6230 0 10 21 CCCCI7 lattice222 0 CCCI4 mesh1006 0 I8 polyline1008 0 CCCCCCCCCCA1
6 mesh_offset_data206 0 Z1 5 2 3 0 0 0 0 0 0 0 0 1e3 1e-8 0 0 0 1 0 1 4 0 81 255
 2 2 5 5 1 0 0 0 0 0 0 70 11 CI9 list_type0 0 1 uI10 notransmit0 0 1 lCCCDCCDI12
 finger_index0 0 1 dI12 finger_block1012 0 CZ3 0 4 T1 0 0 1 20 1 6 6 11 255 4 3
 0 1 7 8 1 9 0 0 0 12 35 CCCI7 lattice222 0 CCCI4 mesh1006 0 I8 polyline1008 0 C
CCCCCCDI5 owner1040 0 CCCCCCI13 boundary_mesh1006 0 I17 boundary_polyline1008 0
 CCCA16 index_map_offset0 0 1 dA9 index_map82 0 A17 node_id_index_map82 0 A20 sc
hema_embedding_map82 0 A5 child12 0 A14 lowest_node_id0 0 1 dA16 mesh_offset_dat
a206 0 Z7 3547 10 11 0 0 0 0 0 0 0 1e3 1e-8 4 12 0 1 0 1 1 13 14 15 16 0 0 17 18
 19 0 0 0 0 0 0 0 100 10 CCCCCCCCCA9 precision229 0 Z8 4 4 0 0 1 0 0 0 1 0 0 0 1
 0 0 0 1 0 ?0 11 9 1 0 1 12 20 1 0 4 0 0 12 12 1518 21 22 0 0 0 0 0 0 0 1e3 1e-8
 9 23 7 1 0 1 1 24 25 26 27 0 0 28 29 30 0 0 0 0 0 0 0 100 20 2 9 0 0 1 0 0 0 1
 0 0 0 1 0 0 0 1 0 ?0 81 1 21 1518 31 12 32 0 0 0 0 70 22 0 4 T12 0 0 6 20 1 33
 33 13 255 24 92 0 12 0 34 0 0 35 0 50 255 25 106 0 36 37 0 0 +.0015800001627434
05 .001719649909266305 -4095e-7 -1 0 0 0 0 -1 30 255 26 162 0 38 39 0 0 +.000940
000448466309 -.026473278661799 -.0062 0 1 0 29 255 27 128 0 40 41 0 .00158000016
2743405 .001714899909266305 -.00576794212488841 19 8 CCCCCCCA5 owner12 0 Z28 1 0
 12 35 0 42 V0 16 255 29 71 43 ?44 0 45 46 0 0 12 18 255 30 48 47 48 0 49 50 ?12
 81 1 47 228 51 30 0 0 52 53 54 17 255 48 0 55 56 57 30 58 45 0 59 -18 49 46 60
 44 30 61 62 ?12 29 50 118 0 30 63 64 .001580000162743405 .00161323393573551 -.0
062 29 63 115 0 65 62 50 .000940000448466309 .001714899909266305 -.0057679421248
8841 29 64 126 0 66 50 41 .000940000448466309 .001114899909274894 -.005792742259
84129 18 66 9 53 67 68 69 64 ?12 29 41 127 0 70 64 27 .000940000448466309 .00118
6765593588004 -.0062 18 70 26 71 72 61 40 41 ?12 81 1 71 237 51 70 0 0 53 73 74
 17 72 0 55 57 56 70 44 29 0 75 -18 61 41 76 58 49 70 77 ?12 18 40 17 73 78 70 6
5 27 ?12 81 1 73 238 51 40 0 0 71 32 79 17 78 0 80 81 82 40 83 84 0 85 +18 65 16
 52 86 40 68 63 ?12 81 1 52 225 51 65 0 0 60 47 87 17 86 0 88 89 90 65 91 92 0 9
3 +18 68 11 94 95 65 66 96 ?12 81 1 94 217 51 68 0 0 97 76 98 17 95 0 99 100 101
 68 102 103 0 104 +29 96 107 0 68 105 77 .001580000162743405 .001114899909274894
 -.00579274225984129 29 105 1171 0 106 107 96 .001580000162743405 .0011148998827
15782 .001367942124888406 29 77 113 0 61 96 62 .000940000448466309 .001613233935
73551 -.0062 29 62 114 0 49 77 63 .001580000162743405 .001186765593588004 -.0062
 18 106 1072 108 102 109 110 105 ?12 29 107 1172 0 109 111 105 .0009400004484663
09 .00164303419839408 .0018 18 109 1062 112 113 114 106 107 ?12 29 111 1173 0 11
5 116 107 .000940000448466309 .001714899882707195 .001392742259841292 18 115 107
4 117 91 118 0 111 ?12 29 116 1174 0 69 119 111 .001580000162743405 .00121656585
6246578 .0018 18 69 1060 120 121 66 122 116 ?12 29 119 1175 0 110 123 116 .00094
0000448466309 .001114899882715782 .001367942124888406 18 110 1070 124 125 106 11
8 119 ?12 29 123 1176 0 122 126 119 .001580000162743405 .00164303419839408 .0018
 18 122 1058 127 128 69 114 123 ?12 29 126 1177 0 114 129 123 .00094000044846630
9 .001216565856246578 .0018 18 114 1064 130 131 122 109 126 ?12 29 129 1178 0 11
8 0 126 .001580000162743405 .001714899882707195 .001392742259841292 18 118 1067
 132 83 110 115 129 ?12 81 1 132 1068 51 118 0 0 130 124 133 17 83 0 99 134 85 1
18 78 84 0 135 -15 255 99 44 0 95 36 0 17 134 0 99 136 83 122 135 137 0 0 -17 85
 0 99 83 138 40 59 139 0 140 -16 84 718 141 ?78 142 92 143 0 0 12 17 135 0 144 1
45 128 118 134 137 0 82 +15 144 1104 0 146 147 0 17 145 0 144 146 135 115 82 148
 0 0 +17 128 0 144 135 146 122 113 149 0 150 +16 137 1020 151 ?135 152 153 154 0
 0 12 17 82 0 80 78 91 118 145 148 0 0 -15 80 14 0 78 155 0 17 91 0 80 82 81 115
 86 92 0 90 -16 148 1023 156 ?145 157 0 158 0 0 12 81 1 156 1025 51 148 0 0 151
 159 160 16 157 1035 161 ?162 163 148 164 0 0 12 30 158 1150 0 148 165 166 0 +.0
01244893162747902 .001714899882707195 .001392742259841292 -1 0 0 30 165 1151 0 1
67 164 158 0 +.000940000448466309 -.0003256490849788625 -.004754072 0 -.22905064
1732297 -.973414507556787 30 166 1149 0 153 158 168 0 +.000940000448466309 .0293
030784537811 .001800000000000195 0 -1 -698296267768627e-29 16 153 1029 169 ?170
 137 167 166 0 0 12 30 168 134 0 45 166 46 0 +.001244893162747902 .0016132339357
3551 -.0062 -1 0 0 16 45 65 171 ?58 29 139 168 0 0 12 30 46 136 0 29 168 172 0 +
.001244893162747902 .001186765593588004 -.0062 1 0 0 30 172 137 0 173 46 143 0 +
.000940000448466309 .001114899909274894 -4095e-7 0 0 -1 16 173 696 174 ?67 175 1
49 172 0 0 12 30 143 140 0 84 172 176 0 +.001580000162743405 .001714899909266305
 -4095e-7 0 0 -1 30 176 142 0 177 143 178 0 +.001580000162743405 -.0264732786617
99 -.0062 0 -1 0 16 177 47 179 ?56 139 180 176 0 0 12 30 178 144 0 92 176 181 0
 +.000940000448466309 .001714899909266305 -4095e-7 0 0 -1 16 92 713 182 ?86 84 1
83 178 0 0 12 30 181 146 0 103 178 184 0 +.001580000162743405 .00111489990927489
4 -4095e-7 0 0 -1 16 103 701 185 ?95 183 175 181 0 0 12 30 184 151 0 142 181 186
 0 +.000940000448466309 3021822107168725e-20 354072e-9 0 .17377752801135 -.98478
4936297395 16 142 25 187 ?188 189 84 184 0 0 12 30 186 154 0 180 184 190 0 +.001
580000162743405 3021822107168725e-20 354072e-9 0 -.17377752801135 .9847849362973
95 16 180 45 191 ?104 177 38 186 0 0 12 30 190 156 0 139 186 192 0 +.00158000016
2743405 .003155448876960995 354072e-9 0 -.229050641732304 -.973414507556786 16 1
39 49 193 ?59 45 177 190 0 0 12 30 192 157 0 183 190 194 0 +.001244893162747902
 .001714899909266305 -.00576794212488841 1 0 0 16 183 15 195 ?140 92 103 192 0 0
 12 30 194 159 0 189 192 39 0 +.000940000448466309 .003155448876960995 354072e-9
 0 .229050641732304 .973414507556786 16 189 40 196 ?93 38 142 194 0 0 12 30 39 1
61 0 175 194 26 0 +.001244893162747902 .001114899909274894 -.00579274225984129 -
1 0 0 16 175 10 197 ?198 103 173 39 0 0 12 81 1 197 197 51 175 0 0 196 199 200 1
7 198 0 201 188 104 66 202 175 0 0 +15 201 73 0 188 34 0 17 188 0 201 44 198 70
 203 142 0 0 +17 104 0 201 198 44 68 100 180 0 202 +17 202 0 204 102 67 68 198 1
75 0 0 -15 204 4 0 67 205 0 17 102 0 204 206 202 106 95 103 0 101 -17 67 0 204 2
02 206 66 125 173 0 203 +17 206 0 204 67 102 110 162 157 0 0 -17 125 0 88 207 20
3 110 67 173 0 208 -17 203 0 88 125 75 66 188 142 0 198 -15 88 24 0 86 209 0 17
 75 0 88 203 89 70 57 38 0 188 -17 89 0 88 75 86 61 93 189 0 0 -17 57 0 55 48 72
 61 75 38 0 89 +16 38 42 199 ?57 180 189 26 0 0 12 81 1 199 198 51 38 0 0 197 21
0 211 80 255 1 51 212 213 9000 0 0 0 0 3 6 0 0 0 TTTFTFTTTFFFFF3 81 1 210 208 51
 214 0 215 199 216 217 84 255 6 211 15084014 255 214 63 218 ?36 219 220 24 221 +
0 0 36 219 42 81 1 215 1474 222 214 210 218 223 224 225 81 1 216 209 51 219 0 22
3 210 226 227 84 6 217 15277014 219 69 228 ?214 34 55 24 229 -0 0 214 34 42 81 1
 223 1473 222 219 216 228 230 215 231 81 1 226 210 51 205 0 232 216 233 234 84 6
 227 15110014 205 3 235 ?147 155 204 24 236 -0 0 147 155 42 81 1 232 1209 51 205
 226 237 238 239 240 81 1 233 211 51 209 0 241 226 242 243 84 6 234 15172014 209
 23 244 ?155 36 88 24 245 -0 0 155 36 42 81 1 241 1476 222 209 233 244 224 246 2
47 81 1 242 212 51 34 0 230 233 248 249 84 6 243 15234014 34 72 250 ?219 0 201 2
4 251 +0 0 219 0 42 81 1 230 1472 222 34 242 250 0 223 252 81 1 248 215 51 155 0
 239 242 97 253 84 6 249 15141014 155 13 254 ?205 209 80 24 37 -0 0 205 209 42 8
1 1 239 1211 51 155 248 246 232 174 255 81 1 97 216 51 36 0 224 248 94 256 84 6
 253 15203014 36 43 257 ?209 214 99 24 25 -0 0 209 214 42 81 1 224 1475 222 36 9
7 257 215 241 258 84 6 256 15265080 1 222 0 259 8001 0 0 0 0 3 5 0 0 0 FFFFTFTFF
FFFFF2 81 1 257 1514 260 36 224 0 254 261 262 83 255 3 258 .6 .6 .6 80 1 260 263
 264 9000 1 1 1 1 1 1 1 1 0 FFFFTFTFFFFFFF1 81 1 254 1513 260 155 246 0 250 257
 265 81 1 261 1515 260 147 266 0 257 267 268 82 255 1 262 -1075903810 14 147 110
0 261 ?269 205 144 24 270 +0 0 269 205 42 81 1 266 1479 222 147 271 261 237 272
 273 81 1 267 1516 260 269 272 0 261 274 275 82 1 268 -1090649410 14 269 1105 26
7 ?276 147 277 24 278 -0 0 276 147 42 81 1 272 1480 222 269 279 267 266 280 281
 81 1 274 1517 260 276 280 0 267 0 282 82 1 275 -1091239234 14 276 1110 274 ?0 2
69 283 24 284 +0 0 0 269 42 81 1 280 1481 222 276 238 274 272 0 285 82 1 282 -10
91435842 81 1 238 1113 51 276 0 280 279 232 286 83 3 285 .6 .6 .6 81 1 279 1108
 51 269 0 272 271 238 287 84 6 286 15277081 1 271 1103 51 147 0 266 117 279 288
 84 6 287 15110081 1 117 1075 51 115 0 0 108 271 289 84 6 288 15141081 1 108 107
3 51 106 0 0 124 117 290 84 6 289 15123081 1 124 1071 51 110 0 0 132 108 291 84
 6 290 15183084 6 291 15192015 283 1114 0 208 276 0 50 284 1146 0 276 0 278 0 +.
000957607448466312 .001114899882715782 .001367942124888406 0 -.973414507556787 .
229050641732297 0 -.229050641732297 -.973414507556787 13 42 2 0 0 0 0 0 0 28 34
 50 278 1145 0 269 284 270 0 +.001244893162747902 .000626328454169186 .0018 0 69
8296267768627e-29 -1 0 1 698296267768627e-29 50 270 1142 0 147 278 221 0 +.00095
7607448466312 .00164303419839408 .0018 0 .984784936297394 .173777528011357 -1 0
 0 50 221 98 0 214 270 229 0 +.000957607448466312 .001714899909266305 -.00576794
212488841 0 .973414507556786 -.229050641732304 0 .229050641732304 .9734145075567
86 50 229 99 0 219 221 236 0 +.001244893162747902 .0022034713378129 -.0062 0 0 1
 0 -1 0 50 236 100 0 205 229 245 0 +.00156239316274341 .001114899909274894 -4095
e-7 0 1 0 0 0 1 50 245 101 0 209 236 251 0 +.000940000448466309 .001114899909274
894 -4095e-7 1 0 0 0 -1 0 50 251 102 0 34 245 37 0 +.000957607448466312 .0011867
65593588004 -.0062 0 -.984784936297395 -.17377752801135 -1 0 0 50 37 105 0 155 2
51 25 0 +.000957607448466312 .001714899909266305 -4095e-7 0 -1 0 1 0 0 17 208 0
 283 162 131 110 207 167 0 206 +17 162 0 283 292 208 106 206 157 0 0 +17 131 0 2
83 208 292 114 121 293 0 170 +17 207 0 88 294 125 114 208 167 0 0 -16 167 1032 2
95 ?208 153 163 165 0 0 12 81 1 295 1034 51 167 0 0 169 161 296 16 163 1014 297
 ?146 167 157 298 0 0 12 81 1 297 1016 51 163 0 0 299 300 301 17 146 0 144 128 1
45 109 90 163 0 0 +30 298 1155 0 163 302 154 0 +.000940000448466309 .00279958157
0910445 -.004754072 0 -.173777528011357 .984784936297394 30 302 1158 0 152 303 2
98 0 +.001580000162743405 .0293030784537811 .001800000000000195 0 1 698296267768
627e-29 30 154 1154 0 137 298 304 0 +.001580000162743405 .002799581570910445 -.0
04754072 0 .173777528011357 -.984784936297394 30 304 1153 0 305 154 164 0 +.0015
80000162743405 -.0003256490849788625 -.004754072 0 .229050641732297 .97341450755
6787 16 305 1038 306 ?292 293 152 304 0 0 12 30 164 1152 0 157 304 165 0 +.00124
4893162747902 .001114899882715782 .001367942124888406 1 0 0 81 1 306 1040 51 305
 0 0 161 307 308 17 292 0 283 131 162 69 101 305 0 136 +16 293 1041 307 ?131 149
 305 309 0 0 12 16 152 1026 159 ?150 305 137 302 0 0 12 81 1 159 1028 51 152 0 0
 156 169 310 17 150 0 277 113 121 122 136 152 0 134 +15 277 1109 0 121 269 0 17
 113 0 277 170 150 109 128 149 0 294 -17 121 0 277 150 170 69 131 293 0 292 -17
 136 0 99 101 134 69 150 152 0 0 -17 101 0 99 95 136 106 292 305 0 162 -17 170 0
 277 121 113 114 294 153 0 207 +17 294 0 88 90 207 109 170 153 0 146 -17 90 0 88
 86 294 115 146 163 0 145 -16 149 1017 300 ?128 173 293 303 0 0 12 81 1 300 1019
 51 149 0 0 297 151 311 30 303 1161 0 149 309 302 0 +.001244893162747902 .001643
03419839408 .0018 1 0 0 30 309 1162 0 293 0 303 0 +.001244893162747902 .00121656
5856246578 .0018 -1 0 0 81 1 151 1022 51 137 0 0 300 156 312 84 6 311 15092084 6
 312 15130081 1 169 1031 51 153 0 0 159 295 313 84 6 310 15100084 6 313 15084081
 1 307 1043 51 293 0 0 306 127 314 81 1 127 1059 51 122 0 0 307 120 315 84 6 314
 15106081 1 120 1061 51 69 0 0 127 112 316 84 6 315 15091081 1 112 1063 51 109 0
 0 120 130 317 84 6 316 15099081 1 130 1065 51 114 0 0 112 132 318 84 6 317 1508
1084 6 318 15083081 1 161 1037 51 157 0 0 295 306 319 84 6 308 15259084 6 319 15
199081 1 299 720 51 84 0 141 320 297 321 84 6 301 15137081 1 141 1216 51 84 299
 0 185 182 322 81 1 320 715 51 92 0 182 323 299 324 84 6 321 15184081 1 182 1217
 51 92 320 0 141 0 325 81 1 323 703 51 103 0 185 326 320 327 84 6 324 15193081 1
 185 1215 51 103 323 0 174 141 328 81 1 326 698 51 173 0 174 32 323 329 84 6 327
 15153081 1 174 1214 51 173 326 0 239 185 330 81 1 32 294 51 12 331 21 73 326 33
2 84 6 329 15162081 1 331 293 333 12 334 32 0 0 335 84 6 332 15291080 1 333 51 3
36 9000 0 0 0 0 3 5 0 0 0 TFTFTFTFFFFFFF3 81 1 334 255 337 12 0 331 0 0 338 84 1
7 335 JS11201.1.1.1.1.180 1 337 222 339 8040 0 0 0 0 3 5 0 0 0 TTTFFFFFFFFFFF2 8
3 3 338 .600000023841858 .600000023841858 .600000023841858 79 255 17 339 SDL/TYS
A_COLOUR_279 22 336 ATTRIB_XPARASOLID_NAME84 6 330 15193084 6 328 15184084 6 325
 15162084 6 322 15153084 6 296 15214083 3 281 .6 .6 .6 81 1 237 1478 222 205 232
 235 246 266 340 83 3 273 .6 .6 .6 81 1 235 1510 260 205 237 0 228 244 341 81 1
 246 1477 222 155 239 254 241 237 342 83 3 340 .6 .6 .6 83 3 342 .6 .6 .6 81 1 2
28 1509 260 219 223 0 218 235 343 81 1 244 1511 260 209 241 0 235 250 344 82 1 3
41 -1076690242 81 1 250 1512 260 34 230 0 244 254 345 82 1 344 -1076493634 82 1
 345 -1121713476 81 1 218 1508 260 214 215 0 0 228 346 82 1 343 -1122303300 82 1
 346 -1122499908 82 1 265 -1076100418 79 14 264 SWEntUnchanged79 15 259 SDL/TYSA
_COLOUR84 6 255 15172083 3 252 .6 .6 .6 83 3 247 .6 .6 .6 84 6 240 15203083 3 23
1 .6 .6 .6 15 55 70 0 48 219 0 83 3 225 .6 .6 .6 15 220 64 0 93 214 0 17 93 0 22
0 140 58 65 89 189 0 81 +17 140 0 220 59 93 40 81 183 0 0 +17 58 0 220 93 59 61
 48 45 0 57 +17 81 0 80 91 78 65 140 183 0 0 -17 59 0 220 58 140 30 85 139 0 138
 +17 138 0 99 85 100 30 56 177 0 0 -17 100 0 99 138 95 49 104 180 0 0 -17 56 0 5
5 72 48 49 138 177 0 100 +79 20 213 ATTRIB_XPARASOLID_ID17 44 0 201 104 188 49 7
2 29 0 56 +81 1 196 195 51 189 0 0 195 197 347 84 6 200 15124081 1 195 193 51 18
3 0 0 193 196 348 84 6 347 15214081 1 193 192 51 139 0 0 191 195 349 84 6 348 15
199081 1 191 190 51 180 0 0 187 193 350 84 6 349 15259081 1 187 187 51 142 0 0 1
79 191 351 84 6 350 15130081 1 179 178 51 177 0 0 43 187 352 84 6 351 15137081 1
 43 172 51 29 0 0 171 179 353 84 6 352 15100081 1 171 170 51 45 0 0 0 43 354 84
 6 353 15092084 6 354 15106084 6 160 15124084 6 133 15121081 1 76 223 51 61 0 0
 94 60 355 84 6 98 15121081 1 60 224 51 49 0 0 76 52 356 84 6 355 15083084 6 356
 15091084 6 87 15192084 6 79 15183081 1 53 236 51 66 0 0 47 71 357 84 6 74 15081
084 6 357 15123084 6 54 15099019 35 91 0 12 0 28 24 S0 74 4 CI16 index_map_offse
t0 0 1 dCCZ20 33 6 0 0 182 334 331 274 280 21 0 0 0 0 0 0 0 0 0 0 0 0 0 0 80 1 3
1 358 359 8017 0 0 0 0 0 0 0 0 0 TTTTTTTTTTTTTF3 79 13 359 SDL/TYSA_NAME81 1 10
 3547 31 7 360 0 0 0 0 70 11 0 4 T7 0 0 6 20 1 361 361 13 13 552 0 7 0 362 0 0 3
63 0 50 14 623 0 364 365 0 0 +-.013930553122608 .020864971337567 -.00354 0 0 1 -
1 0 0 30 15 1004 0 366 367 0 0 +.0024090540200178 .002198685623545605 -.001 0 0
 -1 29 16 781 0 368 369 0 .0009400004484659 .001114899909275302 -.00354 19 17 1
 0 7 363 0 370 V0 16 18 394 371 ?372 0 373 374 0 0 7 18 19 389 375 376 0 377 378
 ?7 81 1 375 1388 51 19 0 0 379 380 381 17 376 0 382 383 384 19 372 18 0 385 -18
 377 387 386 387 19 388 389 ?7 29 378 702 0 19 390 391 .001580000162743 .0011148
99909275302 -.00354 29 390 681 0 392 393 378 .001925232591453205 .00268250705211
02 -.00354 29 391 718 0 394 378 395 .001925232591453205 .000142507052146197 -.00
354 18 394 268 380 396 397 398 391 ?7 29 395 729 0 398 391 399 .0005645183057582
1 .000142507052146197 -.001 18 398 263 400 401 394 402 395 ?7 29 399 735 0 403 3
95 404 .001925232591453205 .0026825070521102 -.001 18 403 165 405 406 407 392 39
9 ?7 29 404 736 0 402 399 408 .00056451830575821 .000142507052146197 -.00354 18
 402 261 409 410 398 411 404 ?7 29 408 737 0 397 404 389 .001925232591453205 .00
0142507052146197 -.001 18 397 270 412 413 414 394 408 ?7 29 389 746 0 377 408 41
5 .001580000162743 .001114899909275302 -.001 29 415 758 0 416 389 417 .001580000
162743 .001714899909266695 -.001 18 416 380 418 419 388 420 415 ?7 29 417 760 0
 411 415 421 8073259147931e-17 .002198685623545605 -.001 18 411 179 422 423 402
 424 417 ?7 29 421 765 0 407 417 425 .00056451830575821 .0026825070521102 -.0035
4 18 407 170 426 427 424 403 421 ?7 29 425 767 0 424 421 369 .00056451830575821
 .0026825070521102 -.001 18 424 172 428 429 411 407 425 ?7 29 369 770 0 430 425
 16 .0009400004484659 .001114899909275302 -.001 18 430 371 431 432 368 414 369 ?
7 81 1 431 1456 51 430 0 0 428 433 434 17 432 0 435 436 437 430 387 373 0 438 -1
8 368 373 433 372 420 430 16 ?7 18 414 370 439 440 430 397 393 ?7 81 1 439 1365
 51 414 0 0 441 379 442 17 440 0 443 444 445 414 446 447 0 448 +29 393 679 0 414
 449 390 .0009400004484659 .001714899909266695 -.001 29 449 667 0 450 451 393 .0
024090540200178 .002198685623545605 -.00354 18 450 156 441 452 392 453 449 ?7 29
 451 661 0 388 454 449 .001580000162743 .001714899909266695 -.00354 18 388 382 4
55 383 377 416 451 ?7 29 454 648 0 420 456 451 .0009400004484659 .00171489990926
6695 -.00354 18 420 375 457 458 416 368 454 ?7 29 456 3220 0 453 459 454 8073259
147931e-17 .0006565427664246 -.00354 18 453 2918 460 461 450 462 456 ?7 29 459 3
221 0 462 463 456 8073259147931e-17 .002198685623545605 -.00354 18 462 2919 464
 465 453 466 459 ?7 29 463 3222 0 466 467 459 .0024090540200178 .000656542766424
653 -.00354 18 466 2963 468 469 462 470 463 ?7 29 467 3288 0 470 471 463 .002409
0540200178 .0006565427664246 -.001 18 470 2921 472 473 466 474 467 ?7 29 471 328
9 0 474 475 467 .0024090540200178 .002198685623545605 -.001 18 474 2965 476 477
 470 478 471 ?7 29 475 3290 0 478 0 471 8073259147931e-17 .0006565427664246 -.00
1 18 478 2974 479 480 474 0 475 ?7 81 1 479 3428 51 478 0 0 460 0 481 17 480 0 4
82 423 461 478 483 484 0 485 -15 482 3010 0 480 486 0 17 423 0 482 465 480 411 4
85 487 0 488 -17 461 0 482 480 465 453 489 490 0 491 +17 483 0 492 493 494 453 4
80 484 0 0 +16 484 255 495 ?483 496 497 498 0 0 7 17 485 0 499 500 488 478 423 4
87 0 494 +15 499 2763 0 501 362 435 17 500 0 499 502 485 398 494 503 0 504 -17 4
88 0 499 485 505 411 429 497 0 506 +16 487 2770 0 ?485 507 0 508 0 0 7 17 494 0
 492 483 504 478 500 503 0 0 +15 492 259 0 483 509 0 17 504 0 492 494 493 398 51
0 511 0 0 -16 503 264 512 ?494 513 511 514 0 0 7 81 1 512 1019 51 503 0 0 0 515
 516 16 513 267 517 ?410 518 503 519 0 0 7 16 511 262 520 ?510 503 496 521 0 0 7
 30 514 791 0 503 522 523 0 +.00056451830575821 .000142507052146197 -.001 -.6853
55229855194 .728208904717688 0 30 522 3125 0 490 524 514 0 +8073259147931e-17 .0
20864971337567 -.00354 0 -1 0 30 523 793 0 525 514 519 0 +.001580000162743 .0208
64971337567 -.001 0 1 0 16 525 386 515 ?419 526 527 523 0 0 7 30 519 797 0 513 5
23 528 0 +.001925232591453205 .000142507052146197 -.00354 -1 0 0 30 528 808 0 52
9 519 530 0 +.0009400004484659 .001114899909275302 -.001 0 0 1 16 529 372 531 ?4
38 532 533 528 0 0 7 30 530 809 0 497 528 534 0 +.00056451830575821 .00268250705
21102 -.001 -.707080681462254 -.707132879947521 0 16 497 180 535 ?488 484 536 53
0 0 0 7 30 534 827 0 537 530 538 0 +.001580000162743 .001114899909275302 -.001 0
 0 -1 16 537 390 539 ?385 373 526 534 0 0 7 30 538 833 0 373 534 540 0 +-.013930
553122608 .001114899909275302 -.001 1 0 0 16 373 393 541 ?387 18 537 538 0 0 7 3
0 540 844 0 496 538 542 0 +.00056451830575821 .000142507052146197 -.00354 -.6853
55229855194 .728208904717688 0 16 496 260 543 ?491 511 484 540 0 0 7 30 542 850
 0 544 540 545 0 +.001925232591453205 .000142507052146197 -.001 -1 0 0 16 544 27
1 546 ?401 547 518 542 0 0 7 30 545 852 0 527 542 548 0 +.001580000162743 .00171
4899909266695 -.001 0 0 -1 16 527 383 549 ?550 525 551 545 0 0 7 30 548 853 0 55
2 545 553 0 +.001925232591453205 .0026825070521102 -.001 -1 0 0 16 552 173 554 ?
505 555 556 548 0 0 7 30 553 863 0 557 548 558 0 +.0024090540200178 .00065654276
64246 -.001 0 0 -1 16 557 276 559 ?469 560 547 553 0 0 7 30 558 869 0 532 553 56
1 0 +.0009400004484659 .020864971337567 -.00354 0 1 0 16 532 374 562 ?563 564 52
9 558 0 0 7 30 561 878 0 547 558 565 0 +.001925232591453205 .000142507052146197
 -.00354 .685382058210025 .728183654227277 0 16 547 274 566 ?567 557 544 561 0 0
 7 30 565 881 0 533 561 568 0 +.0009400004484659 .020864971337567 -.001 0 -1 0 1
6 533 369 569 ?570 529 560 565 0 0 7 30 568 885 0 555 565 571 0 +.00056451830575
821 .0026825070521102 -.00354 -.707080681462254 -.707132879947521 0 16 555 176 5
72 ?573 536 552 568 0 0 7 30 571 891 0 574 568 575 0 +.001925232591453205 .00268
25070521102 -.00354 .707106781186548 -.707106781186548 0 16 574 162 576 ?577 578
 366 571 0 0 7 30 575 899 0 556 571 579 0 +.00056451830575821 .0026825070521102
 -.001 0 0 -1 16 556 171 580 ?581 552 582 575 0 0 7 30 579 900 0 536 575 583 0 +
8073259147931e-17 .002198685623545605 -.001 0 0 -1 16 536 178 584 ?465 497 555 5
79 0 0 7 30 583 910 0 564 579 585 0 +.0009400004484659 .001714899909266695 -.001
 0 0 -1 16 564 376 586 ?444 447 532 583 0 0 7 30 585 936 0 551 583 587 0 +-.0139
30553122608 .001714899909266695 -.00354 1 0 0 16 551 381 588 ?589 527 447 585 0
 0 7 30 587 938 0 582 585 590 0 +.001925232591453205 .0026825070521102 -.00354 -
1 0 0 16 582 169 591 ?592 556 593 587 0 0 7 30 590 942 0 560 587 498 0 +.0019252
32591453205 .000142507052146197 -.001 .685382058210025 .728183654227277 0 16 560
 278 594 ?595 533 557 590 0 0 7 30 498 951 0 484 590 521 0 +8073259147931e-17 .0
006565427664246 -.001 0 0 -1 30 521 952 0 511 498 596 0 +.00056451830575821 .000
142507052146197 -.001 0 0 -1 30 596 958 0 526 521 374 0 +.001580000162743 .02086
4971337567 -.00354 0 -1 0 16 526 388 597 ?598 537 525 596 0 0 7 30 374 983 0 18
 596 599 0 +-.013930553122608 .001114899909275302 -.00354 -1 0 0 30 599 990 0 44
7 374 600 0 +-.013930553122608 .001714899909266695 -.001 -1 0 0 16 447 379 601 ?
440 551 564 599 0 0 7 30 600 991 0 593 599 602 0 +.001925232591453205 .002682507
0521102 -.001 .707106781186548 -.707106781186548 0 16 593 166 603 ?604 582 578 6
00 0 0 7 30 602 996 0 518 600 367 0 +.001925232591453205 .000142507052146197 -.0
01 0 0 -1 16 518 269 605 ?606 544 513 602 0 0 7 30 367 1001 0 578 602 15 0 +.001
925232591453205 .0026825070521102 -.001 0 0 -1 16 578 164 607 ?608 593 574 367 0
 0 7 81 1 607 1229 51 578 0 0 605 609 610 17 608 0 611 592 406 392 612 578 0 613
 +15 611 168 0 608 614 0 17 592 0 611 615 608 407 616 582 0 0 +17 406 0 611 608
 615 403 505 552 0 617 -18 392 163 379 616 403 450 390 ?7 17 612 0 618 604 613 4
03 608 578 0 0 -17 613 0 618 612 619 392 577 574 0 0 -15 618 161 0 619 620 0 17
 619 0 618 613 604 450 477 366 0 0 +17 577 0 621 622 616 450 613 574 0 619 +15 6
21 2744 0 577 364 0 17 622 0 621 396 577 466 452 623 0 567 +17 616 0 621 577 427
 392 592 582 0 608 -17 427 0 621 616 489 407 573 555 0 581 -17 489 0 621 427 491
 462 461 490 0 573 -17 573 0 624 506 581 462 427 555 0 0 +17 581 0 624 573 429 4
07 615 556 0 592 +15 624 175 0 581 625 0 17 429 0 624 581 506 424 488 497 0 505
 -17 615 0 611 406 592 424 581 556 0 0 -17 506 0 624 429 573 411 465 536 0 0 -17
 505 0 499 488 617 424 406 552 0 615 +17 617 0 499 505 501 403 604 593 0 612 -17
 501 0 499 617 595 474 473 507 0 604 -17 604 0 618 619 612 474 617 593 0 0 +17 5
95 0 499 501 502 470 413 560 0 626 +17 473 0 627 469 477 470 501 507 0 595 +16 5
07 2799 0 ?473 623 487 628 0 0 7 16 623 2773 0 ?622 490 507 524 0 0 7 30 628 320
4 0 507 508 524 0 +.0024090540200178 0 -.001 0 -1 0 30 508 3206 0 487 0 628 0 +8
073259147931e-17 0 -.001 0 -1 0 30 524 3128 0 623 628 522 0 +.0024090540200178 .
020864971337567 -.00354 0 -1 0 16 490 2877 0 ?461 366 623 522 0 0 7 16 366 157 6
09 ?619 574 490 15 0 0 7 81 1 609 1232 51 366 0 0 607 629 630 81 1 629 1252 51 6
14 0 631 609 632 633 84 6 630 16953014 614 167 634 ?620 625 611 13 635 -0 0 620
 625 370 81 1 631 3499 222 614 629 634 636 637 638 81 1 632 1253 51 639 0 640 62
9 641 642 84 6 633 16993014 639 367 643 ?644 645 646 13 647 +0 0 644 645 370 81
 1 640 3494 222 639 632 643 648 649 650 81 1 641 1263 51 651 0 652 632 653 654 8
4 6 642 17486014 651 391 655 ?656 364 657 13 658 +0 0 656 364 370 81 1 652 3491
 222 651 641 655 659 660 661 81 1 653 1276 51 620 0 637 641 662 663 84 6 654 175
32014 620 160 664 ?665 614 618 13 666 -0 0 665 614 370 81 1 637 3500 222 620 653
 664 631 667 668 81 1 662 1278 51 644 0 649 653 669 670 84 6 663 16976014 644 27
2 671 ?672 639 673 13 674 -0 0 672 639 370 81 1 649 3495 222 644 662 671 640 675
 676 81 1 669 1279 51 656 0 660 662 677 678 84 6 670 17248014 656 384 679 ?645 6
51 680 13 681 +0 0 645 651 370 81 1 660 3492 222 656 669 679 652 648 682 81 1 67
7 1284 51 672 0 675 669 683 684 84 6 678 17520014 672 265 685 ?509 644 686 13 68
7 -0 0 509 644 370 81 1 675 3496 222 672 677 685 649 688 689 81 1 683 1289 51 50
9 0 688 677 690 691 84 6 684 17231014 509 258 692 ?625 672 492 13 693 -0 0 625 6
72 370 81 1 688 3497 222 509 683 692 675 636 694 81 1 690 1296 51 645 0 648 683
 695 696 84 6 691 17214014 645 377 697 ?639 656 443 13 698 +0 0 639 656 370 81 1
 648 3493 222 645 690 697 660 640 699 81 1 695 1303 51 625 0 636 690 457 700 84
 6 696 17503014 625 174 701 ?614 509 624 13 365 -0 0 614 509 370 81 1 636 3498 2
22 625 695 701 688 631 702 81 1 457 1334 51 420 0 0 695 455 703 84 6 700 1701008
1 1 455 1347 51 388 0 0 457 441 704 84 6 703 16383081 1 441 1353 51 450 0 0 455
 439 705 84 6 704 16391084 6 705 16133081 1 701 3542 260 625 636 0 697 706 707 8
3 3 702 0 0 0 81 1 697 3541 260 645 648 0 692 701 708 81 1 706 3543 260 665 667
 0 701 709 710 82 1 707 -1304427839 14 665 3011 706 ?486 620 627 13 711 -0 0 486
 620 370 81 1 667 3501 222 665 0 706 637 712 713 81 1 709 3544 260 486 712 0 706
 714 715 82 1 710 1076167361 14 486 3006 709 ?0 665 482 13 716 +0 0 0 665 370 81
 1 712 3502 222 486 0 709 667 0 717 81 1 714 3545 260 362 718 0 709 719 720 82 1
 715 1077543617 14 362 2758 714 ?364 0 499 13 721 +0 0 364 0 370 81 1 718 3489 2
22 362 722 714 0 659 723 81 1 719 3546 260 364 659 0 714 0 724 82 1 720 10791820
17 14 364 2745 719 ?651 362 382 13 14 -0 0 651 362 370 81 1 659 3490 222 364 725
 719 718 652 726 82 1 724 1078067905 81 1 725 2748 51 364 0 659 360 722 727 83 3
 726 0 0 0 81 1 360 1778 51 7 728 10 433 725 729 81 1 722 2761 51 362 0 718 725
 476 730 84 6 727 16580081 1 476 3421 51 474 0 0 722 472 731 84 6 730 15952081 1
 472 3422 51 470 0 0 476 468 732 84 6 731 15569081 1 468 3423 51 466 0 0 472 464
 733 84 6 732 15497081 1 464 3426 51 462 0 0 468 460 734 84 6 733 16205081 1 460
 3427 51 453 0 0 464 479 735 84 6 734 16157084 6 735 16181081 1 728 1777 333 7 7
36 360 0 0 737 81 1 433 1467 51 368 0 0 431 360 738 84 6 729 17874084 6 738 1638
1081 1 736 1547 337 7 0 728 0 0 739 84 6 737 JS112083 3 739 0 0 0 15 382 537 0 3
76 364 621 13 370 2 0 0 0 0 0 0 17 362 83 3 723 0 0 0 50 721 599 0 362 687 693 0
 +-.013930553122608 .020864971337567 -.001 0 0 1 -1 0 0 50 687 598 0 672 681 721
 0 +.001925232591453205 .000142507052146197 -.001 0 1 0 0 0 -1 50 693 603 0 509
 721 698 0 +.00056451830575821 .000142507052146197 -.001 .728208904717688 .68535
5229855194 0 .685355229855194 -.728208904717688 0 50 698 610 0 645 693 365 0 +.0
009400004484659 .001714899909266695 -.001 0 -1 0 -1 0 0 50 365 617 0 625 698 14
 0 +8073259147931e-17 .002198685623545605 -.001 .707132879947521 -.7070806814622
54 0 0 0 1 50 681 593 0 656 674 687 0 +.001580000162743 .001714899909266695 -.00
1 -1 0 0 0 -1 0 50 674 592 0 644 666 681 0 +.0024090540200178 .0006565427664246
 -.001 -.728183654227277 .685382058210025 0 0 0 -1 50 666 590 0 620 658 674 0 +.
001925232591453205 .0026825070521102 -.001 -.707106781186548 -.707106781186548 0
 0 0 -1 50 658 577 0 651 647 666 0 +.001580000162743 .001114899909275302 -.001 0
 1 0 0 0 -1 50 647 567 0 639 635 658 0 +.0009400004484659 .001114899909275302 -.
001 1 0 0 0 0 1 50 635 566 0 614 716 647 0 +.00056451830575821 .0026825070521102
 -.001 0 -1 0 -1 0 0 50 716 3119 0 486 711 635 0 +8073259147931e-17 0 -.011 -1 0
 0 0 0 1 50 711 3121 0 665 0 716 0 +.0024090540200178 0 -.011 -1 0 0 0 0 1 83 3
 717 0 0 0 83 3 713 0 0 0 15 627 3015 0 452 665 0 17 452 0 627 477 469 450 622 6
23 0 577 -17 477 0 627 473 452 474 619 366 0 501 -17 469 0 627 452 473 466 626 5
57 0 622 +17 626 0 673 413 567 470 469 557 0 0 -15 673 273 0 606 644 0 17 413 0
 673 606 626 397 595 560 0 502 -17 567 0 673 626 606 466 396 547 0 0 +17 606 0 6
73 567 413 394 740 518 0 741 +17 396 0 621 410 622 394 567 547 0 606 -17 410 0 6
21 491 396 402 741 513 0 510 +17 491 0 621 489 410 453 493 496 0 483 +17 741 0 6
86 740 510 394 410 513 0 0 -17 510 0 686 741 401 402 504 511 0 493 +15 686 266 0
 510 672 0 17 401 0 686 510 740 398 502 544 0 500 +17 493 0 492 504 483 402 491
 496 0 0 -17 740 0 686 401 741 397 606 518 0 0 -17 502 0 499 595 500 397 401 544
 0 740 -81 1 692 3540 260 509 688 0 685 697 742 82 1 708 -1307180359 81 1 685 35
39 260 672 675 0 679 692 743 82 1 742 -1306197311 81 1 679 3538 260 656 660 0 67
1 685 744 82 1 743 -1269366087 81 1 671 3537 260 644 649 0 664 679 745 82 1 744
 -1265630535 81 1 664 3536 260 620 637 0 655 671 746 82 1 745 -1269103935 81 1 6
55 3535 260 651 652 0 643 664 747 82 1 746 -1272839487 81 1 643 3534 260 639 640
 0 634 655 748 82 1 747 -1265368391 81 1 634 3533 260 614 631 0 0 643 749 82 1 7
48 -1307376967 82 1 749 -1272577351 83 3 699 0 0 0 15 443 378 0 440 645 0 83 3 6
94 0 0 0 83 3 689 0 0 0 83 3 682 0 0 0 15 680 385 0 419 656 0 17 419 0 680 550 7
50 416 437 525 0 445 +17 550 0 680 598 419 388 445 527 0 589 +17 750 0 680 419 5
98 377 385 537 0 437 -17 437 0 435 432 446 377 419 525 0 0 -17 445 0 443 440 589
 416 550 527 0 446 -17 589 0 443 445 444 388 458 551 0 0 +17 446 0 435 437 436 4
16 440 447 0 0 -15 435 545 0 446 362 0 17 436 0 435 446 432 414 570 533 0 0 -17
 570 0 646 751 448 430 436 533 0 0 +15 646 368 0 570 639 0 17 751 0 646 563 570
 368 438 529 0 0 -17 448 0 646 570 563 414 444 564 0 436 -17 563 0 646 448 751 4
20 384 532 0 0 +17 444 0 443 589 440 420 448 564 0 563 +17 384 0 382 376 458 368
 563 532 0 751 -17 458 0 382 384 383 420 589 551 0 444 -17 383 0 382 458 376 388
 598 526 0 550 -17 598 0 680 750 550 19 383 526 0 0 +17 438 0 657 387 372 430 75
1 529 0 570 +15 657 392 0 387 651 0 17 387 0 657 385 438 377 432 373 0 750 +17 3
72 0 657 438 385 368 376 18 0 384 +17 385 0 657 372 387 19 750 537 0 598 +83 3 6
76 0 0 0 83 3 668 0 0 0 83 3 661 0 0 0 83 3 650 0 0 0 83 3 638 0 0 0 17 465 0 48
2 461 423 462 506 536 0 489 +81 1 379 1367 51 392 0 0 439 375 752 84 6 752 16141
081 1 605 1224 51 518 0 0 603 607 753 84 6 610 16970081 1 603 1219 51 593 0 0 60
1 605 754 84 6 753 17225081 1 601 1218 51 447 0 0 371 603 755 84 6 754 15570081
 1 371 1211 51 18 0 0 597 601 756 84 6 755 15778081 1 597 1186 51 526 0 0 520 37
1 757 84 6 756 16406081 1 520 1180 51 511 0 0 495 597 758 84 6 757 16400081 1 49
5 1179 51 484 0 0 594 520 759 84 6 758 17208081 1 594 1170 51 560 0 0 591 495 76
0 84 6 759 17191081 1 591 1166 51 582 0 0 588 594 761 84 6 760 15506081 1 588 11
64 51 551 0 0 586 591 762 84 6 761 16150081 1 586 1138 51 564 0 0 584 588 763 84
 6 762 16392081 1 584 1128 51 536 0 0 580 586 764 84 6 763 17474081 1 580 1127 5
1 556 0 0 576 584 765 84 6 764 17004081 1 576 1119 51 574 0 0 572 580 766 84 6 7
65 16987081 1 572 1113 51 555 0 0 569 576 767 84 6 766 16142081 1 569 1109 51 53
3 0 0 566 572 768 84 6 767 16158081 1 566 1106 51 547 0 0 562 569 769 84 6 768 1
5756081 1 562 1097 51 532 0 0 559 566 770 84 6 769 16206081 1 559 1091 51 557 0
 0 554 562 771 84 6 770 16384081 1 554 1081 51 552 0 0 549 559 772 84 6 771 1724
2081 1 549 1080 51 527 0 0 546 554 773 84 6 772 15562081 1 546 1078 51 544 0 0 5
43 549 774 84 6 773 17496081 1 543 1072 51 496 0 0 541 546 775 84 6 774 15514081
 1 541 1061 51 373 0 0 539 543 776 84 6 775 16190081 1 539 1055 51 537 0 0 535 5
41 777 84 6 776 15764081 1 535 1037 51 497 0 0 531 539 778 84 6 777 17513081 1 5
31 1036 51 529 0 0 517 535 779 84 6 778 15554081 1 517 1025 51 513 0 0 515 531 7
80 84 6 779 17481081 1 515 1021 51 525 0 0 512 517 781 84 6 780 16198084 6 781 1
5772084 6 516 15522084 6 481 15521084 6 442 15753081 1 428 1453 51 424 0 0 426 4
31 782 84 6 434 15755081 1 426 1451 51 407 0 0 422 428 783 84 6 782 15553081 1 4
22 1446 51 411 0 0 418 426 784 84 6 783 16149081 1 418 1444 51 416 0 0 386 422 7
85 84 6 784 15545081 1 386 1432 51 377 0 0 412 418 786 84 6 785 15771081 1 412 1
423 51 397 0 0 409 386 787 84 6 786 15763081 1 409 1422 51 402 0 0 405 412 788 8
4 6 787 15505081 1 405 1421 51 403 0 0 400 409 789 84 6 788 16189081 1 400 1415
 51 398 0 0 380 405 790 84 6 789 15561081 1 380 1404 51 394 0 0 375 400 791 84 6
 790 15513084 6 791 16197084 6 381 16399019 363 551 0 7 0 17 13 S0 74 20 361 6 0
 0 479 736 728 719 712 10 0 0 0 0 0 0 0 0 0 0 0 0 0 0 74 20 6 1 0 0 2 0 0 0 0 0
 0 0 0 0 0 0 0 0 0 0 0 0 0 0 80 2 5 792 793 9000 0 0 0 0 3 5 0 0 0 TFFFFFFFFFFFF
F9 1 79 18 793 MULTI_BODY_ID_20011 0 
