**ABCDEFGHIJKLMNOPQRSTUVWXYZabcdefghijklmnopqrstuvwxyz**************************
**PARASOLID !"#$%&'()*+,-./:;<=>?@[\]^_`{|}~0123456789**************************
**PART1;
MC=AMD64;
MC_MODEL=Intel64 Family 6 Model 85 Stepping 0, GenuineIntel;
MC_ID=unknown;
OS=Windows_NT;
OS_RELEASE=unknown;
FRU=Parasolid Version 32.1, build 251,  9-25-2020;
APPL=SOLIDWORKS 2021-2020322;
SITE=;
USER=unknown;
FORMAT=text;
GUISE=transmit;
KEY=2C708896-8156-4CB8-9671-4568035B0AC1;
FILE=2C708896-8156-4CB8-9671-4568035B0AC1.x_t;
DATE=Sat Apr 16 13:52:49 2022;
**PART2;
SCH=SCH_3201251_32001;
USFLD_SIZE=0;
**PART3;
**END_OF_HEADER*****************************************************************
T51 : TRANSMIT FILE created by modeller version 320125123 SCH_3201251_32001_1300
6229 0 10 20 CCCCCCCI4 mesh1006 0 I8 polyline1008 0 CCCCCCCCCCA16 mesh_offset_da
ta206 0 Z1 19 2 3 0 0 0 0 0 0 0 1e3 1e-8 0 0 0 1 0 1 4 0 81 255 1 2 19 5 1 0 0 0
 0 0 70 11 CI9 list_type0 0 1 uI10 notransmit0 0 1 lCCCDCCDI12 finger_index0 0 1
 dI12 finger_block1012 0 CZ3 0 4 T1 0 0 1 20 1 6 6 11 255 4 17 0 1 7 8 1 9 0 9 0
 12 34 CCCCCCI4 mesh1006 0 I8 polyline1008 0 CCCCCCCDI5 owner1040 0 CCCCCCI13 bo
undary_mesh1006 0 I17 boundary_polyline1008 0 CCCA16 index_map_offset0 0 1 dA9 i
ndex_map82 0 A17 node_id_index_map82 0 A20 schema_embedding_map82 0 A5 child12 0
 A14 lowest_node_id0 0 1 dA16 mesh_offset_data206 0 Z7 761 10 11 0 0 0 0 0 0 1e3
 1e-8 4 12 13 1 0 1 1 14 15 16 17 0 0 18 19 20 0 0 0 0 0 0 0 100 255 8 18 4 0 0
 0 0 -1 0 1 0 1 0 0 -.00155 -1084202172485504e-34 97e-5 1 3 ?11 9 15 0 1 7 21 1
 22 4 22 4 100 21 16 9 0 0 0 0 1 0 1 0 -1 0 0 .00155 -1084202172485504e-34 97e-5
 1 3 ?11 22 13 0 1 7 23 1 24 9 24 9 100 23 14 22 0 0 0 0 -1 0 1 0 1 0 0 -.00155
 -1084202172485504e-34 -98e-5 1 3 ?11 24 11 0 1 7 25 1 26 22 27 22 100 25 12 24
 0 0 0 0 1 0 1 0 -1 0 0 .00155 -1084202172485504e-34 -98e-5 1 3 ?11 26 9 0 1 13
 28 1 27 24 0 0 12 13 564 29 30 0 0 0 0 0 0 1e3 1e-8 26 7 0 1 0 1 1 31 32 33 34
 0 0 35 36 37 0 0 0 0 0 0 0 100 28 10 26 0 0 1 0 0 0 1 0 0 0 1 0 0 0 1 0 ?11 27
 7 0 1 7 38 1 39 26 39 24 100 38 8 27 0 0 0 0 1 0 1 0 -1 0 0 .00155 -10842021724
85504e-34 -33e-5 1 3 ?11 39 5 0 1 7 40 1 41 27 41 27 100 40 6 39 0 0 0 0 -1 0 1
 0 1 0 0 -.00155 -1084202172485504e-34 -33e-5 1 3 ?11 41 3 0 1 7 42 1 43 39 43 3
9 100 42 4 41 0 0 0 0 -1 0 1 0 1 0 0 -.00155 -1084202172485504e-34 32e-5 1 3 ?11
 43 1 0 1 7 44 1 0 41 0 41 100 44 2 43 0 0 0 0 1 0 1 0 -1 0 0 .00155 -1084202172
485504e-34 32e-5 1 3 ?81 1 29 564 5 13 0 0 0 0 45 70 30 0 4 T13 0 0 3 20 1 46 46
 13 255 31 420 0 13 0 47 0 0 48 0 50 255 32 397 0 47 49 0 0 +.00105 4e-4 .00105
 0 1 0 0 0 1 31 255 33 430 0 50 51 0 0 +.00105 4e-4 .00105 0 1 0 0 0 1 2e-4 29 2
55 34 274 0 52 53 0 -.00145434954724849 5e-4 .00145434954724849 19 8 CCCCCCCA5 o
wner12 0 Z35 421 0 13 48 0 54 V0 16 255 36 21 0 ?55 0 56 57 0 0 13 18 255 37 17
 0 58 0 59 60 ?13 17 255 58 0 61 55 62 37 63 64 0 65 +18 59 13 0 66 37 67 68 ?13
 29 60 34 0 37 0 68 .00145434954724849 -5e-4 -.00145434954724849 29 68 37 0 59 6
0 69 .00145434954724849 -5e-4 .00145434954724849 29 69 40 0 70 68 71 -.001454349
54724849 -5e-4 -.00145434954724849 18 70 6 0 72 67 73 69 ?13 29 71 41 0 67 69 74
 -.00145434954724849 -5e-4 .00145434954724849 18 67 8 0 75 59 70 71 ?13 29 74 64
 0 73 71 76 .00155 -499999999999932e-19 -.00155 18 73 54 0 77 70 78 74 ?13 29 76
 62 0 78 74 79 -.00155 -499999999999932e-19 -.00155 18 78 55 0 80 73 81 76 ?13 2
9 79 84 0 81 76 82 .00155 -499999999999932e-19 .00155 18 81 77 0 83 78 84 79 ?13
 29 82 105 0 84 79 85 -.00155 -499999999999932e-19 .00155 18 84 98 0 86 81 87 82
 ?13 29 85 149 0 87 82 88 -.00155 499999999999931e-19 -.00155 18 87 137 0 89 84
 90 85 ?13 29 88 147 0 90 85 91 .00155 499999999999931e-19 -.00155 18 90 140 0 9
2 87 93 88 ?13 29 91 168 0 93 88 94 .00155 499999999999931e-19 .00155 18 93 161
 0 95 90 96 91 ?13 29 94 189 0 96 91 97 -.00155 499999999999932e-19 .00155 18 96
 182 0 98 93 99 94 ?13 29 97 231 0 100 94 101 .00145434954724849 5e-4 -.00145434
954724849 18 100 224 0 102 99 103 97 ?13 29 101 230 0 99 97 53 -.001454349547248
49 5e-4 -.00145434954724849 18 99 223 0 104 96 100 101 ?13 29 53 252 0 103 101 3
4 .00145434954724849 5e-4 .00145434954724849 18 103 245 0 105 100 52 53 ?13 17 1
05 0 106 95 107 103 108 109 0 110 -18 52 264 0 111 103 0 34 ?13 17 111 0 112 110
 113 52 104 114 0 115 +15 255 112 300 0 110 116 117 17 110 0 112 108 111 103 115
 118 0 119 +17 113 0 112 111 108 99 102 120 0 0 +17 104 0 121 122 123 99 111 114
 0 124 -16 114 283 0 ?111 125 126 127 0 0 13 17 115 0 128 98 119 52 110 118 0 12
3 -15 128 258 0 115 129 0 17 98 0 128 130 115 96 123 125 0 131 -17 119 0 128 115
 130 103 95 132 0 0 +16 118 260 0 ?110 109 125 133 0 0 13 17 123 0 121 104 131 5
2 98 125 0 0 +15 121 279 0 131 134 0 17 131 0 121 123 122 96 89 135 0 136 -16 12
5 261 0 ?123 118 114 137 0 0 13 30 255 137 269 0 125 133 127 0 +-.00155 49999999
9999931e-19 .00155 .203558594952777 .957667894857974 -.2035585949527765 30 133 2
70 0 118 138 137 0 +-.00155 5e-4 .00145434954724849 1 0 0 30 127 289 0 114 137 5
1 0 +-.00145434954724849 5e-4 .00155 0 0 1 31 51 424 0 126 127 33 0 -.00105 5e-4
 .00105 0 1 0 0 0 1 2e-4 16 126 306 0 ?139 114 50 51 0 0 13 17 139 0 117 139 139
 0 140 126 0 0 +16 50 333 0 ?141 126 0 33 0 0 13 17 141 0 142 141 141 0 143 50 0
 0 +15 142 392 0 141 47 0 17 143 0 144 143 143 0 141 50 0 0 -15 144 332 0 143 14
5 0 14 255 145 330 146 1e-8 116 47 147 31 49 -0 0 47 116 54 81 1 146 549 148 145
 149 0 150 151 152 14 116 298 151 1e-8 134 145 112 31 153 +0 0 145 134 54 14 47
 390 150 1e-8 145 0 142 31 32 +0 0 0 145 54 15 147 436 0 140 145 144 51 255 49 3
41 0 145 153 32 0 +.00105 4e-4 .00105 0 1 0 2e-4 0 0 1 13 54 3 0 0 0 0 0 0 35 15
4 14 154 2 155 1e-8 0 156 157 31 158 -0 0 156 0 54 81 1 155 563 148 154 159 0 16
0 0 161 14 156 46 160 1e-8 154 162 61 31 163 +0 0 162 154 54 15 157 7 0 164 154
 0 50 158 12 0 154 0 163 0 +-.00155 -5e-4 .00155 0 1 0 0 0 1 50 163 57 0 156 158
 165 0 +-.00155 -499999999999932e-19 -.00155 0 -.2079116908177565 -.978147600733
806 0 .978147600733806 -.2079116908177565 50 165 78 0 162 163 166 0 +.00155 -499
999999999932e-19 -.00155 .978147600733806 -.2079116908177575 0 .2079116908177575
 .978147600733806 0 14 162 67 167 1e-8 156 168 169 31 165 +0 0 168 156 54 50 166
 99 0 168 165 170 0 +-.00155 -499999999999932e-19 .00155 0 -.207911690817757 .97
8147600733806 0 -.978147600733806 -.207911690817757 14 168 88 171 1e-8 162 172 1
73 31 166 +0 0 172 162 54 50 170 120 0 172 166 174 0 +-.00155 -499999999999932e-
19 -.00155 -.978147600733806 -.207911690817757 0 .207911690817757 -.978147600733
806 0 14 172 109 175 1e-8 168 176 177 31 170 +0 0 176 168 54 50 174 141 0 176 17
0 178 0 +-.00155 -5e-4 -.00155 0 0 -1 -1 0 0 14 176 130 179 1e-8 172 180 181 31
 174 +0 0 180 172 54 50 178 162 0 180 174 182 0 +.00155 -5e-4 -.00155 1 0 0 0 0
 -1 14 180 151 183 1e-8 176 184 185 31 178 +0 0 184 176 54 50 182 183 0 184 178
 186 0 +-.00155 -5e-4 .00155 0 0 1 1 0 0 14 184 172 187 1e-8 180 188 189 31 182
 +0 0 188 180 54 50 186 204 0 188 182 190 0 +-.00155 -5e-4 -.00155 -1 0 0 0 0 1
 14 188 193 191 1e-8 184 192 193 31 186 +0 0 192 184 54 50 190 225 0 192 186 194
 0 +-.00155 5e-4 -.00145434954724849 0 -.2079116908177565 .978147600733806 0 -.9
78147600733806 -.2079116908177565 14 192 214 195 1e-8 188 196 197 31 190 -0 0 19
6 188 54 50 194 246 0 196 190 198 0 +.00145434954724849 5e-4 .00155 -.9781476007
33806 -.2079116908177575 0 .2079116908177575 -.978147600733806 0 14 196 235 199
 1e-8 192 129 106 31 194 -0 0 129 192 54 50 198 267 0 129 194 200 0 +-.00155 5e-
4 .00145434954724849 0 -.207911690817757 -.978147600733806 0 .978147600733806 -.
207911690817757 14 129 256 201 1e-8 196 134 128 31 198 -0 0 134 196 54 50 200 28
8 0 134 198 153 0 +-.00145434954724849 5e-4 .00155 .978147600733806 -.2079116908
17757 0 .207911690817757 .978147600733806 0 14 134 277 202 1e-8 129 116 121 31 2
00 -0 0 116 129 54 50 153 314 0 116 200 49 0 +-.00155 5e-4 .00155 0 1 0 0 0 1 81
 1 202 551 148 134 203 0 151 201 204 80 255 1 148 0 205 8001 0 0 0 0 3 5 0 0 0 F
FFFTFTFFFFFFF2 81 1 203 546 206 134 0 202 207 0 208 81 1 151 550 148 116 209 0 1
46 202 210 81 1 201 552 148 129 207 0 202 199 211 83 255 3 204 0 0 0 81 1 207 54
4 206 129 0 201 212 203 213 81 1 199 553 148 196 212 0 201 195 214 83 3 211 0 0
 0 81 1 212 542 206 196 0 199 215 207 216 81 1 195 554 148 192 215 0 199 191 217
 83 3 214 0 0 0 81 1 215 540 206 192 0 195 218 212 219 81 1 191 555 148 188 218
 0 195 187 220 83 3 217 0 0 0 81 1 218 538 206 188 0 191 221 215 222 81 1 187 55
6 148 184 221 0 191 183 223 83 3 220 0 0 0 81 1 221 536 206 184 0 187 224 218 22
5 81 1 183 557 148 180 224 0 187 179 226 83 3 223 0 0 0 81 1 224 534 206 180 0 1
83 227 221 228 81 1 179 558 148 176 227 0 183 175 229 83 3 226 0 0 0 81 1 227 53
2 206 176 0 179 230 224 231 81 1 175 559 148 172 230 0 179 171 232 83 3 229 0 0
 0 81 1 230 530 206 172 0 175 233 227 234 81 1 171 560 148 168 233 0 175 167 235
 83 3 232 0 0 0 81 1 233 528 206 168 0 171 236 230 237 81 1 167 561 148 162 236
 0 171 160 238 83 3 235 0 0 0 81 1 236 526 206 162 0 167 239 233 240 81 1 160 56
2 148 156 239 0 167 155 241 83 3 238 0 0 0 81 1 239 524 206 156 0 160 159 236 24
2 83 3 241 0 0 0 80 1 206 243 244 9000 1 1 1 1 1 1 1 1 0 FFFFTFTFFFFFFF1 81 1 15
9 522 206 154 0 155 245 239 246 82 255 1 242 999999 81 1 245 520 206 47 0 150 20
9 159 247 82 1 246 999999 81 1 150 548 148 47 245 0 0 146 248 81 1 209 518 206 1
16 0 151 149 245 249 82 1 247 999999 81 1 149 516 206 145 0 146 0 209 250 82 1 2
49 999999 82 1 250 999999 83 3 248 0 0 0 79 255 14 244 SWEntUnchanged82 1 240 99
9999 82 1 237 999999 82 1 234 999999 82 1 231 999999 82 1 228 999999 82 1 225 99
9999 82 1 222 999999 82 1 219 999999 82 1 216 999999 82 1 213 999999 83 3 210 0
 0 0 82 1 208 999999 79 15 205 SDL/TYSA_COLOUR15 106 237 0 251 196 0 17 251 0 10
6 107 95 90 252 253 0 254 -17 107 0 106 105 251 100 92 255 0 0 +17 95 0 106 251
 105 93 119 132 0 130 -17 252 0 185 83 256 93 251 253 0 257 +16 253 154 0 ?252 2
58 259 260 0 0 13 17 254 0 181 77 261 90 262 263 0 256 +15 181 132 0 261 176 0 1
7 77 0 181 264 254 73 256 258 0 62 +17 261 0 181 254 264 87 265 266 0 122 +17 26
2 0 197 124 92 87 254 263 0 0 -16 263 133 0 ?254 267 266 268 0 0 13 17 256 0 185
 252 269 90 77 258 0 0 -15 185 153 0 256 180 0 17 269 0 185 256 83 73 270 271 0
 63 -16 258 136 0 ?77 266 253 272 0 0 13 16 266 134 0 ?261 263 258 273 0 0 13 30
 272 142 0 258 273 260 0 -.00155 -5e-4 -.00155 0 1 0 30 273 144 0 266 268 272 0
 +-.00155 -5e-4 -.00155 0 1 0 30 260 166 0 253 272 274 0 -.00155 499999999999932
e-19 -.00155 0 0 -1 30 274 163 0 259 260 275 0 -.00155 -5e-4 .00155 0 1 0 16 259
 157 0 ?83 253 276 274 0 0 13 30 275 187 0 276 274 277 0 --.00155 49999999999993
2e-19 .00155 1 0 0 16 276 175 0 ?136 259 278 275 0 0 13 30 277 184 0 278 275 279
 0 --.00155 -5e-4 .00155 0 1 0 16 278 178 0 ?86 276 135 277 0 0 13 30 279 208 0
 135 277 280 0 --.00155 499999999999932e-19 -.00155 0 0 1 16 135 196 0 ?89 278 2
55 279 0 0 13 30 280 229 0 255 279 281 0 +.00155 49999999999993e-18 -.00155 -.20
3558594952778 .957667894857973 .203558594952776 16 255 217 0 ?107 135 282 280 0
 0 13 30 281 227 0 282 280 283 0 +-.00145434954724849 5e-4 -.00145434954724849 -
.203558594952777 -.957667894857974 -.203558594952776 16 282 219 0 ?122 255 120 2
81 0 0 13 30 283 226 0 120 281 284 0 --.00155 5e-4 -.00145434954724849 1 0 0 16
 120 220 0 ?113 282 132 283 0 0 13 30 284 250 0 132 283 138 0 +.00155 4999999999
99931e-19 .00155 -.203558594952777 .957667894857974 -.203558594952777 16 132 238
 0 ?119 120 109 284 0 0 13 30 138 247 0 109 284 133 0 -.00145434954724849 5e-4 .
00155 0 0 1 16 109 241 0 ?108 132 118 138 0 0 13 17 108 0 112 113 110 100 105 10
9 0 107 +17 122 0 121 131 104 87 124 282 0 262 +17 124 0 197 102 262 99 122 282
 0 113 -15 197 216 0 262 192 0 17 102 0 197 92 124 100 113 120 0 108 -17 92 0 19
7 262 102 90 107 255 0 251 -17 89 0 193 265 285 87 131 135 0 261 +15 193 195 0 2
85 188 0 17 265 0 193 286 89 78 261 266 0 264 -17 285 0 193 89 286 96 86 278 0 0
 -17 286 0 193 285 265 84 80 267 0 287 -17 86 0 189 288 136 84 285 278 0 286 +15
 189 174 0 257 184 0 17 288 0 189 257 86 81 287 289 0 270 -17 136 0 189 86 257 9
6 130 276 0 285 +17 257 0 189 136 288 93 83 259 0 0 -17 130 0 128 119 98 93 136
 276 0 252 -17 83 0 185 269 252 81 257 259 0 288 +17 287 0 173 75 290 84 288 289
 0 291 +16 289 91 0 ?287 292 293 294 0 0 13 17 270 0 169 66 63 81 269 271 0 290
 +15 169 69 0 63 162 0 17 66 0 169 295 270 59 290 292 0 164 +17 63 0 169 270 295
 73 58 64 0 0 -16 271 70 0 ?270 296 292 297 0 0 13 17 290 0 173 287 298 81 66 29
2 0 0 -15 173 90 0 290 168 0 17 298 0 173 290 75 59 299 300 0 0 +16 292 73 0 ?66
 271 289 301 0 0 13 30 301 79 0 292 297 294 0 +.00155 -499999999999932e-19 .0015
5 -.203558594952777 -.957667894857974 -.203558594952777 30 297 82 0 271 302 301
 0 +.00155 -499999999999932e-19 -.00155 0 0 1 30 294 103 0 289 301 303 0 --.0015
5 -499999999999932e-19 .00155 1 0 0 30 303 100 0 293 294 304 0 +-.00155 -4999999
99999932e-19 .00155 .203558594952777 -.957667894857974 -.2035585949527765 16 293
 94 0 ?75 289 267 303 0 0 13 30 304 124 0 267 303 268 0 --.00155 -49999999999993
2e-19 -.00155 0 0 1 16 267 112 0 ?80 293 263 304 0 0 13 30 268 145 0 263 304 273
 0 --.00155 499999999999932e-19 -.00155 -1 0 0 17 80 0 177 305 291 78 286 267 0
 306 +15 177 111 0 291 172 0 17 305 0 177 307 80 70 306 296 0 55 -17 291 0 177 8
0 307 84 75 293 0 0 -17 306 0 61 62 55 78 305 296 0 265 +15 61 48 0 58 156 0 17
 62 0 61 58 306 73 264 308 0 269 +17 55 0 61 306 58 70 65 36 0 0 +16 296 52 0 ?3
06 308 271 302 0 0 13 16 308 51 0 ?62 64 296 309 0 0 13 30 302 58 0 296 309 297
 0 +-.00145434954724849 -5e-4 -.00145434954724849 -.203558594952777 .95766789485
7974 -.203558594952776 30 309 59 0 308 310 302 0 +-.00155 -499999999999932e-19 -
.00155 1 0 0 30 310 60 0 64 311 309 0 +.00155 -499999999999932e-19 -.00155 -.203
558594952778 -.957667894857974 .203558594952776 16 64 50 0 ?58 312 308 310 0 0 1
3 30 311 39 0 312 313 310 0 +-.00145434954724849 -5e-4 .00155 0 0 1 16 312 9 0 ?
307 300 64 311 0 0 13 30 313 36 0 300 314 311 0 +-.00155 -5e-4 .0014543495472484
9 1 0 0 16 300 14 0 ?298 56 312 313 0 0 13 30 314 33 0 56 57 313 0 -.00145434954
724849 -5e-4 .00155 0 0 1 16 56 18 0 ?295 36 300 314 0 0 13 30 57 31 0 36 0 314
 0 --.00155 -5e-4 -.00145434954724849 1 0 0 17 295 0 169 63 66 37 164 56 0 0 +17
 164 0 157 299 65 59 295 56 0 298 -17 299 0 157 72 164 67 298 300 0 307 -17 65 0
 157 164 72 37 55 36 0 295 -17 72 0 157 65 299 70 307 312 0 305 -17 307 0 177 29
1 305 67 72 312 0 0 +17 264 0 181 261 77 78 62 308 0 0 -17 75 0 173 298 287 67 2
91 293 0 299 +83 3 161 0 0 0 17 140 0 147 140 140 0 139 126 0 0 -83 3 152 0 0 0
 15 117 301 0 139 116 0 19 48 5 0 13 0 35 31 S0 74 4 CI16 index_map_offset0 0 1
 dCCZ20 46 3 0 0 203 155 29 0 0 0 0 0 0 0 0 0 0 0 0 0 0 0 0 0 80 1 5 315 316 801
7 0 0 0 0 0 0 0 0 0 TTTTTTTTTTTTTF3 84 255 26 45 body_TSSOP_TSSOP_3.1x3.1_179 13
 316 SDL/TYSA_NAME81 1 10 761 5 7 0 0 0 0 317 70 11 0 4 T7 0 0 3 20 1 318 318 13
 14 600 0 7 0 319 0 0 320 0 50 15 483 0 319 321 0 0 +125e-6 -2e-4 15e-5 1 0 0 0
 0 -1 31 16 632 0 322 323 0 0 -125e-6 -2e-4 15e-5 1 0 0 0 0 -1 25e-5 29 17 634 0
 324 325 0 125e-6 5e-5 15e-5 19 18 601 0 7 320 0 326 V0 16 19 53 0 ?327 0 328 32
9 0 0 7 18 20 49 0 330 0 331 332 ?7 17 330 0 333 327 334 20 335 336 0 337 +18 33
1 45 0 338 20 339 340 ?7 29 332 606 0 20 340 341 -125e-6 -5e-5 15e-5 29 340 605
 0 331 342 332 -125e-6 -.0001407127899197334 .00028778616302408 29 341 609 0 343
 332 344 -125e-6 -6e-4 65e-5 18 343 37 0 345 339 346 341 ?7 29 344 610 0 339 341
 347 -125e-6 -.0004488120168004445 .000420356394959867 18 339 41 0 348 331 343 3
44 ?7 29 347 613 0 349 344 350 -125e-6 -.0004092872100802665 .00051221383697592
 18 349 21 0 351 352 353 347 ?7 29 350 614 0 352 347 354 -125e-6 -5e-4 65e-5 18
 352 25 0 355 356 349 350 ?7 29 354 617 0 357 350 358 -125e-6 5e-5 15e-5 18 357
 13 0 359 353 360 354 ?7 29 358 618 0 353 354 361 -125e-6 -.0001011879831995558
 .0003796436050401335 18 353 17 0 362 349 357 358 ?7 29 361 621 0 363 358 364 12
5e-6 -.0001407127899197334 .00028778616302408 18 363 133 0 365 366 367 361 ?7 29
 364 622 0 368 361 369 125e-6 -5e-5 15e-5 18 368 102 0 334 370 366 364 ?7 29 369
 625 0 367 364 371 125e-6 -.0004488120168004445 .000420356394959867 18 367 163 0
 372 363 373 369 ?7 29 371 626 0 373 369 374 125e-6 -6e-4 65e-5 18 373 192 0 375
 367 376 371 ?7 29 374 629 0 377 371 378 125e-6 -.0004092872100802665 .000512213
83697592 18 377 311 0 379 380 381 374 ?7 29 378 630 0 380 374 325 125e-6 -5e-4 6
5e-5 18 380 282 0 382 383 377 378 ?7 29 325 633 0 381 378 17 125e-6 -.0001011879
831995558 .0003796436050401335 18 381 341 0 384 377 324 325 ?7 17 384 0 385 379
 386 381 387 322 0 388 -18 324 370 0 387 381 389 17 ?7 17 387 0 390 359 391 324
 384 322 0 386 +18 389 400 0 392 324 0 393 206155281280883e-22 7 17 392 0 385 38
6 394 389 395 396 0 397 +29 393 598 0 389 398 342 125e-6 5e-5 0 29 398 597 0 360
 399 393 -125e-6 5e-5 0 29 342 599 0 366 393 340 125e-6 -5e-5 0 18 366 103 0 395
 368 363 342 206155281280883e-22 7 17 395 0 400 401 402 366 392 396 0 403 -15 40
0 423 0 395 404 0 17 401 0 400 405 395 370 403 406 0 327 -17 402 0 400 395 405 3
89 407 408 0 0 +16 396 425 0 ?392 408 0 409 0 0 7 17 403 0 333 334 327 366 401 4
06 0 394 +15 333 96 0 330 410 0 17 334 0 333 330 403 368 394 411 0 412 +17 327 0
 333 403 330 370 337 19 0 0 +16 406 100 0 ?403 411 413 414 0 0 7 17 394 0 385 39
2 412 366 334 411 0 0 -15 385 458 0 365 319 0 17 412 0 385 394 365 368 415 413 0
 335 +16 411 99 0 ?334 336 406 416 0 0 7 16 336 98 0 ?330 417 411 418 0 0 7 133
 255 416 453 0 411 419 420 0 +420 125e-6 -5e-5 0 125e-6 -5e-5 15e-5 15e-5 0 30 4
19 419 0 7 421 416 422 +-125e-6 5e-5 0 1 0 0 30 420 454 0 7 416 409 423 -125e-6
 -5e-5 15e-5 0 0 -1 133 409 522 0 396 420 424 0 +424 125e-6 -5e-5 0 125e-6 5e-5
 0 -1e-4 0 141 255 423 416 423 423 420 30 424 523 0 7 409 425 426 +125e-6 5e-5 0
 0 1 0 30 425 532 0 427 424 428 0 -125e-6 -.0001407127899197334 .000287786163024
08 0 .918574420160533 -.395248067201777 141 426 409 426 426 424 16 427 160 0 ?37
2 429 430 425 0 0 7 133 428 543 0 431 425 432 0 +432 125e-6 -6e-4 65e-5 125e-6 -
6e-4 95e-5 3e-4 0 16 431 219 0 ?433 434 435 428 0 0 7 30 432 544 0 7 428 436 437
 -125e-6 -6e-4 95e-5 0 361400724161835e-30 -1 133 436 552 0 435 432 438 0 +438 1
25e-6 -5e-4 95e-5 125e-6 -6e-4 95e-5 1e-4 0 141 437 428 437 437 432 16 435 249 0
 ?439 431 440 436 0 0 7 30 438 553 0 7 436 441 442 -125e-6 -6e-4 95e-5 0 1 0 133
 441 560 0 443 438 444 0 +444 125e-6 -5e-4 65e-5 125e-6 -5e-4 95e-5 3e-4 0 141 4
42 436 442 442 438 16 443 278 0 ?445 440 446 441 0 0 7 30 444 561 0 7 441 447 44
8 -125e-6 -5e-4 95e-5 0 361400724161835e-30 -1 30 447 576 0 449 444 450 0 -125e-
6 -.0001011879831995558 .000379643605040133 0 .918574420160533 -.395248067201777
 141 448 441 448 448 444 16 449 337 0 ?379 451 452 447 0 0 7 133 450 587 0 453 4
47 454 0 +454 125e-6 5e-5 0 125e-6 5e-5 15e-5 15e-5 271050543121376e-34 16 453 3
96 0 ?386 322 408 450 0 0 7 30 454 588 0 7 450 455 456 -125e-6 5e-5 15e-5 0 0 -1
 31 455 604 0 328 454 457 0 --125e-6 -2e-4 15e-5 1 0 0 0 0 -1 15e-5 141 456 450
 456 456 454 16 328 50 0 ?458 19 459 455 0 0 7 31 457 608 0 460 455 461 0 +-125e
-6 -35e-5 65e-5 1 0 0 0 0 -1 25e-5 16 460 42 0 ?462 459 463 457 0 0 7 31 461 612
 0 464 457 465 0 --125e-6 -35e-5 65e-5 1 0 0 0 0 -1 15e-5 16 464 26 0 ?466 467 4
68 461 0 0 7 31 465 616 0 469 461 470 0 +-125e-6 -2e-4 15e-5 1 0 0 0 0 -1 25e-5
 16 469 18 0 ?471 468 472 465 0 0 7 31 470 620 0 413 465 473 0 -125e-6 -2e-4 15e
-5 1 0 0 0 0 -1 15e-5 16 413 129 0 ?412 406 474 470 0 0 7 31 473 624 0 475 470 3
23 0 -125e-6 -35e-5 65e-5 1 0 0 0 0 -1 25e-5 16 475 189 0 ?375 430 434 473 0 0 7
 31 323 628 0 476 473 16 0 -125e-6 -35e-5 65e-5 1 0 0 0 0 -1 15e-5 16 476 307 0
 ?382 446 451 323 0 0 7 17 382 0 385 445 379 380 477 476 0 478 +16 446 279 0 ?47
9 443 476 480 0 0 7 16 451 308 0 ?481 476 449 482 0 0 7 17 481 0 483 388 484 377
 351 451 0 0 +30 482 329 0 451 480 485 0 +-125e-6 -.000409287210080267 .00051221
383697592 1 0 0 30 480 297 0 446 486 482 0 +-125e-6 -5e-4 65e-5 1 0 0 30 485 356
 0 452 482 487 0 +-125e-6 -.0001011879831995558 .000379643605040133 1 0 0 16 452
 338 0 ?391 449 488 485 0 0 7 30 487 386 0 488 485 421 0 --125e-6 5e-5 15e-5 1 0
 0 16 488 366 0 ?359 452 322 487 0 0 7 133 421 418 0 408 487 419 0 +419 -125e-6
 5e-5 0 125e-6 5e-5 0 0 25e-5 16 408 397 0 ?402 453 396 421 0 0 7 17 359 0 390 4
71 387 357 489 488 0 490 +16 322 367 0 ?387 488 453 16 0 0 7 15 390 364 0 359 49
1 0 17 471 0 390 391 359 353 490 469 0 0 +17 489 0 492 397 493 324 359 488 0 0 -
17 490 0 494 495 496 357 471 469 0 493 -15 494 7 0 497 498 0 17 495 0 494 499 49
0 360 493 472 0 405 -17 496 0 494 490 500 353 484 468 0 471 -17 493 0 492 489 40
7 357 495 472 0 0 +15 492 394 0 397 501 0 17 407 0 492 493 397 360 402 408 0 495
 -16 472 14 0 ?493 469 417 502 0 0 7 16 417 9 0 ?405 472 336 503 0 0 7 133 502 8
4 0 472 504 505 0 +505 -125e-6 5e-5 0 -125e-6 5e-5 15e-5 15e-5 271050543121376e-
34 30 504 83 0 468 506 502 0 +-125e-6 -.0001011879831995558 .0003796436050401335
 0 -.918574420160533 .395248067201777 30 505 85 0 7 502 418 507 --125e-6 5e-5 15
e-5 0 0 -1 30 418 115 0 336 505 414 0 --125e-6 -5e-5 15e-5 1 0 0 141 507 502 507
 507 505 133 414 119 0 406 418 508 0 +508 -125e-6 -5e-5 0 125e-6 -5e-5 0 0 25e-5
 30 508 120 0 7 414 503 509 +-125e-6 -5e-5 0 1 0 0 133 503 121 0 417 508 510 0 +
510 -125e-6 -5e-5 0 -125e-6 5e-5 0 15e-5 25e-5 141 509 414 509 509 508 30 510 12
2 0 7 503 511 512 +-125e-6 -2e-4 0 0 1 0 30 511 151 0 474 510 513 0 +-125e-6 -.0
001407127899197334 .00028778616302408 1 0 0 141 512 503 512 512 510 16 474 130 0
 ?514 413 429 511 0 0 7 30 513 176 0 429 511 515 0 --125e-6 -.000448812016800444
5 .000420356394959867 1 0 0 16 429 159 0 ?348 474 427 513 0 0 7 30 515 208 0 430
 513 516 0 --125e-6 -6e-4 65e-5 1 0 0 16 430 188 0 ?345 427 475 515 0 0 7 133 51
6 240 0 434 515 517 0 +517 125e-6 -6e-4 95e-5 -125e-6 -6e-4 95e-5 25e-5 0 16 434
 218 0 ?518 475 431 516 0 0 7 30 517 241 0 7 516 519 520 --125e-6 -6e-4 95e-5 1
 0 0 133 519 242 0 521 517 522 0 +522 -125e-6 -5e-4 95e-5 -125e-6 -6e-4 95e-5 -3
e-4 -4e-4 141 520 516 520 520 517 16 521 34 0 ?523 463 467 519 0 0 7 30 522 243
 0 7 519 524 525 --125e-6 -2e-4 95e-5 0 1 0 133 524 271 0 440 522 486 0 +486 -12
5e-6 -5e-4 95e-5 125e-6 -5e-4 95e-5 0 -25e-5 141 525 519 525 525 522 16 440 250
 0 ?526 435 443 524 0 0 7 30 486 272 0 7 524 480 527 --125e-6 -5e-4 95e-5 -1 0 0
 141 527 524 527 527 486 17 526 0 528 478 529 383 530 440 0 0 +15 528 276 0 478
 531 0 17 478 0 528 355 526 380 445 443 0 479 -17 529 0 528 526 355 356 532 467
 0 0 +18 383 253 0 445 376 380 399 206155281280883e-22 7 17 530 0 533 523 534 35
6 526 440 0 535 -15 533 247 0 534 536 0 17 523 0 533 537 530 346 535 521 0 0 +17
 534 0 533 530 537 383 439 435 0 526 -18 356 29 0 530 346 352 538 20615528128088
3e-22 7 17 535 0 494 532 539 356 523 521 0 529 -17 532 0 494 500 535 352 529 467
 0 466 -17 539 0 494 535 540 346 541 463 0 523 -17 540 0 494 539 542 343 462 460
 0 541 -18 346 33 0 518 343 356 543 206155281280883e-22 7 17 541 0 544 545 518 3
43 539 463 0 0 +16 463 38 0 ?541 460 521 546 0 0 7 133 546 74 0 463 547 548 0 +5
48 -125e-6 -6e-4 95e-5 -125e-6 -6e-4 65e-5 -8e-4 -5e-4 30 547 73 0 459 549 546 0
 +-125e-6 -.0004488120168004445 .000420356394959867 0 .918574420160533 -.3952480
67201777 30 548 75 0 7 546 550 551 +-125e-6 -6e-4 15e-5 0 0 -1 133 550 79 0 467
 548 506 0 +506 -125e-6 -5e-4 65e-5 -125e-6 -5e-4 95e-5 -5e-4 -8e-4 141 551 546
 551 551 548 16 467 30 0 ?529 521 464 550 0 0 7 30 506 80 0 7 550 504 552 --125e
-6 -5e-4 15e-5 0 0 -1 141 552 550 552 552 506 16 459 46 0 ?553 328 460 547 0 0 7
 30 549 71 0 7 329 547 554 +-125e-6 -5e-5 15e-5 0 0 -1 133 329 70 0 19 0 549 0 +
549 -125e-6 -5e-5 15e-5 -125e-6 -5e-5 0 0 15e-5 141 554 329 554 554 549 17 553 0
 555 514 348 331 542 459 0 0 +15 555 157 0 348 556 0 17 514 0 555 372 553 363 33
8 474 0 0 +17 348 0 555 553 372 339 557 429 0 542 +17 542 0 494 540 497 339 553
 459 0 462 -17 497 0 494 542 337 331 458 328 0 553 -17 462 0 558 557 345 339 540
 460 0 0 +15 558 186 0 345 559 0 17 557 0 558 375 462 367 348 429 0 0 -17 345 0
 558 462 375 343 545 430 0 540 +17 375 0 558 345 557 373 560 475 0 561 +17 545 0
 544 433 541 373 345 430 0 0 -15 544 216 0 518 562 0 17 433 0 544 518 545 376 56
1 431 0 439 +17 518 0 544 541 433 346 537 434 0 539 +18 376 222 0 433 373 383 56
3 206155281280883e-22 7 17 561 0 385 560 439 373 433 431 0 545 -17 439 0 385 561
 445 376 534 435 0 537 +17 445 0 385 439 382 383 478 443 0 534 +17 537 0 533 534
 523 376 518 434 0 0 -17 560 0 385 365 561 367 375 475 0 557 -17 365 0 385 412 5
60 363 372 427 0 415 -17 372 0 555 348 514 367 365 427 0 560 +17 415 0 564 338 3
35 363 412 413 0 514 -15 564 127 0 415 565 0 17 338 0 564 458 415 331 514 474 0
 497 -17 335 0 564 415 458 368 330 336 0 0 -17 458 0 564 335 338 20 497 328 0 0
 +14 565 125 566 1e-8 410 556 564 14 567 -0 0 556 410 326 81 1 566 758 148 565 5
68 0 569 570 571 14 410 94 570 1e-8 498 565 333 14 572 +0 0 565 498 326 14 556 1
55 569 1e-8 565 559 555 14 573 +0 0 559 565 326 51 567 136 0 565 572 573 0 +-125
e-6 -2e-4 15e-5 1 0 0 15e-5 0 0 -1 13 326 3 0 0 0 0 0 0 18 498 14 498 2 574 1e-8
 0 410 494 14 575 -0 0 410 0 326 81 1 574 760 148 498 576 0 570 0 577 50 575 12
 0 498 0 572 0 +-125e-6 -2e-4 15e-5 1 0 0 0 0 -1 50 572 105 0 410 575 567 0 +-12
5e-6 -5e-5 15e-5 0 -1 0 0 0 -1 81 1 576 725 206 498 0 574 578 579 580 81 1 570 7
59 148 410 581 0 566 574 582 83 3 577 .764705882352941 .764705882352941 .7647058
82352941 81 1 581 721 206 410 0 570 568 578 583 83 3 582 .764705882352941 .76470
5882352941 .764705882352941 81 1 568 719 206 565 0 566 0 581 584 81 1 578 723 20
6 556 0 569 581 576 585 82 1 583 999999 81 1 569 757 148 556 578 0 586 566 587 8
2 1 585 999999 81 1 586 756 148 559 579 0 588 569 589 83 3 587 .764705882352941
 .764705882352941 .764705882352941 14 559 184 586 1e-8 556 562 558 14 590 +0 0 5
62 556 326 81 1 579 727 206 559 0 586 576 591 592 81 1 588 755 148 562 591 0 593
 586 594 83 3 589 .764705882352941 .764705882352941 .764705882352941 14 562 214
 588 1e-8 559 536 544 14 595 +0 0 536 559 326 81 1 591 729 206 562 0 588 579 596
 597 81 1 593 754 148 536 596 0 598 588 599 83 3 594 .764705882352941 .764705882
352941 .764705882352941 14 536 245 593 1e-8 562 531 533 14 600 -0 0 531 562 326
 81 1 596 731 206 536 0 593 591 601 602 81 1 598 753 148 531 601 0 603 593 604 8
3 3 599 .764705882352941 .764705882352941 .764705882352941 14 531 274 598 1e-8 5
36 605 528 14 606 -0 0 605 536 326 81 1 601 733 206 531 0 598 596 607 608 81 1 6
03 752 148 605 607 0 609 598 610 83 3 604 .764705882352941 .764705882352941 .764
705882352941 14 605 303 603 1e-8 531 611 612 14 613 -0 0 611 531 326 81 1 607 73
5 206 605 0 603 601 614 615 81 1 609 751 148 611 614 0 616 603 617 83 3 610 .764
705882352941 .764705882352941 .764705882352941 14 611 333 609 1e-8 605 491 483 1
4 618 -0 0 491 605 326 81 1 614 737 206 611 0 609 607 619 620 81 1 616 750 148 4
91 619 0 621 609 622 83 3 617 .764705882352941 .764705882352941 .764705882352941
 14 491 362 616 1e-8 611 501 390 14 623 +0 0 501 611 326 81 1 619 739 206 491 0
 616 614 624 625 81 1 621 749 148 501 624 0 626 616 627 83 3 622 .76470588235294
1 .764705882352941 .764705882352941 14 501 392 621 1e-8 491 404 492 14 628 -0 0
 404 491 326 81 1 624 741 206 501 0 621 619 629 630 81 1 626 748 148 404 629 0 6
31 621 632 83 3 627 .764705882352941 .764705882352941 .764705882352941 14 404 42
1 626 1e-8 501 319 400 14 321 -0 0 319 501 326 81 1 629 743 206 404 0 626 624 63
3 634 81 1 631 747 148 319 633 0 0 626 635 83 3 632 .764705882352941 .7647058823
52941 .764705882352941 14 319 456 631 1e-8 404 0 385 14 15 +0 0 0 404 326 81 1 6
33 745 206 319 0 631 629 0 636 83 3 635 .764705882352941 .764705882352941 .76470
5882352941 82 1 636 999999 82 1 634 999999 50 321 432 0 404 628 15 0 +-125e-6 5e
-5 0 0 0 1 1 0 0 50 628 403 0 501 623 321 0 +-125e-6 5e-5 15e-5 0 -1 0 0 0 -1 51
 623 373 0 491 618 628 0 +-125e-6 -2e-4 15e-5 1 0 0 25e-5 0 0 -1 50 618 344 0 61
1 613 623 0 +-125e-6 -.0001011879831995558 .000379643605040133 0 -.3952480672017
77 -.918574420160533 0 .918574420160533 -.395248067201777 51 613 314 0 605 606 6
18 0 +-125e-6 -35e-5 65e-5 1 0 0 15e-5 0 0 -1 50 606 285 0 531 600 613 0 +-125e-
6 -5e-4 95e-5 0 -1 -361400724161835e-30 0 361400724161835e-30 -1 50 600 256 0 53
6 595 606 0 +-125e-6 -6e-4 95e-5 0 0 -1 -1 0 0 50 595 225 0 562 590 600 0 +-125e
-6 -6e-4 95e-5 0 -1 -361400724161835e-30 0 361400724161835e-30 -1 51 590 195 0 5
59 573 595 0 +-125e-6 -35e-5 65e-5 1 0 0 25e-5 0 0 -1 50 573 166 0 556 567 590 0
 +-125e-6 -.0001407127899197334 .00028778616302408 0 -.395248067201777 -.9185744
20160533 0 .918574420160533 -.395248067201777 82 1 630 999999 82 1 625 999999 82
 1 620 999999 15 483 335 0 388 611 0 17 388 0 483 362 481 381 379 449 0 391 -17
 362 0 483 484 388 353 391 452 0 496 -17 379 0 385 382 384 377 388 449 0 477 +17
 391 0 390 387 471 381 362 452 0 0 +17 477 0 612 351 479 377 382 476 0 481 -15 6
12 305 0 477 605 0 17 351 0 612 466 477 349 481 451 0 500 -17 479 0 612 477 466
 380 355 446 0 0 +17 466 0 612 479 351 352 500 464 0 0 +17 355 0 528 529 478 352
 479 446 0 532 -17 500 0 494 496 532 349 466 464 0 484 -17 484 0 483 481 362 349
 496 468 0 0 +16 468 22 0 ?484 464 469 504 0 0 7 82 1 615 999999 82 1 608 999999
 82 1 602 999999 82 1 597 999999 82 1 592 999999 82 1 584 999999 82 1 580 999999
 83 3 571 .764705882352941 .764705882352941 .764705882352941 29 563 558 0 376 54
3 538 125e-6 -6e-4 95e-5 29 543 550 0 346 637 563 -125e-6 -6e-4 95e-5 29 538 563
 0 356 563 399 -125e-6 -5e-4 95e-5 29 399 564 0 383 538 398 125e-6 -5e-4 95e-5 2
9 637 525 0 370 0 543 -125e-6 -5e-5 0 18 370 6 0 499 360 368 637 206155281280949
e-22 7 17 499 0 494 337 495 370 405 417 0 401 -18 360 8 0 407 357 370 398 206155
281280949e-22 7 17 337 0 494 497 499 20 327 19 0 458 -17 405 0 400 402 401 360 4
99 417 0 0 +17 397 0 492 407 489 389 386 453 0 402 -17 386 0 385 384 392 324 397
 453 0 489 +141 422 421 422 422 419 19 320 5 0 7 0 18 14 S0 74 20 318 3 0 0 633
 574 10 0 0 0 0 0 0 0 0 0 0 0 0 0 0 0 0 0 84 17 317 pin_TSSOP_tssop_174 20 6 1 0
 0 2 0 0 0 0 0 0 0 0 0 0 0 0 0 0 0 0 0 0 0 1 0 
